SplineFontDB: 3.0
FontName: metro
FullName: metro
FamilyName: metro
Weight: Book
Copyright: 2012-2015 Metro UI CSS
Version: 1.0
ItalicAngle: 0
UnderlinePosition: 0
UnderlineWidth: 0
Ascent: 960
Descent: 64
InvalidEm: 0
sfntRevision: 0x00010000
LayerCount: 4
Layer: 0 1 "Back" 1
Layer: 1 1 "Fore" 0
Layer: 2 0 "Back 2" 1
Layer: 3 0 "Back 3" 1
XUID: [1021 967 2042176589 18555]
StyleMap: 0x0000
FSType: 0
OS2Version: 4
OS2_WeightWidthSlopeOnly: 0
OS2_UseTypoMetrics: 1
CreationTime: 1432833057
ModificationTime: 1480612319
PfmFamily: 81
TTFWeight: 400
TTFWidth: 5
LineGap: 0
VLineGap: 0
Panose: 0 0 0 0 0 0 0 0 0 0
OS2TypoAscent: 960
OS2TypoAOffset: 0
OS2TypoDescent: -64
OS2TypoDOffset: 0
OS2TypoLinegap: 64
OS2WinAscent: 960
OS2WinAOffset: 0
OS2WinDescent: 64
OS2WinDOffset: 0
HheadAscent: 960
HheadAOffset: 0
HheadDescent: -64
HheadDOffset: 0
OS2SubXSize: 665
OS2SubYSize: 716
OS2SubXOff: 0
OS2SubYOff: 143
OS2SupXSize: 665
OS2SupYSize: 716
OS2SupXOff: 0
OS2SupYOff: 491
OS2StrikeYSize: 51
OS2StrikeYPos: 265
OS2Vendor: 'PfEd'
OS2CodePages: 00000001.00000000
OS2UnicodeRanges: 00000001.10000000.00000000.00000000
DEI: 91125
ShortTable: maxp 16
  1
  0
  469
  1159
  57
  0
  0
  2
  0
  0
  0
  0
  0
  0
  0
  0
EndShort
LangName: 1033 "" "" "Regular" "metro" "" "Version 1.0" "" "" "" "" "Metro Icon Font+AAoA-Font generated by IcoMoon." "http://metroui.org.ua/font.html" "" "MIT" "http://metroui.org.ua/license.html"
GaspTable: 1 65535 15 1
Encoding: UnicodeBmp
UnicodeInterp: none
NameList: AGL For New Fonts
DisplaySize: -96
AntiAlias: 1
FitToEm: 0
WinInfo: 59020 20 8
BeginChars: 65537 471

StartChar: glyph1
Encoding: 0 -1 1
AltUni2: 000000.ffffffff.0
Width: 0
Flags: W
LayerCount: 4
Fore
SplineSet
0 0 m 1,0,-1
 0 0 l 1,1,-1
 0 0 l 1,2,-1
 0 0 l 1,0,-1
EndSplineSet
EndChar

StartChar: uni0001
Encoding: 1 1 3
Width: 0
Flags: W
LayerCount: 4
Fore
SplineSet
0 0 m 1,0,-1
 0 0 l 1,1,-1
 0 0 l 1,2,-1
 0 0 l 1,0,-1
EndSplineSet
EndChar

StartChar: space
Encoding: 32 32 4
Width: 512
Flags: W
LayerCount: 4
Fore
SplineSet
0 0 m 1,0,-1
 0 0 l 1,1,-1
 0 0 l 1,2,-1
 0 0 l 1,0,-1
EndSplineSet
EndChar

StartChar: uniE600
Encoding: 58880 58880 5
Width: 1024
Flags: W
LayerCount: 4
Fore
SplineSet
321 22 m 1,0,1
 268 47 268 47 224 84 c 128,-1,2
 180 121 180 121 147 167.5 c 128,-1,3
 114 214 114 214 93 269 c 128,-1,4
 72 324 72 324 66 384 c 1,5,-1
 2 384 l 1,6,7
 10 285 10 285 53 199.5 c 128,-1,8
 96 114 96 114 164.5 50.5 c 128,-1,9
 233 -13 233 -13 322 -49 c 128,-1,10
 411 -85 411 -85 512 -85 c 0,11,12
 519 -85 519 -85 526 -84.5 c 128,-1,13
 533 -84 533 -84 540 -84 c 1,14,-1
 378 79 l 1,15,-1
 321 22 l 1,16,-1
 321 22 l 1,0,1
359 300 m 1,17,18
 353 300 353 300 347 301 c 128,-1,19
 341 302 341 302 336 304 c 256,20,21
 331 306 331 306 327 308.5 c 128,-1,22
 323 311 323 311 319 314 c 0,23,24
 316 317 316 317 313 321 c 128,-1,25
 310 325 310 325 308 330 c 0,26,27
 306 334 306 334 305 339 c 128,-1,28
 304 344 304 344 304 350 c 1,29,-1
 249 350 l 1,30,31
 249 338 249 338 251 328 c 128,-1,32
 253 318 253 318 258 309 c 0,33,34
 262 300 262 300 268 293 c 128,-1,35
 274 286 274 286 282 280 c 0,36,37
 289 274 289 274 298 269.5 c 128,-1,38
 307 265 307 265 317 262 c 256,39,40
 327 259 327 259 337 257.5 c 128,-1,41
 347 256 347 256 358 256 c 0,42,43
 370 256 370 256 381 257.5 c 128,-1,44
 392 259 392 259 402 262 c 0,45,46
 412 266 412 266 421 270.5 c 128,-1,47
 430 275 430 275 438 281 c 0,48,49
 445 288 445 288 451 295.5 c 128,-1,50
 457 303 457 303 461 312 c 256,51,52
 465 321 465 321 467.5 331.5 c 128,-1,53
 470 342 470 342 470 354 c 0,54,55
 470 360 470 360 469 366 c 128,-1,56
 468 372 468 372 467 378 c 0,57,58
 465 383 465 383 462.5 388.5 c 128,-1,59
 460 394 460 394 457 399 c 256,60,61
 454 404 454 404 449.5 409 c 128,-1,62
 445 414 445 414 440 418 c 0,63,64
 434 422 434 422 427.5 425 c 128,-1,65
 421 428 421 428 414 431 c 1,66,67
 420 434 420 434 425.5 437.5 c 128,-1,68
 431 441 431 441 436 445 c 256,69,70
 441 449 441 449 445 453.5 c 128,-1,71
 449 458 449 458 452 463 c 256,72,73
 455 468 455 468 457.5 472.5 c 128,-1,74
 460 477 460 477 462 483 c 0,75,76
 463 488 463 488 464 493 c 128,-1,77
 465 498 465 498 465 503 c 0,78,79
 465 515 465 515 463 525 c 128,-1,80
 461 535 461 535 457 544 c 0,81,82
 454 553 454 553 448.5 560 c 128,-1,83
 443 567 443 567 436 573 c 256,84,85
 429 579 429 579 420.5 583.5 c 128,-1,86
 412 588 412 588 402 591 c 256,87,88
 392 594 392 594 381 595.5 c 128,-1,89
 370 597 370 597 358 597 c 256,90,91
 346 597 346 597 335.5 595.5 c 128,-1,92
 325 594 325 594 315 591 c 0,93,94
 306 587 306 587 297.5 582.5 c 128,-1,95
 289 578 289 578 282 572 c 0,96,97
 275 565 275 565 269.5 558 c 128,-1,98
 264 551 264 551 260 543 c 0,99,100
 256 534 256 534 254 525 c 128,-1,101
 252 516 252 516 252 506 c 1,102,-1
 307 506 l 1,103,104
 307 512 307 512 308 516.5 c 128,-1,105
 309 521 309 521 311 526 c 0,106,107
 313 530 313 530 316 533.5 c 128,-1,108
 319 537 319 537 322 540 c 256,109,110
 325 543 325 543 329 545.5 c 128,-1,111
 333 548 333 548 338 550 c 0,112,113
 343 551 343 551 348 552 c 128,-1,114
 353 553 353 553 358 553 c 0,115,116
 371 553 371 553 380.5 549.5 c 128,-1,117
 390 546 390 546 396 540 c 0,118,119
 403 533 403 533 406 524 c 128,-1,120
 409 515 409 515 409 503 c 0,121,122
 409 497 409 497 408 492 c 128,-1,123
 407 487 407 487 405 482 c 0,124,125
 404 477 404 477 401 473 c 128,-1,126
 398 469 398 469 395 466 c 0,127,128
 391 463 391 463 387 460.5 c 128,-1,129
 383 458 383 458 377 456 c 0,130,131
 372 454 372 454 366 453 c 128,-1,132
 360 452 360 452 353 452 c 2,133,-1
 320 452 l 1,134,-1
 320 408 l 1,135,-1
 353 408 l 2,136,137
 360 408 360 408 366 407.5 c 128,-1,138
 372 407 372 407 378 405 c 256,139,140
 384 403 384 403 388.5 400.5 c 128,-1,141
 393 398 393 398 397 395 c 256,142,143
 401 392 401 392 404 387.5 c 128,-1,144
 407 383 407 383 410 378 c 0,145,146
 412 373 412 373 413 367 c 128,-1,147
 414 361 414 361 414 353 c 0,148,149
 414 341 414 341 410 331 c 128,-1,150
 406 321 406 321 399 314 c 256,151,152
 392 307 392 307 382 303.5 c 128,-1,153
 372 300 372 300 359 300 c 1,154,-1
 359 300 l 1,17,18
724 553 m 1,155,156
 714 564 714 564 701.5 572 c 128,-1,157
 689 580 689 580 675 586 c 256,158,159
 661 592 661 592 645.5 594.5 c 128,-1,160
 630 597 630 597 613 597 c 2,161,-1
 512 597 l 1,162,-1
 512 256 l 1,163,-1
 610 256 l 2,164,165
 628 256 628 256 644 259 c 128,-1,166
 660 262 660 262 674 268 c 0,167,168
 689 273 689 273 701.5 281.5 c 128,-1,169
 714 290 714 290 724 300 c 0,170,171
 734 311 734 311 742 323.5 c 128,-1,172
 750 336 750 336 755 351 c 0,173,174
 761 366 761 366 764 383 c 128,-1,175
 767 400 767 400 767 418 c 2,176,-1
 767 435 l 2,177,178
 767 454 767 454 764 470.5 c 128,-1,179
 761 487 761 487 755 502 c 0,180,181
 750 517 750 517 742 530 c 128,-1,182
 734 543 734 543 724 553 c 1,183,-1
 724 553 l 1,155,156
707 418 m 1,184,185
 707 405 707 405 705.5 392.5 c 128,-1,186
 704 380 704 380 701 370 c 0,187,188
 698 359 698 359 693.5 350 c 128,-1,189
 689 341 689 341 683 334 c 256,190,191
 677 327 677 327 669 321 c 128,-1,192
 661 315 661 315 652 311 c 256,193,194
 643 307 643 307 632.5 305 c 128,-1,195
 622 303 622 303 610 303 c 2,196,-1
 571 303 l 1,197,-1
 571 550 l 1,198,-1
 613 550 l 2,199,200
 636 550 636 550 653.5 542.5 c 128,-1,201
 671 535 671 535 683 520 c 0,202,203
 695 506 695 506 701 484.5 c 128,-1,204
 707 463 707 463 707 435 c 2,205,-1
 707 418 l 1,206,-1
 707 418 l 1,184,185
512 939 m 1,207,208
 505 939 505 939 498 938.5 c 128,-1,209
 491 938 491 938 484 937 c 1,210,-1
 646 774 l 1,211,-1
 703 831 l 1,212,213
 755 806 755 806 799.5 769 c 128,-1,214
 844 732 844 732 877 685.5 c 128,-1,215
 910 639 910 639 931 584 c 128,-1,216
 952 529 952 529 958 469 c 1,217,-1
 1022 469 l 1,218,219
 1014 568 1014 568 971 653.5 c 128,-1,220
 928 739 928 739 859.5 802.5 c 128,-1,221
 791 866 791 866 702 902.5 c 128,-1,222
 613 939 613 939 512 939 c 1,223,-1
 512 939 l 1,207,208
EndSplineSet
EndChar

StartChar: uniE601
Encoding: 58881 58881 6
Width: 1024
Flags: W
LayerCount: 4
Fore
SplineSet
939 695 m 1,0,-1
 743 859 l 1,1,-1
 688 794 l 1,2,-1
 884 629 l 1,3,-1
 939 695 l 1,4,-1
 939 695 l 1,0,-1
336 794 m 1,5,-1
 281 859 l 1,6,-1
 85 695 l 1,7,-1
 140 630 l 1,8,-1
 336 794 l 1,9,-1
 336 794 l 1,5,-1
533 597 m 1,10,-1
 469 597 l 1,11,-1
 469 341 l 1,12,-1
 672 220 l 1,13,-1
 704 272 l 1,14,-1
 533 373 l 1,15,-1
 533 597 l 1,16,-1
 533 597 l 1,10,-1
512 768 m 1,17,18
 432 768 432 768 362 738 c 128,-1,19
 292 708 292 708 240 655.5 c 128,-1,20
 188 603 188 603 158 533.5 c 128,-1,21
 128 464 128 464 128 384 c 256,22,23
 128 304 128 304 158 234.5 c 128,-1,24
 188 165 188 165 240 112.5 c 128,-1,25
 292 60 292 60 362 30 c 128,-1,26
 432 0 432 0 512 0 c 0,27,28
 591 0 591 0 661 30 c 128,-1,29
 731 60 731 60 783.5 112.5 c 128,-1,30
 836 165 836 165 866 234.5 c 128,-1,31
 896 304 896 304 896 384 c 256,32,33
 896 464 896 464 866 533.5 c 128,-1,34
 836 603 836 603 783.5 655.5 c 128,-1,35
 731 708 731 708 661 738 c 128,-1,36
 591 768 591 768 512 768 c 1,37,-1
 512 768 l 1,17,18
512 85 m 1,38,39
 450 85 450 85 395.5 108.5 c 128,-1,40
 341 132 341 132 300.5 172.5 c 128,-1,41
 260 213 260 213 236.5 267.5 c 128,-1,42
 213 322 213 322 213 384 c 256,43,44
 213 446 213 446 236.5 500.5 c 128,-1,45
 260 555 260 555 300.5 595.5 c 128,-1,46
 341 636 341 636 395.5 659.5 c 128,-1,47
 450 683 450 683 512 683 c 256,48,49
 574 683 574 683 628.5 659.5 c 128,-1,50
 683 636 683 636 723.5 595.5 c 128,-1,51
 764 555 764 555 787.5 500.5 c 128,-1,52
 811 446 811 446 811 384 c 256,53,54
 811 322 811 322 787.5 267.5 c 128,-1,55
 764 213 764 213 723.5 172.5 c 128,-1,56
 683 132 683 132 628.5 108.5 c 128,-1,57
 574 85 574 85 512 85 c 1,58,-1
 512 85 l 1,38,39
EndSplineSet
EndChar

StartChar: uniE602
Encoding: 58882 58882 7
Width: 1024
Flags: W
LayerCount: 4
Fore
SplineSet
939 695 m 1,0,-1
 743 859 l 1,1,-1
 688 794 l 1,2,-1
 884 629 l 1,3,-1
 939 695 l 1,4,-1
 939 695 l 1,0,-1
336 794 m 1,5,-1
 281 859 l 1,6,-1
 85 695 l 1,7,-1
 140 630 l 1,8,-1
 336 794 l 1,9,-1
 336 794 l 1,5,-1
512 768 m 1,10,11
 432 768 432 768 362 738 c 128,-1,12
 292 708 292 708 240 655.5 c 128,-1,13
 188 603 188 603 158 533.5 c 128,-1,14
 128 464 128 464 128 384 c 256,15,16
 128 304 128 304 158 234.5 c 128,-1,17
 188 165 188 165 240 112.5 c 128,-1,18
 292 60 292 60 362 30 c 128,-1,19
 432 0 432 0 512 0 c 0,20,21
 591 0 591 0 661 30 c 128,-1,22
 731 60 731 60 783.5 112.5 c 128,-1,23
 836 165 836 165 866 234.5 c 128,-1,24
 896 304 896 304 896 384 c 256,25,26
 896 464 896 464 866 533.5 c 128,-1,27
 836 603 836 603 783.5 655.5 c 128,-1,28
 731 708 731 708 661 738 c 128,-1,29
 591 768 591 768 512 768 c 1,30,-1
 512 768 l 1,10,11
512 85 m 1,31,32
 450 85 450 85 395.5 108.5 c 128,-1,33
 341 132 341 132 300.5 172.5 c 128,-1,34
 260 213 260 213 236.5 267.5 c 128,-1,35
 213 322 213 322 213 384 c 256,36,37
 213 446 213 446 236.5 500.5 c 128,-1,38
 260 555 260 555 300.5 595.5 c 128,-1,39
 341 636 341 636 395.5 659.5 c 128,-1,40
 450 683 450 683 512 683 c 256,41,42
 574 683 574 683 628.5 659.5 c 128,-1,43
 683 636 683 636 723.5 595.5 c 128,-1,44
 764 555 764 555 787.5 500.5 c 128,-1,45
 811 446 811 446 811 384 c 256,46,47
 811 322 811 322 787.5 267.5 c 128,-1,48
 764 213 764 213 723.5 172.5 c 128,-1,49
 683 132 683 132 628.5 108.5 c 128,-1,50
 574 85 574 85 512 85 c 1,51,-1
 512 85 l 1,31,32
449 319 m 1,52,-1
 359 409 l 1,53,-1
 314 364 l 1,54,-1
 449 228 l 1,55,-1
 706 485 l 1,56,-1
 660 530 l 1,57,-1
 449 319 l 1,58,-1
 449 319 l 1,52,-1
EndSplineSet
EndChar

StartChar: uniE603
Encoding: 58883 58883 8
Width: 1024
Flags: W
LayerCount: 4
Fore
SplineSet
512 28 m 1,0,-1
 450 84 l 2,1,2
 368 159 368 159 300.5 222.5 c 128,-1,3
 233 286 233 286 185.5 344.5 c 128,-1,4
 138 403 138 403 111.5 459.5 c 128,-1,5
 85 516 85 516 85 576 c 0,6,7
 85 625 85 625 103.5 668 c 128,-1,8
 122 711 122 711 153.5 742.5 c 128,-1,9
 185 774 185 774 228 792.5 c 128,-1,10
 271 811 271 811 320 811 c 0,11,12
 376 811 376 811 426.5 787 c 128,-1,13
 477 763 477 763 512 722 c 1,14,15
 547 763 547 763 597.5 787 c 128,-1,16
 648 811 648 811 704 811 c 0,17,18
 753 811 753 811 796 792.5 c 128,-1,19
 839 774 839 774 870.5 742.5 c 128,-1,20
 902 711 902 711 920.5 668 c 128,-1,21
 939 625 939 625 939 576 c 0,22,23
 939 516 939 516 912.5 459.5 c 128,-1,24
 886 403 886 403 838.5 344.5 c 128,-1,25
 791 286 791 286 723.5 222.5 c 128,-1,26
 656 159 656 159 574 84 c 2,27,-1
 512 28 l 1,28,-1
 512 28 l 1,0,-1
EndSplineSet
EndChar

StartChar: uniE604
Encoding: 58884 58884 9
Width: 1024
Flags: W
LayerCount: 4
Fore
SplineSet
853 277 m 1,0,1
 813 277 813 277 775 283.5 c 128,-1,2
 737 290 737 290 701 302 c 0,3,4
 690 305 690 305 678.5 302.5 c 128,-1,5
 667 300 667 300 658 291 c 2,6,-1
 564 197 l 1,7,8
 518 220 518 220 477.5 250 c 128,-1,9
 437 280 437 280 401 315.5 c 128,-1,10
 365 351 365 351 335.5 392 c 128,-1,11
 306 433 306 433 283 478 c 1,12,-1
 377 572 l 2,13,14
 385 581 385 581 388 593 c 128,-1,15
 391 605 391 605 387 616 c 0,16,17
 375 652 375 652 369 690 c 128,-1,18
 363 728 363 728 363 768 c 0,19,20
 363 786 363 786 350.5 798.5 c 128,-1,21
 338 811 338 811 320 811 c 2,22,-1
 171 811 l 2,23,24
 153 811 153 811 140.5 798.5 c 128,-1,25
 128 786 128 786 128 768 c 0,26,27
 128 618 128 618 185 486 c 128,-1,28
 242 354 242 354 340.5 255.5 c 128,-1,29
 439 157 439 157 571 100 c 128,-1,30
 703 43 703 43 853 43 c 0,31,32
 871 43 871 43 883.5 55.5 c 128,-1,33
 896 68 896 68 896 85 c 2,34,-1
 896 235 l 2,35,36
 896 252 896 252 883.5 264.5 c 128,-1,37
 871 277 871 277 853 277 c 1,38,-1
 853 277 l 1,0,1
512 811 m 1,39,-1
 512 384 l 1,40,-1
 640 512 l 1,41,-1
 896 512 l 1,42,-1
 896 811 l 1,43,-1
 512 811 l 1,44,-1
 512 811 l 1,39,-1
EndSplineSet
EndChar

StartChar: uniE605
Encoding: 58885 58885 10
Width: 1024
Flags: W
LayerCount: 4
Fore
SplineSet
811 597 m 1,0,-1
 213 597 l 2,1,2
 160 597 160 597 122.5 559.5 c 128,-1,3
 85 522 85 522 85 469 c 2,4,-1
 85 213 l 1,5,-1
 256 213 l 1,6,-1
 256 43 l 1,7,-1
 768 43 l 1,8,-1
 768 213 l 1,9,-1
 939 213 l 1,10,-1
 939 469 l 2,11,12
 939 522 939 522 901.5 559.5 c 128,-1,13
 864 597 864 597 811 597 c 1,14,-1
 811 597 l 1,0,-1
683 128 m 1,15,-1
 341 128 l 1,16,-1
 341 341 l 1,17,-1
 683 341 l 1,18,-1
 683 128 l 1,19,-1
 683 128 l 1,15,-1
811 427 m 1,20,21
 793 427 793 427 780.5 439.5 c 128,-1,22
 768 452 768 452 768 469 c 0,23,24
 768 487 768 487 780.5 499.5 c 128,-1,25
 793 512 793 512 811 512 c 0,26,27
 828 512 828 512 840.5 499.5 c 128,-1,28
 853 487 853 487 853 469 c 0,29,30
 853 452 853 452 840.5 439.5 c 128,-1,31
 828 427 828 427 811 427 c 1,32,-1
 811 427 l 1,20,21
768 811 m 1,33,-1
 256 811 l 1,34,-1
 256 640 l 1,35,-1
 768 640 l 1,36,-1
 768 811 l 1,37,-1
 768 811 l 1,33,-1
EndSplineSet
EndChar

StartChar: uniE606
Encoding: 58886 58886 11
Width: 1024
Flags: W
LayerCount: 4
Fore
SplineSet
469 -85 m 1,0,-1
 555 -85 l 1,1,-1
 555 0 l 1,2,-1
 469 0 l 1,3,-1
 469 -85 l 1,4,-1
 469 -85 l 1,0,-1
299 -85 m 1,5,-1
 384 -85 l 1,6,-1
 384 0 l 1,7,-1
 299 0 l 1,8,-1
 299 -85 l 1,9,-1
 299 -85 l 1,5,-1
640 -85 m 1,10,-1
 725 -85 l 1,11,-1
 725 0 l 1,12,-1
 640 0 l 1,13,-1
 640 -85 l 1,14,-1
 640 -85 l 1,10,-1
755 695 m 1,15,-1
 512 939 l 1,16,-1
 469 939 l 1,17,-1
 469 615 l 1,18,-1
 274 811 l 1,19,-1
 213 750 l 1,20,-1
 452 512 l 1,21,-1
 213 274 l 1,22,-1
 274 213 l 1,23,-1
 469 409 l 1,24,-1
 469 85 l 1,25,-1
 512 85 l 1,26,-1
 755 329 l 1,27,-1
 572 512 l 1,28,-1
 755 695 l 1,29,-1
 755 695 l 1,15,-1
555 775 m 1,30,-1
 635 695 l 1,31,-1
 555 615 l 1,32,-1
 555 775 l 1,33,-1
 555 775 l 1,30,-1
635 329 m 1,34,-1
 555 249 l 1,35,-1
 555 409 l 1,36,-1
 635 329 l 1,37,-1
 635 329 l 1,34,-1
EndSplineSet
EndChar

StartChar: uniE607
Encoding: 58887 58887 12
Width: 1024
Flags: W
LayerCount: 4
Fore
SplineSet
332 650 m 1,0,-1
 266 705 l 1,1,-1
 35 427 l 1,2,-1
 266 148 l 1,3,-1
 332 203 l 1,4,-1
 146 427 l 1,5,-1
 332 650 l 1,6,-1
 332 650 l 1,0,-1
299 384 m 1,7,-1
 384 384 l 1,8,-1
 384 469 l 1,9,-1
 299 469 l 1,10,-1
 299 384 l 1,11,-1
 299 384 l 1,7,-1
725 469 m 1,12,-1
 640 469 l 1,13,-1
 640 384 l 1,14,-1
 725 384 l 1,15,-1
 725 469 l 1,16,-1
 725 469 l 1,12,-1
469 384 m 1,17,-1
 555 384 l 1,18,-1
 555 469 l 1,19,-1
 469 469 l 1,20,-1
 469 384 l 1,21,-1
 469 384 l 1,17,-1
758 705 m 1,22,-1
 692 650 l 1,23,-1
 878 427 l 1,24,-1
 692 203 l 1,25,-1
 758 149 l 1,26,-1
 989 427 l 1,27,-1
 758 705 l 1,28,-1
 758 705 l 1,22,-1
EndSplineSet
EndChar

StartChar: uniE608
Encoding: 58888 58888 13
Width: 1024
Flags: W
LayerCount: 4
Fore
SplineSet
555 555 m 1,0,-1
 469 555 l 1,1,-1
 469 469 l 1,2,-1
 555 469 l 1,3,-1
 555 555 l 1,4,-1
 555 555 l 1,0,-1
725 555 m 1,5,-1
 640 555 l 1,6,-1
 640 469 l 1,7,-1
 725 469 l 1,8,-1
 725 555 l 1,9,-1
 725 555 l 1,5,-1
853 277 m 1,10,11
 813 277 813 277 775 283.5 c 128,-1,12
 737 290 737 290 701 302 c 0,13,14
 690 305 690 305 678.5 302.5 c 128,-1,15
 667 300 667 300 658 291 c 2,16,-1
 564 197 l 1,17,18
 518 220 518 220 477.5 250 c 128,-1,19
 437 280 437 280 401 315.5 c 128,-1,20
 365 351 365 351 335.5 392 c 128,-1,21
 306 433 306 433 283 478 c 1,22,-1
 377 572 l 2,23,24
 385 581 385 581 388 592.5 c 128,-1,25
 391 604 391 604 387 615 c 0,26,27
 375 651 375 651 369 689.5 c 128,-1,28
 363 728 363 728 363 768 c 0,29,30
 363 786 363 786 350.5 798.5 c 128,-1,31
 338 811 338 811 320 811 c 2,32,-1
 171 811 l 2,33,34
 153 811 153 811 140.5 798.5 c 128,-1,35
 128 786 128 786 128 768 c 0,36,37
 128 618 128 618 185 486 c 128,-1,38
 242 354 242 354 340.5 255.5 c 128,-1,39
 439 157 439 157 571 100 c 128,-1,40
 703 43 703 43 853 43 c 0,41,42
 871 43 871 43 883.5 55.5 c 128,-1,43
 896 68 896 68 896 85 c 2,44,-1
 896 235 l 2,45,46
 896 252 896 252 883.5 264.5 c 128,-1,47
 871 277 871 277 853 277 c 1,48,-1
 853 277 l 1,10,11
811 555 m 1,49,-1
 811 469 l 1,50,-1
 896 469 l 1,51,-1
 896 555 l 1,52,-1
 811 555 l 1,53,-1
 811 555 l 1,49,-1
EndSplineSet
EndChar

StartChar: uniE609
Encoding: 58889 58889 14
Width: 1024
Flags: W
LayerCount: 4
Fore
SplineSet
299 -85 m 1,0,-1
 384 -85 l 1,1,-1
 384 0 l 1,2,-1
 299 0 l 1,3,-1
 299 -85 l 1,4,-1
 299 -85 l 1,0,-1
469 -85 m 1,5,-1
 555 -85 l 1,6,-1
 555 0 l 1,7,-1
 469 0 l 1,8,-1
 469 -85 l 1,9,-1
 469 -85 l 1,5,-1
555 853 m 1,10,-1
 469 853 l 1,11,-1
 469 427 l 1,12,-1
 555 427 l 1,13,-1
 555 853 l 1,14,-1
 555 853 l 1,10,-1
707 749 m 1,15,-1
 645 688 l 1,16,17
 700 654 700 654 734 596.5 c 128,-1,18
 768 539 768 539 768 469 c 0,19,20
 768 416 768 416 748 369.5 c 128,-1,21
 728 323 728 323 693 288.5 c 128,-1,22
 658 254 658 254 611.5 233.5 c 128,-1,23
 565 213 565 213 512 213 c 256,24,25
 459 213 459 213 412.5 233.5 c 128,-1,26
 366 254 366 254 331 288.5 c 128,-1,27
 296 323 296 323 276 369.5 c 128,-1,28
 256 416 256 416 256 469 c 0,29,30
 256 539 256 539 290 596.5 c 128,-1,31
 324 654 324 654 379 688 c 1,32,-1
 317 749 l 1,33,34
 284 726 284 726 257 696 c 128,-1,35
 230 666 230 666 211 630 c 128,-1,36
 192 594 192 594 181.5 553.5 c 128,-1,37
 171 513 171 513 171 469 c 0,38,39
 171 399 171 399 197.5 336.5 c 128,-1,40
 224 274 224 274 270.5 228 c 128,-1,41
 317 182 317 182 379 155 c 128,-1,42
 441 128 441 128 512 128 c 256,43,44
 583 128 583 128 645 155 c 128,-1,45
 707 182 707 182 753.5 228 c 128,-1,46
 800 274 800 274 826.5 336.5 c 128,-1,47
 853 399 853 399 853 469 c 0,48,49
 853 513 853 513 842.5 553.5 c 128,-1,50
 832 594 832 594 813 630 c 128,-1,51
 794 666 794 666 767 696 c 128,-1,52
 740 726 740 726 707 749 c 1,53,-1
 707 749 l 1,15,-1
640 -85 m 1,54,-1
 725 -85 l 1,55,-1
 725 0 l 1,56,-1
 640 0 l 1,57,-1
 640 -85 l 1,58,-1
 640 -85 l 1,54,-1
EndSplineSet
EndChar

StartChar: uniE60A
Encoding: 58890 58890 15
Width: 1024
Flags: W
LayerCount: 4
Fore
SplineSet
299 -85 m 1,0,-1
 384 -85 l 1,1,-1
 384 0 l 1,2,-1
 299 0 l 1,3,-1
 299 -85 l 1,4,-1
 299 -85 l 1,0,-1
512 384 m 1,5,6
 565 384 565 384 602.5 421.5 c 128,-1,7
 640 459 640 459 640 512 c 2,8,-1
 640 768 l 2,9,10
 640 821 640 821 602.5 858.5 c 128,-1,11
 565 896 565 896 512 896 c 256,12,13
 459 896 459 896 421.5 858.5 c 128,-1,14
 384 821 384 821 384 768 c 2,15,-1
 384 512 l 2,16,17
 384 459 384 459 421.5 421.5 c 128,-1,18
 459 384 459 384 512 384 c 1,19,-1
 512 384 l 1,5,6
469 -85 m 1,20,-1
 555 -85 l 1,21,-1
 555 0 l 1,22,-1
 469 0 l 1,23,-1
 469 -85 l 1,24,-1
 469 -85 l 1,20,-1
640 -85 m 1,25,-1
 725 -85 l 1,26,-1
 725 0 l 1,27,-1
 640 0 l 1,28,-1
 640 -85 l 1,29,-1
 640 -85 l 1,25,-1
811 512 m 1,30,-1
 738 512 l 1,31,32
 738 464 738 464 719.5 424 c 128,-1,33
 701 384 701 384 669.5 355 c 128,-1,34
 638 326 638 326 597 310 c 128,-1,35
 556 294 556 294 512 294 c 256,36,37
 468 294 468 294 427 310 c 128,-1,38
 386 326 386 326 354.5 355 c 128,-1,39
 323 384 323 384 304.5 424 c 128,-1,40
 286 464 286 464 286 512 c 1,41,-1
 213 512 l 1,42,43
 213 457 213 457 233.5 408.5 c 128,-1,44
 254 360 254 360 289 322 c 128,-1,45
 324 284 324 284 370.5 258.5 c 128,-1,46
 417 233 417 233 469 225 c 1,47,-1
 469 85 l 1,48,-1
 555 85 l 1,49,-1
 555 225 l 1,50,51
 607 233 607 233 653.5 258.5 c 128,-1,52
 700 284 700 284 735 322 c 128,-1,53
 770 360 770 360 790.5 408.5 c 128,-1,54
 811 457 811 457 811 512 c 1,55,-1
 811 512 l 1,30,-1
EndSplineSet
EndChar

StartChar: uniE60B
Encoding: 58891 58891 16
Width: 1024
Flags: W
LayerCount: 4
Fore
SplineSet
734 555 m 1,0,-1
 547 834 l 2,1,2
 541 844 541 844 531.5 848 c 128,-1,3
 522 852 522 852 512 852 c 256,4,5
 502 852 502 852 492.5 847.5 c 128,-1,6
 483 843 483 843 477 834 c 2,7,-1
 290 555 l 1,8,-1
 85 555 l 2,9,10
 68 555 68 555 55.5 542.5 c 128,-1,11
 43 530 43 530 43 512 c 0,12,13
 43 509 43 509 43.5 506 c 128,-1,14
 44 503 44 503 44 500 c 2,15,-1
 152 105 l 2,16,17
 160 78 160 78 182.5 60.5 c 128,-1,18
 205 43 205 43 235 43 c 2,19,-1
 789 43 l 2,20,21
 819 43 819 43 841.5 60.5 c 128,-1,22
 864 78 864 78 871 105 c 2,23,-1
 980 501 l 2,24,25
 980 503 980 503 980.5 506 c 128,-1,26
 981 509 981 509 981 512 c 0,27,28
 981 530 981 530 968.5 542.5 c 128,-1,29
 956 555 956 555 939 555 c 2,30,-1
 734 555 l 1,31,-1
 734 555 l 1,0,-1
384 555 m 1,32,-1
 512 742 l 1,33,-1
 640 555 l 1,34,-1
 384 555 l 1,35,-1
 384 555 l 1,32,-1
512 213 m 1,36,37
 477 213 477 213 452 238 c 128,-1,38
 427 263 427 263 427 299 c 0,39,40
 427 334 427 334 452 359 c 128,-1,41
 477 384 477 384 512 384 c 256,42,43
 547 384 547 384 572 359 c 128,-1,44
 597 334 597 334 597 299 c 0,45,46
 597 263 597 263 572 238 c 128,-1,47
 547 213 547 213 512 213 c 1,48,-1
 512 213 l 1,36,37
EndSplineSet
EndChar

StartChar: uniE60C
Encoding: 58892 58892 17
Width: 1024
Flags: W
LayerCount: 4
Fore
SplineSet
512 558 m 1,0,1
 449 558 449 558 394 534.5 c 128,-1,2
 339 511 339 511 298 469 c 1,3,-1
 358 409 l 1,4,5
 388 439 388 439 427.5 456 c 128,-1,6
 467 473 467 473 512 473 c 256,7,8
 557 473 557 473 596.5 456 c 128,-1,9
 636 439 636 439 666 409 c 1,10,-1
 726 469 l 1,11,12
 685 511 685 511 630 534.5 c 128,-1,13
 575 558 575 558 512 558 c 1,14,-1
 512 558 l 1,0,1
512 381 m 1,15,16
 486 381 486 381 467 362 c 128,-1,17
 448 343 448 343 448 317 c 0,18,19
 448 290 448 290 467 271.5 c 128,-1,20
 486 253 486 253 512 253 c 256,21,22
 538 253 538 253 557 271.5 c 128,-1,23
 576 290 576 290 576 317 c 0,24,25
 576 343 576 343 557 362 c 128,-1,26
 538 381 538 381 512 381 c 1,27,-1
 512 381 l 1,15,16
EndSplineSet
EndChar

StartChar: uniE60D
Encoding: 58893 58893 18
Width: 1024
Flags: W
LayerCount: 4
Fore
SplineSet
298 387 m 1,0,-1
 358 327 l 1,1,2
 388 357 388 357 427.5 374 c 128,-1,3
 467 391 467 391 512 391 c 256,4,5
 557 391 557 391 596.5 374 c 128,-1,6
 636 357 636 357 666 327 c 1,7,-1
 726 387 l 1,8,9
 685 429 685 429 630 452.5 c 128,-1,10
 575 476 575 476 512 476 c 256,11,12
 449 476 449 476 394 452.5 c 128,-1,13
 339 429 339 429 298 387 c 1,14,-1
 298 387 l 1,0,-1
512 671 m 1,15,16
 460 671 460 671 411.5 661 c 128,-1,17
 363 651 363 651 318.5 632 c 128,-1,18
 274 613 274 613 234 586 c 128,-1,19
 194 559 194 559 160 525 c 1,20,-1
 221 465 l 1,21,22
 249 493 249 493 282 515 c 128,-1,23
 315 537 315 537 352 553 c 128,-1,24
 389 569 389 569 429 577.5 c 128,-1,25
 469 586 469 586 512 586 c 256,26,27
 555 586 555 586 595 577.5 c 128,-1,28
 635 569 635 569 672 553 c 128,-1,29
 709 537 709 537 742 515 c 128,-1,30
 775 493 775 493 803 465 c 1,31,-1
 864 525 l 1,32,33
 830 559 830 559 790 586 c 128,-1,34
 750 613 750 613 705.5 632 c 128,-1,35
 661 651 661 651 612.5 661 c 128,-1,36
 564 671 564 671 512 671 c 1,37,-1
 512 671 l 1,15,16
512 299 m 1,38,39
 486 299 486 299 467 280 c 128,-1,40
 448 261 448 261 448 235 c 0,41,42
 448 208 448 208 467 189.5 c 128,-1,43
 486 171 486 171 512 171 c 256,44,45
 538 171 538 171 557 189.5 c 128,-1,46
 576 208 576 208 576 235 c 0,47,48
 576 261 576 261 557 280 c 128,-1,49
 538 299 538 299 512 299 c 1,50,-1
 512 299 l 1,38,39
EndSplineSet
EndChar

StartChar: uniE60E
Encoding: 58894 58894 19
Width: 1024
Flags: W
LayerCount: 4
Fore
SplineSet
725 811 m 1,0,-1
 683 811 l 1,1,-1
 683 597 l 1,2,-1
 725 597 l 1,3,-1
 725 811 l 1,4,-1
 725 811 l 1,0,-1
640 725 m 1,5,-1
 555 725 l 1,6,-1
 555 768 l 1,7,-1
 640 768 l 1,8,-1
 640 811 l 1,9,-1
 512 811 l 1,10,-1
 512 683 l 1,11,-1
 597 683 l 1,12,-1
 597 640 l 1,13,-1
 512 640 l 1,14,-1
 512 597 l 1,15,-1
 640 597 l 1,16,-1
 640 725 l 1,17,-1
 640 725 l 1,5,-1
768 811 m 1,18,-1
 768 597 l 1,19,-1
 811 597 l 1,20,-1
 811 683 l 1,21,-1
 896 683 l 1,22,-1
 896 811 l 1,23,-1
 768 811 l 1,24,-1
 768 811 l 1,18,-1
853 725 m 1,25,-1
 811 725 l 1,26,-1
 811 768 l 1,27,-1
 853 768 l 1,28,-1
 853 725 l 1,29,-1
 853 725 l 1,25,-1
853 277 m 1,30,31
 813 277 813 277 775 283.5 c 128,-1,32
 737 290 737 290 701 302 c 0,33,34
 690 305 690 305 678.5 302.5 c 128,-1,35
 667 300 667 300 658 291 c 2,36,-1
 564 197 l 1,37,38
 519 220 519 220 478 250 c 128,-1,39
 437 280 437 280 401 315.5 c 128,-1,40
 365 351 365 351 335.5 392 c 128,-1,41
 306 433 306 433 283 478 c 1,42,-1
 377 572 l 2,43,44
 385 581 385 581 388 592.5 c 128,-1,45
 391 604 391 604 387 615 c 0,46,47
 375 651 375 651 369 689.5 c 128,-1,48
 363 728 363 728 363 768 c 0,49,50
 363 786 363 786 350.5 798.5 c 128,-1,51
 338 811 338 811 320 811 c 2,52,-1
 171 811 l 2,53,54
 153 811 153 811 140.5 798.5 c 128,-1,55
 128 786 128 786 128 768 c 0,56,57
 128 618 128 618 185 486 c 128,-1,58
 242 354 242 354 340.5 255.5 c 128,-1,59
 439 157 439 157 571 100 c 128,-1,60
 703 43 703 43 853 43 c 0,61,62
 871 43 871 43 883.5 55.5 c 128,-1,63
 896 68 896 68 896 85 c 2,64,-1
 896 235 l 2,65,66
 896 252 896 252 883.5 264.5 c 128,-1,67
 871 277 871 277 853 277 c 1,68,-1
 853 277 l 1,30,31
EndSplineSet
EndChar

StartChar: uniE60F
Encoding: 58895 58895 20
Width: 1024
Flags: W
LayerCount: 4
Fore
SplineSet
512 128 m 1,0,1
 477 128 477 128 452 103 c 128,-1,2
 427 78 427 78 427 43 c 0,3,4
 427 7 427 7 452 -18 c 128,-1,5
 477 -43 477 -43 512 -43 c 256,6,7
 547 -43 547 -43 572 -18 c 128,-1,8
 597 7 597 7 597 43 c 0,9,10
 597 78 597 78 572 103 c 128,-1,11
 547 128 547 128 512 128 c 1,12,-1
 512 128 l 1,0,1
256 896 m 1,13,14
 221 896 221 896 196 871 c 128,-1,15
 171 846 171 846 171 811 c 0,16,17
 171 775 171 775 196 750 c 128,-1,18
 221 725 221 725 256 725 c 256,19,20
 291 725 291 725 316 750 c 128,-1,21
 341 775 341 775 341 811 c 0,22,23
 341 846 341 846 316 871 c 128,-1,24
 291 896 291 896 256 896 c 1,25,-1
 256 896 l 1,13,14
256 640 m 1,26,27
 221 640 221 640 196 615 c 128,-1,28
 171 590 171 590 171 555 c 0,29,30
 171 519 171 519 196 494 c 128,-1,31
 221 469 221 469 256 469 c 256,32,33
 291 469 291 469 316 494 c 128,-1,34
 341 519 341 519 341 555 c 0,35,36
 341 590 341 590 316 615 c 128,-1,37
 291 640 291 640 256 640 c 1,38,-1
 256 640 l 1,26,27
256 384 m 1,39,40
 221 384 221 384 196 359 c 128,-1,41
 171 334 171 334 171 299 c 0,42,43
 171 263 171 263 196 238 c 128,-1,44
 221 213 221 213 256 213 c 256,45,46
 291 213 291 213 316 238 c 128,-1,47
 341 263 341 263 341 299 c 0,48,49
 341 334 341 334 316 359 c 128,-1,50
 291 384 291 384 256 384 c 1,51,-1
 256 384 l 1,39,40
768 725 m 1,52,53
 803 725 803 725 828 750 c 128,-1,54
 853 775 853 775 853 811 c 0,55,56
 853 846 853 846 828 871 c 128,-1,57
 803 896 803 896 768 896 c 256,58,59
 733 896 733 896 708 871 c 128,-1,60
 683 846 683 846 683 811 c 0,61,62
 683 775 683 775 708 750 c 128,-1,63
 733 725 733 725 768 725 c 1,64,-1
 768 725 l 1,52,53
512 384 m 1,65,66
 477 384 477 384 452 359 c 128,-1,67
 427 334 427 334 427 299 c 0,68,69
 427 263 427 263 452 238 c 128,-1,70
 477 213 477 213 512 213 c 256,71,72
 547 213 547 213 572 238 c 128,-1,73
 597 263 597 263 597 299 c 0,74,75
 597 334 597 334 572 359 c 128,-1,76
 547 384 547 384 512 384 c 1,77,-1
 512 384 l 1,65,66
768 384 m 1,78,79
 733 384 733 384 708 359 c 128,-1,80
 683 334 683 334 683 299 c 0,81,82
 683 263 683 263 708 238 c 128,-1,83
 733 213 733 213 768 213 c 256,84,85
 803 213 803 213 828 238 c 128,-1,86
 853 263 853 263 853 299 c 0,87,88
 853 334 853 334 828 359 c 128,-1,89
 803 384 803 384 768 384 c 1,90,-1
 768 384 l 1,78,79
768 640 m 1,91,92
 733 640 733 640 708 615 c 128,-1,93
 683 590 683 590 683 555 c 0,94,95
 683 519 683 519 708 494 c 128,-1,96
 733 469 733 469 768 469 c 256,97,98
 803 469 803 469 828 494 c 128,-1,99
 853 519 853 519 853 555 c 0,100,101
 853 590 853 590 828 615 c 128,-1,102
 803 640 803 640 768 640 c 1,103,-1
 768 640 l 1,91,92
512 640 m 1,104,105
 477 640 477 640 452 615 c 128,-1,106
 427 590 427 590 427 555 c 0,107,108
 427 519 427 519 452 494 c 128,-1,109
 477 469 477 469 512 469 c 256,110,111
 547 469 547 469 572 494 c 128,-1,112
 597 519 597 519 597 555 c 0,113,114
 597 590 597 590 572 615 c 128,-1,115
 547 640 547 640 512 640 c 1,116,-1
 512 640 l 1,104,105
512 896 m 1,117,118
 477 896 477 896 452 871 c 128,-1,119
 427 846 427 846 427 811 c 0,120,121
 427 775 427 775 452 750 c 128,-1,122
 477 725 477 725 512 725 c 256,123,124
 547 725 547 725 572 750 c 128,-1,125
 597 775 597 775 597 811 c 0,126,127
 597 846 597 846 572 871 c 128,-1,128
 547 896 547 896 512 896 c 1,129,-1
 512 896 l 1,117,118
EndSplineSet
EndChar

StartChar: uniE610
Encoding: 58896 58896 21
Width: 1024
Flags: W
LayerCount: 4
Fore
SplineSet
939 811 m 1,0,-1
 85 811 l 2,1,2
 50 811 50 811 25 786 c 128,-1,3
 0 761 0 761 0 725 c 2,4,-1
 0 128 l 2,5,6
 0 93 0 93 25 68 c 128,-1,7
 50 43 50 43 85 43 c 2,8,-1
 939 43 l 2,9,10
 974 43 974 43 999 68 c 128,-1,11
 1024 93 1024 93 1024 128 c 2,12,-1
 1024 725 l 2,13,14
 1024 761 1024 761 999 786 c 128,-1,15
 974 811 974 811 939 811 c 1,16,-1
 939 811 l 1,0,-1
341 683 m 1,17,18
 394 683 394 683 431.5 645.5 c 128,-1,19
 469 608 469 608 469 555 c 256,20,21
 469 502 469 502 431.5 464.5 c 128,-1,22
 394 427 394 427 341 427 c 256,23,24
 288 427 288 427 250.5 464.5 c 128,-1,25
 213 502 213 502 213 555 c 256,26,27
 213 608 213 608 250.5 645.5 c 128,-1,28
 288 683 288 683 341 683 c 1,29,-1
 341 683 l 1,17,18
597 171 m 1,30,-1
 85 171 l 1,31,-1
 85 213 l 2,32,33
 85 245 85 245 113 270 c 128,-1,34
 141 295 141 295 181 311.5 c 128,-1,35
 221 328 221 328 265 337 c 128,-1,36
 309 346 309 346 341 346 c 256,37,38
 373 346 373 346 417 337 c 128,-1,39
 461 328 461 328 501 311.5 c 128,-1,40
 541 295 541 295 569 270 c 128,-1,41
 597 245 597 245 597 213 c 2,42,-1
 597 171 l 1,43,-1
 597 171 l 1,30,-1
762 341 m 1,44,-1
 832 341 l 1,45,-1
 896 256 l 1,46,-1
 811 171 l 1,47,48
 769 202 769 202 739 245.5 c 128,-1,49
 709 289 709 289 694 341 c 0,50,51
 689 362 689 362 686 383 c 128,-1,52
 683 404 683 404 683 427 c 0,53,54
 683 449 683 449 686 470.5 c 128,-1,55
 689 492 689 492 695 512 c 0,56,57
 709 564 709 564 739 607.5 c 128,-1,58
 769 651 769 651 811 682 c 1,59,-1
 896 597 l 1,60,-1
 832 512 l 1,61,-1
 762 512 l 1,62,63
 755 492 755 492 751 470.5 c 128,-1,64
 747 449 747 449 747 427 c 0,65,66
 747 404 747 404 750.5 382.5 c 128,-1,67
 754 361 754 361 762 341 c 1,68,-1
 762 341 l 1,44,-1
EndSplineSet
EndChar

StartChar: uniE611
Encoding: 58897 58897 22
Width: 1024
Flags: W
LayerCount: 4
Fore
SplineSet
896 597 m 1,0,-1
 896 640 l 1,1,-1
 768 555 l 1,2,-1
 640 640 l 1,3,-1
 640 597 l 1,4,-1
 768 512 l 1,5,-1
 896 597 l 1,6,-1
 896 597 l 1,0,-1
939 811 m 1,7,-1
 85 811 l 2,8,9
 50 811 50 811 25 786 c 128,-1,10
 0 761 0 761 0 725 c 2,11,-1
 0 128 l 2,12,13
 0 93 0 93 25 68 c 128,-1,14
 50 43 50 43 85 43 c 2,15,-1
 939 43 l 2,16,17
 974 43 974 43 999 68 c 128,-1,18
 1024 93 1024 93 1024 128 c 2,19,-1
 1024 725 l 2,20,21
 1024 761 1024 761 999 786 c 128,-1,22
 974 811 974 811 939 811 c 1,23,-1
 939 811 l 1,7,-1
341 683 m 1,24,25
 394 683 394 683 431.5 645.5 c 128,-1,26
 469 608 469 608 469 555 c 256,27,28
 469 502 469 502 431.5 464.5 c 128,-1,29
 394 427 394 427 341 427 c 256,30,31
 288 427 288 427 250.5 464.5 c 128,-1,32
 213 502 213 502 213 555 c 256,33,34
 213 608 213 608 250.5 645.5 c 128,-1,35
 288 683 288 683 341 683 c 1,36,-1
 341 683 l 1,24,25
597 171 m 1,37,-1
 85 171 l 1,38,-1
 85 213 l 2,39,40
 85 245 85 245 113 270 c 128,-1,41
 141 295 141 295 181 311.5 c 128,-1,42
 221 328 221 328 265 337 c 128,-1,43
 309 346 309 346 341 346 c 256,44,45
 373 346 373 346 417 337 c 128,-1,46
 461 328 461 328 501 311.5 c 128,-1,47
 541 295 541 295 569 270 c 128,-1,48
 597 245 597 245 597 213 c 2,49,-1
 597 171 l 1,50,-1
 597 171 l 1,37,-1
939 427 m 1,51,-1
 597 427 l 1,52,-1
 597 683 l 1,53,-1
 939 683 l 1,54,-1
 939 427 l 1,55,-1
 939 427 l 1,51,-1
EndSplineSet
EndChar

StartChar: uniE612
Encoding: 58898 58898 23
Width: 1024
Flags: W
LayerCount: 4
Fore
SplineSet
1011 227 m 1,0,1
 963 274 963 274 906 311 c 128,-1,2
 849 348 849 348 785.5 373.5 c 128,-1,3
 722 399 722 399 653.5 413 c 128,-1,4
 585 427 585 427 512 427 c 256,5,6
 439 427 439 427 370.5 413 c 128,-1,7
 302 399 302 399 238.5 373.5 c 128,-1,8
 175 348 175 348 118 311 c 128,-1,9
 61 274 61 274 13 227 c 0,10,11
 7 222 7 222 3.5 214 c 128,-1,12
 0 206 0 206 0 197 c 256,13,14
 0 188 0 188 3.5 180.5 c 128,-1,15
 7 173 7 173 13 167 c 2,16,-1
 118 61 l 2,17,18
 124 56 124 56 131.5 52.5 c 128,-1,19
 139 49 139 49 148 49 c 256,20,21
 157 49 157 49 164.5 52 c 128,-1,22
 172 55 172 55 178 61 c 0,23,24
 204 85 204 85 232.5 104.5 c 128,-1,25
 261 124 261 124 292 140 c 0,26,27
 302 145 302 145 309 155.5 c 128,-1,28
 316 166 316 166 316 178 c 2,29,-1
 316 311 l 1,30,31
 362 326 362 326 411.5 333.5 c 128,-1,32
 461 341 461 341 512 341 c 256,33,34
 563 341 563 341 612.5 333.5 c 128,-1,35
 662 326 662 326 708 311 c 1,36,-1
 708 178 l 2,37,38
 708 165 708 165 715 155 c 128,-1,39
 722 145 722 145 732 140 c 0,40,41
 763 124 763 124 792 104 c 128,-1,42
 821 84 821 84 846 61 c 0,43,44
 852 55 852 55 859.5 52 c 128,-1,45
 867 49 867 49 876 49 c 256,46,47
 885 49 885 49 892.5 52 c 128,-1,48
 900 55 900 55 906 61 c 2,49,-1
 1012 167 l 2,50,51
 1017 173 1017 173 1020.5 180.5 c 128,-1,52
 1024 188 1024 188 1024 197 c 256,53,54
 1024 206 1024 206 1020.5 214 c 128,-1,55
 1017 222 1017 222 1011 227 c 1,56,-1
 1011 227 l 1,0,1
903 672 m 1,57,-1
 842 732 l 1,58,-1
 691 580 l 1,59,-1
 751 520 l 1,60,61
 751 520 751 520 774 543.5 c 128,-1,62
 797 567 797 567 825 595.5 c 128,-1,63
 853 624 853 624 877 647.5 c 128,-1,64
 901 671 901 671 903 672 c 1,65,-1
 903 672 l 1,57,-1
555 853 m 1,66,-1
 469 853 l 1,67,-1
 469 640 l 1,68,-1
 555 640 l 1,69,-1
 555 853 l 1,70,-1
 555 853 l 1,66,-1
273 520 m 1,71,-1
 333 580 l 1,72,-1
 182 732 l 1,73,-1
 121 672 l 2,74,75
 123 671 123 671 147 647.5 c 128,-1,76
 171 624 171 624 199 595.5 c 128,-1,77
 227 567 227 567 250 543.5 c 128,-1,78
 273 520 273 520 273 520 c 1,79,-1
 273 520 l 1,71,-1
EndSplineSet
EndChar

StartChar: uniE613
Encoding: 58899 58899 24
Width: 1024
Flags: W
LayerCount: 4
Fore
SplineSet
789 683 m 1,0,1
 741 683 741 683 698 664.5 c 128,-1,2
 655 646 655 646 623.5 614 c 128,-1,3
 592 582 592 582 573.5 539.5 c 128,-1,4
 555 497 555 497 555 448 c 0,5,6
 555 405 555 405 569 367 c 128,-1,7
 583 329 583 329 608 299 c 1,8,-1
 416 299 l 1,9,10
 441 329 441 329 455 367 c 128,-1,11
 469 405 469 405 469 448 c 0,12,13
 469 497 469 497 450.5 539.5 c 128,-1,14
 432 582 432 582 400.5 614 c 128,-1,15
 369 646 369 646 326 664.5 c 128,-1,16
 283 683 283 683 234 683 c 0,17,18
 186 683 186 683 143 664.5 c 128,-1,19
 100 646 100 646 68.5 614 c 128,-1,20
 37 582 37 582 18.5 539.5 c 128,-1,21
 0 497 0 497 0 448 c 256,22,23
 0 399 0 399 18.5 356.5 c 128,-1,24
 37 314 37 314 69 282 c 128,-1,25
 101 250 101 250 143.5 231.5 c 128,-1,26
 186 213 186 213 235 213 c 2,27,-1
 789 213 l 2,28,29
 838 213 838 213 880.5 231.5 c 128,-1,30
 923 250 923 250 955 282 c 128,-1,31
 987 314 987 314 1005.5 356.5 c 128,-1,32
 1024 399 1024 399 1024 448 c 256,33,34
 1024 497 1024 497 1005.5 539.5 c 128,-1,35
 987 582 987 582 955 614 c 128,-1,36
 923 646 923 646 880.5 664.5 c 128,-1,37
 838 683 838 683 789 683 c 1,38,-1
 789 683 l 1,0,1
235 299 m 1,39,40
 173 299 173 299 129 342.5 c 128,-1,41
 85 386 85 386 85 448 c 256,42,43
 85 510 85 510 129 553.5 c 128,-1,44
 173 597 173 597 235 597 c 256,45,46
 297 597 297 597 340.5 553.5 c 128,-1,47
 384 510 384 510 384 448 c 256,48,49
 384 386 384 386 340.5 342.5 c 128,-1,50
 297 299 297 299 235 299 c 1,51,-1
 235 299 l 1,39,40
789 299 m 1,52,53
 727 299 727 299 683.5 342.5 c 128,-1,54
 640 386 640 386 640 448 c 256,55,56
 640 510 640 510 683.5 553.5 c 128,-1,57
 727 597 727 597 789 597 c 256,58,59
 851 597 851 597 895 553.5 c 128,-1,60
 939 510 939 510 939 448 c 256,61,62
 939 386 939 386 895 342.5 c 128,-1,63
 851 299 851 299 789 299 c 1,64,-1
 789 299 l 1,52,53
EndSplineSet
EndChar

StartChar: uniE614
Encoding: 58900 58900 25
Width: 1024
Flags: W
LayerCount: 4
Fore
SplineSet
938 597 m 1,0,1
 938 620 938 620 927 639.5 c 128,-1,2
 916 659 916 659 898 670 c 2,3,-1
 512 896 l 1,4,-1
 126 670 l 2,5,6
 108 659 108 659 96.5 639.5 c 128,-1,7
 85 620 85 620 85 597 c 2,8,-1
 85 171 l 2,9,10
 85 135 85 135 110 110 c 128,-1,11
 135 85 135 85 171 85 c 2,12,-1
 853 85 l 2,13,14
 889 85 889 85 914 110 c 128,-1,15
 939 135 939 135 939 171 c 2,16,-1
 938 597 l 1,17,-1
 938 597 l 1,0,1
512 384 m 1,18,-1
 160 604 l 1,19,-1
 512 811 l 1,20,-1
 864 604 l 1,21,-1
 512 384 l 1,22,-1
 512 384 l 1,18,-1
EndSplineSet
EndChar

StartChar: uniE615
Encoding: 58901 58901 26
Width: 1024
Flags: W
LayerCount: 4
Fore
SplineSet
853 768 m 1,0,-1
 171 768 l 2,1,2
 135 768 135 768 110.5 743 c 128,-1,3
 86 718 86 718 86 683 c 2,4,-1
 85 171 l 2,5,6
 85 135 85 135 110 110 c 128,-1,7
 135 85 135 85 171 85 c 2,8,-1
 853 85 l 2,9,10
 889 85 889 85 914 110 c 128,-1,11
 939 135 939 135 939 171 c 2,12,-1
 939 683 l 2,13,14
 939 718 939 718 914 743 c 128,-1,15
 889 768 889 768 853 768 c 1,16,-1
 853 768 l 1,0,-1
853 597 m 1,17,-1
 512 384 l 1,18,-1
 171 597 l 1,19,-1
 171 683 l 1,20,-1
 512 469 l 1,21,-1
 853 683 l 1,22,-1
 853 597 l 1,23,-1
 853 597 l 1,17,-1
EndSplineSet
EndChar

StartChar: uniE616
Encoding: 58902 58902 27
Width: 1024
Flags: W
LayerCount: 4
Fore
SplineSet
299 171 m 1,0,-1
 384 171 l 1,1,-1
 384 683 l 1,2,-1
 299 683 l 1,3,-1
 299 171 l 1,4,-1
 299 171 l 1,0,-1
469 0 m 1,5,-1
 555 0 l 1,6,-1
 555 853 l 1,7,-1
 469 853 l 1,8,-1
 469 0 l 1,9,-1
 469 0 l 1,5,-1
128 341 m 1,10,-1
 213 341 l 1,11,-1
 213 512 l 1,12,-1
 128 512 l 1,13,-1
 128 341 l 1,14,-1
 128 341 l 1,10,-1
640 171 m 1,15,-1
 725 171 l 1,16,-1
 725 683 l 1,17,-1
 640 683 l 1,18,-1
 640 171 l 1,19,-1
 640 171 l 1,15,-1
811 512 m 1,20,-1
 811 341 l 1,21,-1
 896 341 l 1,22,-1
 896 512 l 1,23,-1
 811 512 l 1,24,-1
 811 512 l 1,20,-1
EndSplineSet
EndChar

StartChar: uniE617
Encoding: 58903 58903 28
Width: 1024
Flags: W
LayerCount: 4
Fore
SplineSet
555 384 m 1,0,-1
 555 43 l 1,1,-1
 896 43 l 1,2,-1
 896 384 l 1,3,-1
 555 384 l 1,4,-1
 555 384 l 1,0,-1
128 43 m 1,5,-1
 469 43 l 1,6,-1
 469 384 l 1,7,-1
 128 384 l 1,8,-1
 128 43 l 1,9,-1
 128 43 l 1,5,-1
128 811 m 1,10,-1
 128 469 l 1,11,-1
 469 469 l 1,12,-1
 469 811 l 1,13,-1
 128 811 l 1,14,-1
 128 811 l 1,10,-1
711 867 m 1,15,-1
 469 625 l 1,16,-1
 711 384 l 1,17,-1
 952 625 l 1,18,-1
 711 867 l 1,19,-1
 711 867 l 1,15,-1
EndSplineSet
EndChar

StartChar: uniE618
Encoding: 58904 58904 29
Width: 1024
Flags: W
LayerCount: 4
Fore
SplineSet
512 896 m 1,0,-1
 128 725 l 1,1,-1
 128 469 l 2,2,3
 128 380 128 380 157 296.5 c 128,-1,4
 186 213 186 213 237.5 144.5 c 128,-1,5
 289 76 289 76 359 27 c 128,-1,6
 429 -22 429 -22 512 -43 c 1,7,8
 595 -22 595 -22 665 27 c 128,-1,9
 735 76 735 76 786.5 144.5 c 128,-1,10
 838 213 838 213 867 296.5 c 128,-1,11
 896 380 896 380 896 469 c 2,12,-1
 896 725 l 1,13,-1
 512 896 l 1,14,-1
 512 896 l 1,0,-1
512 427 m 1,15,-1
 811 427 l 1,16,17
 802 361 802 361 776.5 300 c 128,-1,18
 751 239 751 239 712 188.5 c 128,-1,19
 673 138 673 138 622.5 101 c 128,-1,20
 572 64 572 64 512 46 c 1,21,-1
 512 427 l 1,22,-1
 213 427 l 1,23,-1
 213 670 l 1,24,-1
 512 803 l 1,25,-1
 512 427 l 1,26,-1
 512 427 l 1,15,-1
EndSplineSet
EndChar

StartChar: uniE619
Encoding: 58905 58905 30
Width: 1024
Flags: W
LayerCount: 4
Fore
SplineSet
512 811 m 1,0,1
 432 811 432 811 362.5 780.5 c 128,-1,2
 293 750 293 750 240.5 698 c 128,-1,3
 188 646 188 646 158 576 c 128,-1,4
 128 506 128 506 128 427 c 0,5,6
 128 347 128 347 158 277 c 128,-1,7
 188 207 188 207 240.5 155 c 128,-1,8
 293 103 293 103 362.5 73 c 128,-1,9
 432 43 432 43 512 43 c 0,10,11
 539 43 539 43 557.5 61.5 c 128,-1,12
 576 80 576 80 576 107 c 0,13,14
 576 119 576 119 571.5 130 c 128,-1,15
 567 141 567 141 559 150 c 0,16,17
 552 158 552 158 547.5 169 c 128,-1,18
 543 180 543 180 543 192 c 0,19,20
 543 219 543 219 562 237.5 c 128,-1,21
 581 256 581 256 607 256 c 2,22,-1
 683 256 l 2,23,24
 727 256 727 256 766 273 c 128,-1,25
 805 290 805 290 833.5 318.5 c 128,-1,26
 862 347 862 347 879 386 c 128,-1,27
 896 425 896 425 896 469 c 0,28,29
 896 540 896 540 866 602 c 128,-1,30
 836 664 836 664 783.5 710.5 c 128,-1,31
 731 757 731 757 661.5 784 c 128,-1,32
 592 811 592 811 512 811 c 1,33,-1
 512 811 l 1,0,1
277 427 m 1,34,35
 251 427 251 427 232 445.5 c 128,-1,36
 213 464 213 464 213 491 c 0,37,38
 213 517 213 517 232 536 c 128,-1,39
 251 555 251 555 277 555 c 0,40,41
 304 555 304 555 322.5 536 c 128,-1,42
 341 517 341 517 341 491 c 0,43,44
 341 464 341 464 322.5 445.5 c 128,-1,45
 304 427 304 427 277 427 c 1,46,-1
 277 427 l 1,34,35
405 597 m 1,47,48
 379 597 379 597 360 616 c 128,-1,49
 341 635 341 635 341 661 c 0,50,51
 341 688 341 688 360 706.5 c 128,-1,52
 379 725 379 725 405 725 c 0,53,54
 432 725 432 725 450.5 706.5 c 128,-1,55
 469 688 469 688 469 661 c 0,56,57
 469 635 469 635 450.5 616 c 128,-1,58
 432 597 432 597 405 597 c 1,59,-1
 405 597 l 1,47,48
619 597 m 1,60,61
 592 597 592 597 573.5 616 c 128,-1,62
 555 635 555 635 555 661 c 0,63,64
 555 688 555 688 573.5 706.5 c 128,-1,65
 592 725 592 725 619 725 c 0,66,67
 645 725 645 725 664 706.5 c 128,-1,68
 683 688 683 688 683 661 c 0,69,70
 683 635 683 635 664 616 c 128,-1,71
 645 597 645 597 619 597 c 1,72,-1
 619 597 l 1,60,61
747 427 m 1,73,74
 720 427 720 427 701.5 445.5 c 128,-1,75
 683 464 683 464 683 491 c 0,76,77
 683 517 683 517 701.5 536 c 128,-1,78
 720 555 720 555 747 555 c 0,79,80
 773 555 773 555 792 536 c 128,-1,81
 811 517 811 517 811 491 c 0,82,83
 811 464 811 464 792 445.5 c 128,-1,84
 773 427 773 427 747 427 c 1,85,-1
 747 427 l 1,73,74
EndSplineSet
EndChar

StartChar: uniE61A
Encoding: 58906 58906 31
Width: 1024
Flags: W
LayerCount: 4
Fore
SplineSet
845 299 m 1,0,-1
 896 339 l 1,1,-1
 835 399 l 1,2,-1
 784 360 l 1,3,-1
 845 299 l 1,4,-1
 845 299 l 1,0,-1
826 500 m 1,5,-1
 896 555 l 1,6,-1
 512 853 l 1,7,-1
 388 757 l 1,8,-1
 724 421 l 1,9,-1
 826 500 l 1,10,-1
 826 500 l 1,5,-1
140 896 m 1,11,-1
 85 842 l 1,12,-1
 265 662 l 1,13,-1
 128 555 l 1,14,-1
 198 501 l 1,15,-1
 512 256 l 1,16,-1
 601 326 l 1,17,-1
 662 265 l 1,18,-1
 512 148 l 1,19,-1
 197 392 l 1,20,-1
 128 339 l 1,21,-1
 512 40 l 1,22,-1
 723 204 l 1,23,-1
 884 43 l 1,24,-1
 939 97 l 1,25,-1
 140 896 l 1,26,-1
 140 896 l 1,11,-1
EndSplineSet
EndChar

StartChar: uniE61B
Encoding: 58907 58907 32
Width: 1024
Flags: W
LayerCount: 4
Fore
SplineSet
512 0 m 1,0,1
 592 0 592 0 661.5 30 c 128,-1,2
 731 60 731 60 783.5 112.5 c 128,-1,3
 836 165 836 165 866 234.5 c 128,-1,4
 896 304 896 304 896 384 c 1,5,6
 816 384 816 384 746.5 354 c 128,-1,7
 677 324 677 324 624.5 271.5 c 128,-1,8
 572 219 572 219 542 149.5 c 128,-1,9
 512 80 512 80 512 0 c 1,10,-1
 512 0 l 1,0,1
239 501 m 1,11,12
 239 457 239 457 270.5 426 c 128,-1,13
 302 395 302 395 346 395 c 0,14,15
 363 395 363 395 378 400 c 128,-1,16
 393 405 393 405 406 413 c 1,17,-1
 405 405 l 1,18,19
 405 361 405 361 436.5 330 c 128,-1,20
 468 299 468 299 512 299 c 256,21,22
 556 299 556 299 587.5 330 c 128,-1,23
 619 361 619 361 619 405 c 1,24,-1
 618 413 l 1,25,26
 631 404 631 404 646 399.5 c 128,-1,27
 661 395 661 395 678 395 c 0,28,29
 722 395 722 395 753.5 426 c 128,-1,30
 785 457 785 457 785 501 c 0,31,32
 785 533 785 533 768 559 c 128,-1,33
 751 585 751 585 724 597 c 1,34,35
 751 610 751 610 768 635.5 c 128,-1,36
 785 661 785 661 785 693 c 0,37,38
 785 737 785 737 753.5 768.5 c 128,-1,39
 722 800 722 800 678 800 c 0,40,41
 661 800 661 800 646 795 c 128,-1,42
 631 790 631 790 618 781 c 1,43,-1
 619 789 l 1,44,45
 619 833 619 833 587.5 864.5 c 128,-1,46
 556 896 556 896 512 896 c 256,47,48
 468 896 468 896 436.5 864.5 c 128,-1,49
 405 833 405 833 405 789 c 1,50,-1
 406 781 l 1,51,52
 393 790 393 790 378 795 c 128,-1,53
 363 800 363 800 346 800 c 0,54,55
 302 800 302 800 270.5 768.5 c 128,-1,56
 239 737 239 737 239 693 c 0,57,58
 239 661 239 661 256 635.5 c 128,-1,59
 273 610 273 610 300 597 c 1,60,61
 273 585 273 585 256 559 c 128,-1,62
 239 533 239 533 239 501 c 1,63,-1
 239 501 l 1,11,12
512 704 m 1,64,65
 556 704 556 704 587.5 672.5 c 128,-1,66
 619 641 619 641 619 597 c 256,67,68
 619 553 619 553 587.5 522 c 128,-1,69
 556 491 556 491 512 491 c 256,70,71
 468 491 468 491 436.5 522 c 128,-1,72
 405 553 405 553 405 597 c 256,73,74
 405 641 405 641 436.5 672.5 c 128,-1,75
 468 704 468 704 512 704 c 1,76,-1
 512 704 l 1,64,65
128 384 m 1,77,78
 128 304 128 304 158 234.5 c 128,-1,79
 188 165 188 165 240.5 112.5 c 128,-1,80
 293 60 293 60 362.5 30 c 128,-1,81
 432 0 432 0 512 0 c 1,82,83
 512 80 512 80 482 149.5 c 128,-1,84
 452 219 452 219 399.5 271.5 c 128,-1,85
 347 324 347 324 277.5 354 c 128,-1,86
 208 384 208 384 128 384 c 1,87,-1
 128 384 l 1,77,78
EndSplineSet
EndChar

StartChar: uniE61C
Encoding: 58908 58908 33
Width: 1024
Flags: W
LayerCount: 4
Fore
SplineSet
844 630 m 1,0,-1
 844 631 l 1,1,-1
 685 789 l 1,2,-1
 640 744 l 1,3,-1
 730 654 l 1,4,5
 700 643 700 643 680.5 616 c 128,-1,6
 661 589 661 589 661 555 c 0,7,8
 661 511 661 511 692.5 479.5 c 128,-1,9
 724 448 724 448 768 448 c 0,10,11
 779 448 779 448 790 450.5 c 128,-1,12
 801 453 801 453 811 457 c 1,13,-1
 811 149 l 2,14,15
 811 132 811 132 798.5 119.5 c 128,-1,16
 786 107 786 107 768 107 c 256,17,18
 750 107 750 107 737.5 119.5 c 128,-1,19
 725 132 725 132 725 149 c 2,20,-1
 725 341 l 2,21,22
 725 377 725 377 700 402 c 128,-1,23
 675 427 675 427 640 427 c 2,24,-1
 597 427 l 1,25,-1
 597 725 l 2,26,27
 597 761 597 761 572 786 c 128,-1,28
 547 811 547 811 512 811 c 2,29,-1
 256 811 l 2,30,31
 221 811 221 811 196 786 c 128,-1,32
 171 761 171 761 171 725 c 2,33,-1
 171 43 l 1,34,-1
 597 43 l 1,35,-1
 597 363 l 1,36,-1
 661 363 l 1,37,-1
 661 149 l 2,38,39
 661 105 661 105 692.5 74 c 128,-1,40
 724 43 724 43 768 43 c 256,41,42
 812 43 812 43 843.5 74 c 128,-1,43
 875 105 875 105 875 149 c 2,44,-1
 875 555 l 2,45,46
 875 577 875 577 866.5 596.5 c 128,-1,47
 858 616 858 616 844 630 c 1,48,-1
 844 630 l 1,0,-1
512 512 m 1,49,-1
 256 512 l 1,50,-1
 256 725 l 1,51,-1
 512 725 l 1,52,-1
 512 512 l 1,53,-1
 512 512 l 1,49,-1
768 512 m 1,54,55
 750 512 750 512 737.5 524.5 c 128,-1,56
 725 537 725 537 725 555 c 0,57,58
 725 572 725 572 737.5 584.5 c 128,-1,59
 750 597 750 597 768 597 c 256,60,61
 786 597 786 597 798.5 584.5 c 128,-1,62
 811 572 811 572 811 555 c 0,63,64
 811 537 811 537 798.5 524.5 c 128,-1,65
 786 512 786 512 768 512 c 1,66,-1
 768 512 l 1,54,55
EndSplineSet
EndChar

StartChar: uniE61D
Encoding: 58909 58909 34
Width: 1024
Flags: W
LayerCount: 4
Fore
SplineSet
391 221 m 1,0,1
 441 171 441 171 512 171 c 128,-1,2
 583 171 583 171 633 221 c 0,3,4
 682 271 682 271 682 341.5 c 128,-1,5
 682 412 682 412 633 462 c 1,6,-1
 391 221 l 1,7,-1
 391 221 l 1,0,1
768 853 m 1,8,-1
 256 853 l 2,9,10
 221 853 221 853 196 828 c 128,-1,11
 171 803 171 803 171 768 c 2,12,-1
 171 85 l 2,13,14
 171 50 171 50 196 25 c 128,-1,15
 221 0 221 0 256 0 c 2,16,-1
 768 0 l 2,17,18
 803 0 803 0 828 25 c 128,-1,19
 853 50 853 50 853 85 c 2,20,-1
 853 768 l 2,21,22
 853 803 853 803 828 828 c 128,-1,23
 803 853 803 853 768 853 c 1,24,-1
 768 853 l 1,8,-1
427 768 m 1,25,26
 444 768 444 768 456.5 755.5 c 128,-1,27
 469 743 469 743 469 725 c 0,28,29
 469 708 469 708 456.5 695.5 c 128,-1,30
 444 683 444 683 427 683 c 0,31,32
 409 683 409 683 396.5 695.5 c 128,-1,33
 384 708 384 708 384 725 c 0,34,35
 384 743 384 743 396.5 755.5 c 128,-1,36
 409 768 409 768 427 768 c 1,37,-1
 427 768 l 1,25,26
299 768 m 1,38,39
 316 768 316 768 328.5 755.5 c 128,-1,40
 341 743 341 743 341 725 c 0,41,42
 341 708 341 708 328.5 695.5 c 128,-1,43
 316 683 316 683 299 683 c 0,44,45
 281 683 281 683 268.5 695.5 c 128,-1,46
 256 708 256 708 256 725 c 0,47,48
 256 743 256 743 268.5 755.5 c 128,-1,49
 281 768 281 768 299 768 c 1,50,-1
 299 768 l 1,38,39
512 85 m 1,51,52
 459 85 459 85 412.5 105.5 c 128,-1,53
 366 126 366 126 331 160.5 c 128,-1,54
 296 195 296 195 276 241.5 c 128,-1,55
 256 288 256 288 256 341 c 256,56,57
 256 394 256 394 276 441 c 128,-1,58
 296 488 296 488 331 522.5 c 128,-1,59
 366 557 366 557 412.5 577 c 128,-1,60
 459 597 459 597 512 597 c 256,61,62
 565 597 565 597 611.5 577 c 128,-1,63
 658 557 658 557 693 522.5 c 128,-1,64
 728 488 728 488 748 441 c 128,-1,65
 768 394 768 394 768 341 c 256,66,67
 768 288 768 288 748 241.5 c 128,-1,68
 728 195 728 195 693 160.5 c 128,-1,69
 658 126 658 126 611.5 105.5 c 128,-1,70
 565 85 565 85 512 85 c 1,71,-1
 512 85 l 1,51,52
EndSplineSet
EndChar

StartChar: uniE61E
Encoding: 58910 58910 35
Width: 1024
Flags: W
LayerCount: 4
Fore
SplineSet
512 597 m 1,0,1
 441 597 441 597 391 547 c 128,-1,2
 341 497 341 497 341 427 c 0,3,4
 341 356 341 356 391 306 c 128,-1,5
 441 256 441 256 512 256 c 256,6,7
 583 256 583 256 633 306 c 128,-1,8
 683 356 683 356 683 427 c 0,9,10
 683 497 683 497 633 547 c 128,-1,11
 583 597 583 597 512 597 c 1,12,-1
 512 597 l 1,0,1
893 469 m 1,13,14
 886 536 886 536 857 594.5 c 128,-1,15
 828 653 828 653 783 698 c 128,-1,16
 738 743 738 743 679.5 772 c 128,-1,17
 621 801 621 801 555 808 c 1,18,-1
 555 896 l 1,19,-1
 469 896 l 1,20,-1
 469 808 l 1,21,22
 403 801 403 801 344.5 772 c 128,-1,23
 286 743 286 743 241 698 c 128,-1,24
 196 653 196 653 167 594.5 c 128,-1,25
 138 536 138 536 131 469 c 1,26,-1
 43 469 l 1,27,-1
 43 384 l 1,28,-1
 131 384 l 1,29,30
 138 317 138 317 167 258.5 c 128,-1,31
 196 200 196 200 241 155 c 128,-1,32
 286 110 286 110 344.5 81.5 c 128,-1,33
 403 53 403 53 469 45 c 1,34,-1
 469 -43 l 1,35,-1
 555 -43 l 1,36,-1
 555 45 l 1,37,38
 621 53 621 53 679.5 81.5 c 128,-1,39
 738 110 738 110 783 155 c 128,-1,40
 828 200 828 200 857 258.5 c 128,-1,41
 886 317 886 317 893 384 c 1,42,-1
 981 384 l 1,43,-1
 981 469 l 1,44,-1
 893 469 l 1,45,-1
 893 469 l 1,13,14
512 128 m 1,46,47
 450 128 450 128 395.5 151.5 c 128,-1,48
 341 175 341 175 300.5 215.5 c 128,-1,49
 260 256 260 256 236.5 310.5 c 128,-1,50
 213 365 213 365 213 427 c 256,51,52
 213 489 213 489 236.5 543 c 128,-1,53
 260 597 260 597 300.5 637.5 c 128,-1,54
 341 678 341 678 395.5 701.5 c 128,-1,55
 450 725 450 725 512 725 c 256,56,57
 574 725 574 725 628.5 701.5 c 128,-1,58
 683 678 683 678 723.5 637.5 c 128,-1,59
 764 597 764 597 787.5 543 c 128,-1,60
 811 489 811 489 811 427 c 256,61,62
 811 365 811 365 787.5 310.5 c 128,-1,63
 764 256 764 256 723.5 215.5 c 128,-1,64
 683 175 683 175 628.5 151.5 c 128,-1,65
 574 128 574 128 512 128 c 1,66,-1
 512 128 l 1,46,47
EndSplineSet
EndChar

StartChar: uniE61F
Encoding: 58911 58911 36
Width: 1024
Flags: W
LayerCount: 4
Fore
SplineSet
213 376 m 1,0,-1
 213 206 l 1,1,-1
 512 43 l 1,2,-1
 811 206 l 1,3,-1
 811 376 l 1,4,-1
 512 213 l 1,5,-1
 213 376 l 1,6,-1
 213 376 l 1,0,-1
512 811 m 1,7,-1
 43 555 l 1,8,-1
 512 299 l 1,9,-1
 896 508 l 1,10,-1
 896 213 l 1,11,-1
 981 213 l 1,12,-1
 981 555 l 1,13,-1
 512 811 l 1,14,-1
 512 811 l 1,7,-1
EndSplineSet
EndChar

StartChar: uniE620
Encoding: 58912 58912 37
Width: 1024
Flags: W
LayerCount: 4
Fore
SplineSet
875 811 m 1,0,1
 873 811 873 811 871.5 810.5 c 128,-1,2
 870 810 870 810 868 810 c 2,3,-1
 640 721 l 1,4,-1
 384 811 l 1,5,-1
 144 730 l 2,6,7
 137 727 137 727 132.5 721.5 c 128,-1,8
 128 716 128 716 128 709 c 2,9,-1
 128 64 l 2,10,11
 128 55 128 55 134.5 49 c 128,-1,12
 141 43 141 43 149 43 c 0,13,14
 151 43 151 43 152.5 43 c 128,-1,15
 154 43 154 43 156 44 c 2,16,-1
 384 132 l 1,17,-1
 640 43 l 1,18,-1
 881 124 l 2,19,20
 887 126 887 126 891.5 131.5 c 128,-1,21
 896 137 896 137 896 144 c 2,22,-1
 896 789 l 2,23,24
 896 798 896 798 889.5 804.5 c 128,-1,25
 883 811 883 811 875 811 c 1,26,-1
 875 811 l 1,0,1
640 128 m 1,27,-1
 384 218 l 1,28,-1
 384 725 l 1,29,-1
 640 636 l 1,30,-1
 640 128 l 1,31,-1
 640 128 l 1,27,-1
EndSplineSet
EndChar

StartChar: uniE621
Encoding: 58913 58913 38
Width: 1024
Flags: W
LayerCount: 4
Fore
SplineSet
853 512 m 1,0,-1
 725 512 l 1,1,-1
 725 561 l 1,2,3
 781 575 781 575 817 620.5 c 128,-1,4
 853 666 853 666 853 725 c 1,5,-1
 725 725 l 1,6,-1
 725 768 l 2,7,8
 725 786 725 786 712.5 798.5 c 128,-1,9
 700 811 700 811 683 811 c 2,10,-1
 341 811 l 2,11,12
 324 811 324 811 311.5 798.5 c 128,-1,13
 299 786 299 786 299 768 c 2,14,-1
 299 725 l 1,15,-1
 171 725 l 1,16,17
 171 666 171 666 207.5 620.5 c 128,-1,18
 244 575 244 575 299 561 c 1,19,-1
 299 512 l 1,20,-1
 171 512 l 1,21,22
 171 452 171 452 207.5 407 c 128,-1,23
 244 362 244 362 299 347 c 1,24,-1
 299 299 l 1,25,-1
 171 299 l 1,26,27
 171 239 171 239 207.5 193.5 c 128,-1,28
 244 148 244 148 299 134 c 1,29,-1
 299 85 l 2,30,31
 299 68 299 68 311.5 55.5 c 128,-1,32
 324 43 324 43 341 43 c 2,33,-1
 683 43 l 2,34,35
 700 43 700 43 712.5 55.5 c 128,-1,36
 725 68 725 68 725 85 c 2,37,-1
 725 134 l 1,38,39
 781 148 781 148 817 193.5 c 128,-1,40
 853 239 853 239 853 299 c 1,41,-1
 725 299 l 1,42,-1
 725 347 l 1,43,44
 781 362 781 362 817 407 c 128,-1,45
 853 452 853 452 853 512 c 1,46,-1
 853 512 l 1,0,-1
512 128 m 1,47,48
 477 128 477 128 452 153 c 128,-1,49
 427 178 427 178 427 213 c 0,50,51
 427 249 427 249 452 274 c 128,-1,52
 477 299 477 299 512 299 c 256,53,54
 547 299 547 299 572 274 c 128,-1,55
 597 249 597 249 597 213 c 0,56,57
 597 178 597 178 572 153 c 128,-1,58
 547 128 547 128 512 128 c 1,59,-1
 512 128 l 1,47,48
512 341 m 1,60,61
 477 341 477 341 452 366 c 128,-1,62
 427 391 427 391 427 427 c 0,63,64
 427 462 427 462 452 487 c 128,-1,65
 477 512 477 512 512 512 c 256,66,67
 547 512 547 512 572 487 c 128,-1,68
 597 462 597 462 597 427 c 0,69,70
 597 391 597 391 572 366 c 128,-1,71
 547 341 547 341 512 341 c 1,72,-1
 512 341 l 1,60,61
512 555 m 1,73,74
 477 555 477 555 452 580 c 128,-1,75
 427 605 427 605 427 640 c 256,76,77
 427 675 427 675 452 700 c 128,-1,78
 477 725 477 725 512 725 c 256,79,80
 547 725 547 725 572 700 c 128,-1,81
 597 675 597 675 597 640 c 256,82,83
 597 605 597 605 572 580 c 128,-1,84
 547 555 547 555 512 555 c 1,85,-1
 512 555 l 1,73,74
EndSplineSet
EndChar

StartChar: uniE622
Encoding: 58914 58914 39
Width: 1024
Flags: W
LayerCount: 4
Fore
SplineSet
427 668 m 1,0,-1
 427 757 l 1,1,2
 401 750 401 750 377 740 c 128,-1,3
 353 730 353 730 332 716 c 1,4,-1
 394 653 l 1,5,6
 402 657 402 657 410 661 c 128,-1,7
 418 665 418 665 427 668 c 1,8,-1
 427 668 l 1,0,-1
122 708 m 1,9,-1
 223 607 l 1,10,11
 198 568 198 568 184.5 522.5 c 128,-1,12
 171 477 171 477 171 427 c 0,13,14
 171 356 171 356 198 294 c 128,-1,15
 225 232 225 232 271 186 c 1,16,-1
 171 85 l 1,17,-1
 427 85 l 1,18,-1
 427 341 l 1,19,-1
 331 246 l 1,20,21
 296 281 296 281 276 327.5 c 128,-1,22
 256 374 256 374 256 427 c 0,23,24
 256 459 256 459 263.5 488.5 c 128,-1,25
 271 518 271 518 285 545 c 1,26,-1
 630 200 l 1,27,28
 622 196 622 196 614 192 c 128,-1,29
 606 188 606 188 598 185 c 1,30,-1
 598 96 l 1,31,32
 623 103 623 103 647 113.5 c 128,-1,33
 671 124 671 124 693 137 c 1,34,-1
 793 37 l 1,35,-1
 848 91 l 1,36,-1
 176 762 l 1,37,-1
 122 708 l 1,38,-1
 122 708 l 1,9,-1
853 768 m 1,39,-1
 597 768 l 1,40,-1
 597 512 l 1,41,-1
 693 607 l 1,42,43
 728 573 728 573 748 526.5 c 128,-1,44
 768 480 768 480 768 427 c 0,45,46
 768 395 768 395 760.5 365 c 128,-1,47
 753 335 753 335 739 308 c 1,48,-1
 801 246 l 1,49,50
 826 285 826 285 839.5 331 c 128,-1,51
 853 377 853 377 853 427 c 0,52,53
 853 497 853 497 826 559 c 128,-1,54
 799 621 799 621 753 668 c 1,55,-1
 853 768 l 1,56,-1
 853 768 l 1,39,-1
EndSplineSet
EndChar

StartChar: uniE623
Encoding: 58915 58915 40
Width: 1024
Flags: W
LayerCount: 4
Fore
SplineSet
128 427 m 1,0,1
 128 356 128 356 155 294 c 128,-1,2
 182 232 182 232 228 186 c 1,3,-1
 128 85 l 1,4,-1
 384 85 l 1,5,-1
 384 341 l 1,6,-1
 289 246 l 1,7,8
 254 281 254 281 233.5 327.5 c 128,-1,9
 213 374 213 374 213 427 c 0,10,11
 213 468 213 468 226 506 c 128,-1,12
 239 544 239 544 261.5 575.5 c 128,-1,13
 284 607 284 607 315.5 631 c 128,-1,14
 347 655 347 655 384 668 c 1,15,-1
 384 757 l 1,16,17
 329 743 329 743 282 712 c 128,-1,18
 235 681 235 681 201 637.5 c 128,-1,19
 167 594 167 594 147.5 540 c 128,-1,20
 128 486 128 486 128 427 c 1,21,-1
 128 427 l 1,0,1
469 213 m 1,22,-1
 555 213 l 1,23,-1
 555 299 l 1,24,-1
 469 299 l 1,25,-1
 469 213 l 1,26,-1
 469 213 l 1,22,-1
896 768 m 1,27,-1
 640 768 l 1,28,-1
 640 512 l 1,29,-1
 735 607 l 1,30,31
 770 573 770 573 790.5 526.5 c 128,-1,32
 811 480 811 480 811 427 c 0,33,34
 811 385 811 385 798 347 c 128,-1,35
 785 309 785 309 762.5 277.5 c 128,-1,36
 740 246 740 246 708.5 222.5 c 128,-1,37
 677 199 677 199 640 186 c 1,38,-1
 640 97 l 1,39,40
 695 111 695 111 742 142 c 128,-1,41
 789 173 789 173 823 216.5 c 128,-1,42
 857 260 857 260 876.5 313.5 c 128,-1,43
 896 367 896 367 896 427 c 0,44,45
 896 497 896 497 869 559 c 128,-1,46
 842 621 842 621 796 668 c 1,47,-1
 896 768 l 1,48,-1
 896 768 l 1,27,-1
469 384 m 1,49,-1
 555 384 l 1,50,-1
 555 640 l 1,51,-1
 469 640 l 1,52,-1
 469 384 l 1,53,-1
 469 384 l 1,49,-1
EndSplineSet
EndChar

StartChar: uniE624
Encoding: 58916 58916 41
Width: 1024
Flags: W
LayerCount: 4
Fore
SplineSet
939 768 m 1,0,-1
 939 789 l 2,1,2
 939 833 939 833 907.5 864.5 c 128,-1,3
 876 896 876 896 832 896 c 256,4,5
 788 896 788 896 756.5 864.5 c 128,-1,6
 725 833 725 833 725 789 c 2,7,-1
 725 768 l 1,8,9
 708 768 708 768 695.5 755.5 c 128,-1,10
 683 743 683 743 683 725 c 2,11,-1
 683 555 l 2,12,13
 683 537 683 537 695.5 524.5 c 128,-1,14
 708 512 708 512 725 512 c 2,15,-1
 939 512 l 2,16,17
 956 512 956 512 968.5 524.5 c 128,-1,18
 981 537 981 537 981 555 c 2,19,-1
 981 725 l 2,20,21
 981 743 981 743 968.5 755.5 c 128,-1,22
 956 768 956 768 939 768 c 1,23,-1
 939 768 l 1,0,-1
905 768 m 1,24,-1
 759 768 l 1,25,-1
 759 789 l 2,26,27
 759 819 759 819 780.5 840.5 c 128,-1,28
 802 862 802 862 832 862 c 256,29,30
 862 862 862 862 883.5 840.5 c 128,-1,31
 905 819 905 819 905 789 c 2,32,-1
 905 768 l 1,33,-1
 905 768 l 1,24,-1
807 427 m 1,34,35
 809 416 809 416 810 405.5 c 128,-1,36
 811 395 811 395 811 384 c 0,37,38
 811 317 811 317 787 258 c 128,-1,39
 763 199 763 199 721 154 c 1,40,41
 713 180 713 180 690.5 196.5 c 128,-1,42
 668 213 668 213 640 213 c 2,43,-1
 597 213 l 1,44,-1
 597 341 l 2,45,46
 597 359 597 359 584.5 371.5 c 128,-1,47
 572 384 572 384 555 384 c 2,48,-1
 299 384 l 1,49,-1
 299 469 l 1,50,-1
 384 469 l 2,51,52
 402 469 402 469 414.5 481.5 c 128,-1,53
 427 494 427 494 427 512 c 2,54,-1
 427 597 l 1,55,-1
 512 597 l 2,56,57
 547 597 547 597 572 622 c 128,-1,58
 597 647 597 647 597 683 c 2,59,-1
 597 791 l 1,60,61
 567 801 567 801 535 806 c 128,-1,62
 503 811 503 811 469 811 c 0,63,64
 381 811 381 811 303 777.5 c 128,-1,65
 225 744 225 744 167.5 686 c 128,-1,66
 110 628 110 628 76.5 550 c 128,-1,67
 43 472 43 472 43 384 c 256,68,69
 43 296 43 296 76.5 218 c 128,-1,70
 110 140 110 140 167.5 82 c 128,-1,71
 225 24 225 24 303 -9.5 c 128,-1,72
 381 -43 381 -43 469 -43 c 0,73,74
 558 -43 558 -43 635.5 -9.5 c 128,-1,75
 713 24 713 24 771 82 c 128,-1,76
 829 140 829 140 862.5 218 c 128,-1,77
 896 296 896 296 896 384 c 0,78,79
 896 395 896 395 895.5 405.5 c 128,-1,80
 895 416 895 416 894 427 c 1,81,-1
 807 427 l 1,82,-1
 807 427 l 1,34,35
427 46 m 1,83,84
 364 53 364 53 309 82.5 c 128,-1,85
 254 112 254 112 214 157.5 c 128,-1,86
 174 203 174 203 151 261 c 128,-1,87
 128 319 128 319 128 384 c 0,88,89
 128 404 128 404 130.5 423 c 128,-1,90
 133 442 133 442 137 460 c 1,91,-1
 341 256 l 1,92,-1
 341 213 l 2,93,94
 341 178 341 178 366 153 c 128,-1,95
 391 128 391 128 427 128 c 1,96,-1
 427 46 l 1,97,-1
 427 46 l 1,83,84
EndSplineSet
EndChar

StartChar: uniE625
Encoding: 58917 58917 42
Width: 1024
Flags: W
LayerCount: 4
Fore
SplineSet
512 853 m 1,0,1
 424 853 424 853 346 819.5 c 128,-1,2
 268 786 268 786 210 728.5 c 128,-1,3
 152 671 152 671 118.5 593 c 128,-1,4
 85 515 85 515 85 427 c 0,5,6
 85 338 85 338 118.5 260.5 c 128,-1,7
 152 183 152 183 210 125 c 128,-1,8
 268 67 268 67 346 33.5 c 128,-1,9
 424 0 424 0 512 0 c 256,10,11
 600 0 600 0 678 33.5 c 128,-1,12
 756 67 756 67 814 125 c 128,-1,13
 872 183 872 183 905.5 260.5 c 128,-1,14
 939 338 939 338 939 427 c 0,15,16
 939 515 939 515 905.5 593 c 128,-1,17
 872 671 872 671 814 728.5 c 128,-1,18
 756 786 756 786 678 819.5 c 128,-1,19
 600 853 600 853 512 853 c 1,20,-1
 512 853 l 1,0,1
469 88 m 1,21,22
 406 96 406 96 351.5 125.5 c 128,-1,23
 297 155 297 155 257 200 c 128,-1,24
 217 245 217 245 194 303 c 128,-1,25
 171 361 171 361 171 427 c 0,26,27
 171 446 171 446 173 465.5 c 128,-1,28
 175 485 175 485 180 503 c 1,29,-1
 384 299 l 1,30,-1
 384 256 l 2,31,32
 384 221 384 221 409 196 c 128,-1,33
 434 171 434 171 469 171 c 1,34,-1
 469 88 l 1,35,-1
 469 88 l 1,21,22
764 196 m 1,36,37
 755 222 755 222 733 239 c 128,-1,38
 711 256 711 256 683 256 c 2,39,-1
 640 256 l 1,40,-1
 640 384 l 2,41,42
 640 402 640 402 627.5 414.5 c 128,-1,43
 615 427 615 427 597 427 c 2,44,-1
 341 427 l 1,45,-1
 341 512 l 1,46,-1
 427 512 l 2,47,48
 444 512 444 512 456.5 524.5 c 128,-1,49
 469 537 469 537 469 555 c 2,50,-1
 469 640 l 1,51,-1
 555 640 l 2,52,53
 590 640 590 640 615 665 c 128,-1,54
 640 690 640 690 640 725 c 2,55,-1
 640 743 l 1,56,57
 687 724 687 724 726 692.5 c 128,-1,58
 765 661 765 661 793.5 620 c 128,-1,59
 822 579 822 579 837.5 529.5 c 128,-1,60
 853 480 853 480 853 427 c 0,61,62
 853 360 853 360 829 301 c 128,-1,63
 805 242 805 242 764 196 c 1,64,-1
 764 196 l 1,36,37
EndSplineSet
EndChar

StartChar: uniE626
Encoding: 58918 58918 43
Width: 1024
Flags: W
LayerCount: 4
Fore
SplineSet
755 610 m 1,0,-1
 512 853 l 1,1,-1
 469 853 l 1,2,-1
 469 530 l 1,3,-1
 274 725 l 1,4,-1
 213 665 l 1,5,-1
 452 427 l 1,6,-1
 213 188 l 1,7,-1
 274 128 l 1,8,-1
 469 324 l 1,9,-1
 469 0 l 1,10,-1
 512 0 l 1,11,-1
 755 243 l 1,12,-1
 572 427 l 1,13,-1
 755 610 l 1,14,-1
 755 610 l 1,0,-1
555 690 m 1,15,-1
 635 610 l 1,16,-1
 555 530 l 1,17,-1
 555 690 l 1,18,-1
 555 690 l 1,15,-1
635 243 m 1,19,-1
 555 163 l 1,20,-1
 555 324 l 1,21,-1
 635 243 l 1,22,-1
 635 243 l 1,19,-1
EndSplineSet
EndChar

StartChar: uniE627
Encoding: 58919 58919 44
Width: 1024
Flags: W
LayerCount: 4
Fore
SplineSet
299 427 m 1,0,-1
 213 512 l 1,1,-1
 128 427 l 1,2,-1
 213 341 l 1,3,-1
 299 427 l 1,4,-1
 299 427 l 1,0,-1
755 610 m 1,5,-1
 512 853 l 1,6,-1
 469 853 l 1,7,-1
 469 530 l 1,8,-1
 274 725 l 1,9,-1
 213 665 l 1,10,-1
 452 427 l 1,11,-1
 213 188 l 1,12,-1
 274 128 l 1,13,-1
 469 324 l 1,14,-1
 469 0 l 1,15,-1
 512 0 l 1,16,-1
 755 243 l 1,17,-1
 572 427 l 1,18,-1
 755 610 l 1,19,-1
 755 610 l 1,5,-1
555 690 m 1,20,-1
 635 610 l 1,21,-1
 555 530 l 1,22,-1
 555 690 l 1,23,-1
 555 690 l 1,20,-1
635 243 m 1,24,-1
 555 163 l 1,25,-1
 555 324 l 1,26,-1
 635 243 l 1,27,-1
 635 243 l 1,24,-1
811 512 m 1,28,-1
 725 427 l 1,29,-1
 811 341 l 1,30,-1
 896 427 l 1,31,-1
 811 512 l 1,32,-1
 811 512 l 1,28,-1
EndSplineSet
EndChar

StartChar: uniE628
Encoding: 58920 58920 45
Width: 1024
Flags: W
LayerCount: 4
Fore
SplineSet
555 686 m 1,0,-1
 635 606 l 1,1,-1
 567 538 l 1,2,-1
 627 477 l 1,3,-1
 756 606 l 1,4,-1
 512 850 l 1,5,-1
 469 850 l 1,6,-1
 469 635 l 1,7,-1
 555 550 l 1,8,-1
 555 686 l 1,9,-1
 555 686 l 1,0,-1
231 764 m 1,10,-1
 171 704 l 1,11,-1
 452 423 l 1,12,-1
 213 185 l 1,13,-1
 274 124 l 1,14,-1
 469 320 l 1,15,-1
 469 -4 l 1,16,-1
 512 -4 l 1,17,-1
 695 180 l 1,18,-1
 793 82 l 1,19,-1
 853 142 l 1,20,-1
 231 764 l 1,21,-1
 231 764 l 1,10,-1
555 160 m 1,22,-1
 555 320 l 1,23,-1
 635 240 l 1,24,-1
 555 160 l 1,25,-1
 555 160 l 1,22,-1
EndSplineSet
EndChar

StartChar: uniE629
Encoding: 58921 58921 46
Width: 1024
Flags: W
LayerCount: 4
Fore
SplineSet
608 426 m 1,0,-1
 707 327 l 1,1,2
 716 350 716 350 720.5 375 c 128,-1,3
 725 400 725 400 725 427 c 0,4,5
 725 453 725 453 720.5 477.5 c 128,-1,6
 716 502 716 502 707 525 c 1,7,-1
 608 426 l 1,8,-1
 608 426 l 1,0,-1
833 652 m 1,9,-1
 779 598 l 1,10,11
 799 560 799 560 810 516.5 c 128,-1,12
 821 473 821 473 821 426 c 0,13,14
 821 380 821 380 810 336.5 c 128,-1,15
 799 293 799 293 779 255 c 1,16,-1
 831 204 l 1,17,18
 861 253 861 253 878.5 310.5 c 128,-1,19
 896 368 896 368 896 430 c 0,20,21
 896 491 896 491 879.5 547.5 c 128,-1,22
 863 604 863 604 833 652 c 1,23,-1
 833 652 l 1,9,-1
670 610 m 1,24,-1
 427 853 l 1,25,-1
 384 853 l 1,26,-1
 384 530 l 1,27,-1
 188 725 l 1,28,-1
 128 665 l 1,29,-1
 366 427 l 1,30,-1
 128 188 l 1,31,-1
 188 128 l 1,32,-1
 384 324 l 1,33,-1
 384 0 l 1,34,-1
 427 0 l 1,35,-1
 670 243 l 1,36,-1
 487 427 l 1,37,-1
 670 610 l 1,38,-1
 670 610 l 1,24,-1
469 690 m 1,39,-1
 550 610 l 1,40,-1
 469 530 l 1,41,-1
 469 690 l 1,42,-1
 469 690 l 1,39,-1
550 243 m 1,43,-1
 469 163 l 1,44,-1
 469 324 l 1,45,-1
 550 243 l 1,46,-1
 550 243 l 1,43,-1
EndSplineSet
EndChar

StartChar: uniE62A
Encoding: 58922 58922 47
Width: 1024
Flags: W
LayerCount: 4
Fore
SplineSet
463 399 m 1,0,-1
 561 399 l 1,1,-1
 512 555 l 1,2,-1
 463 399 l 1,3,-1
 463 399 l 1,0,-1
853 568 m 1,4,-1
 853 768 l 1,5,-1
 653 768 l 1,6,-1
 512 909 l 1,7,-1
 371 768 l 1,8,-1
 171 768 l 1,9,-1
 171 568 l 1,10,-1
 29 427 l 1,11,-1
 171 285 l 1,12,-1
 171 85 l 1,13,-1
 371 85 l 1,14,-1
 512 -56 l 1,15,-1
 653 85 l 1,16,-1
 853 85 l 1,17,-1
 853 285 l 1,18,-1
 995 427 l 1,19,-1
 853 568 l 1,20,-1
 853 568 l 1,4,-1
610 256 m 1,21,-1
 580 341 l 1,22,-1
 444 341 l 1,23,-1
 414 256 l 1,24,-1
 333 256 l 1,25,-1
 469 640 l 1,26,-1
 555 640 l 1,27,-1
 691 256 l 1,28,-1
 610 256 l 1,29,-1
 610 256 l 1,21,-1
EndSplineSet
EndChar

StartChar: uniE62B
Encoding: 58923 58923 48
Width: 1024
Flags: W
LayerCount: 4
Fore
SplineSet
160 0 m 1,0,-1
 160 768 l 1,1,-1
 293 896 l 1,2,-1
 699 896 l 1,3,-1
 832 768 l 1,4,-1
 832 0 l 1,5,-1
 160 0 l 1,6,-1
 160 0 l 1,0,-1
800 256 m 1,7,-1
 800 736 l 1,8,-1
 192 736 l 1,9,-1
 192 32 l 1,10,-1
 800 32 l 1,11,-1
 800 256 l 1,12,-1
 800 256 l 1,7,-1
768 512 m 1,13,-1
 224 512 l 1,14,-1
 224 704 l 1,15,-1
 768 704 l 1,16,-1
 768 512 l 1,17,-1
 768 512 l 1,13,-1
576 640 m 1,18,-1
 416 640 l 1,19,-1
 416 608 l 1,20,-1
 576 608 l 1,21,-1
 576 640 l 1,22,-1
 576 640 l 1,18,-1
768 288 m 1,23,-1
 224 288 l 1,24,-1
 224 480 l 1,25,-1
 768 480 l 1,26,-1
 768 288 l 1,27,-1
 768 288 l 1,23,-1
576 416 m 1,28,-1
 416 416 l 1,29,-1
 416 384 l 1,30,-1
 576 384 l 1,31,-1
 576 416 l 1,32,-1
 576 416 l 1,28,-1
768 64 m 1,33,-1
 224 64 l 1,34,-1
 224 256 l 1,35,-1
 768 256 l 1,36,-1
 768 64 l 1,37,-1
 768 64 l 1,33,-1
576 192 m 1,38,-1
 416 192 l 1,39,-1
 416 160 l 1,40,-1
 576 160 l 1,41,-1
 576 192 l 1,42,-1
 576 192 l 1,38,-1
EndSplineSet
EndChar

StartChar: uniE62C
Encoding: 58924 58924 49
Width: 1024
Flags: W
LayerCount: 4
Fore
SplineSet
864 32 m 1,0,-1
 128 32 l 2,1,2
 101 32 101 32 82.5 51 c 128,-1,3
 64 70 64 70 64 96 c 2,4,-1
 64 480 l 1,5,6
 64 480 64 480 92.5 466 c 128,-1,7
 121 452 121 452 166.5 432.5 c 128,-1,8
 212 413 212 413 269.5 392.5 c 128,-1,9
 327 372 327 372 384 359 c 1,10,-1
 384 320 l 2,11,12
 384 307 384 307 393.5 297.5 c 128,-1,13
 403 288 403 288 416 288 c 2,14,-1
 576 288 l 2,15,16
 589 288 589 288 598.5 297.5 c 128,-1,17
 608 307 608 307 608 320 c 2,18,-1
 608 359 l 1,19,20
 665 372 665 372 722.5 392.5 c 128,-1,21
 780 413 780 413 825.5 432.5 c 128,-1,22
 871 452 871 452 899.5 466 c 128,-1,23
 928 480 928 480 928 480 c 1,24,-1
 928 96 l 2,25,26
 928 70 928 70 909 51 c 128,-1,27
 890 32 890 32 864 32 c 1,28,-1
 864 32 l 1,0,-1
544 416 m 1,29,30
 557 416 557 416 566.5 406.5 c 128,-1,31
 576 397 576 397 576 384 c 2,32,-1
 576 352 l 2,33,34
 576 339 576 339 566.5 329.5 c 128,-1,35
 557 320 557 320 544 320 c 2,36,-1
 448 320 l 2,37,38
 435 320 435 320 425.5 329.5 c 128,-1,39
 416 339 416 339 416 352 c 2,40,-1
 416 384 l 2,41,42
 416 397 416 397 425.5 406.5 c 128,-1,43
 435 416 435 416 448 416 c 2,44,-1
 544 416 l 1,45,-1
 544 416 l 1,29,30
608 416 m 1,46,47
 608 429 608 429 598.5 438.5 c 128,-1,48
 589 448 589 448 576 448 c 2,49,-1
 416 448 l 2,50,51
 403 448 403 448 393.5 438.5 c 128,-1,52
 384 429 384 429 384 416 c 2,53,-1
 384 387 l 1,54,55
 327 401 327 401 269.5 422 c 128,-1,56
 212 443 212 443 166.5 463 c 128,-1,57
 121 483 121 483 92.5 497.5 c 128,-1,58
 64 512 64 512 64 512 c 1,59,-1
 64 640 l 2,60,61
 64 666 64 666 82.5 685 c 128,-1,62
 101 704 101 704 128 704 c 2,63,-1
 320 704 l 1,64,-1
 320 768 l 2,65,66
 320 794 320 794 339 813 c 128,-1,67
 358 832 358 832 384 832 c 2,68,-1
 608 832 l 2,69,70
 634 832 634 832 653 813 c 128,-1,71
 672 794 672 794 672 768 c 2,72,-1
 672 704 l 1,73,-1
 864 704 l 2,74,75
 890 704 890 704 909 685 c 128,-1,76
 928 666 928 666 928 640 c 2,77,-1
 928 512 l 1,78,79
 928 512 928 512 899.5 497.5 c 128,-1,80
 871 483 871 483 825.5 463 c 128,-1,81
 780 443 780 443 722.5 422 c 128,-1,82
 665 401 665 401 608 387 c 1,83,-1
 608 416 l 1,84,-1
 608 416 l 1,46,47
608 736 m 1,85,86
 608 749 608 749 598.5 758.5 c 128,-1,87
 589 768 589 768 576 768 c 2,88,-1
 416 768 l 2,89,90
 403 768 403 768 393.5 758.5 c 128,-1,91
 384 749 384 749 384 736 c 256,92,93
 384 723 384 723 384 713.5 c 128,-1,94
 384 704 384 704 384 704 c 1,95,-1
 608 704 l 1,96,97
 608 704 608 704 608 713.5 c 128,-1,98
 608 723 608 723 608 736 c 1,99,-1
 608 736 l 1,85,86
EndSplineSet
EndChar

StartChar: uniE62D
Encoding: 58925 58925 50
Width: 1024
Flags: W
LayerCount: 4
Fore
SplineSet
896 512 m 1,0,1
 883 512 883 512 873.5 512 c 128,-1,2
 864 512 864 512 864 512 c 1,3,-1
 864 544 l 2,4,5
 864 570 864 570 845 589 c 128,-1,6
 826 608 826 608 800 608 c 2,7,-1
 160 608 l 2,8,9
 134 608 134 608 115 589 c 128,-1,10
 96 570 96 570 96 544 c 2,11,-1
 96 320 l 2,12,13
 96 294 96 294 115 275 c 128,-1,14
 134 256 134 256 160 256 c 2,15,-1
 800 256 l 2,16,17
 826 256 826 256 845 275 c 128,-1,18
 864 294 864 294 864 320 c 2,19,-1
 864 352 l 1,20,21
 864 352 864 352 873.5 352 c 128,-1,22
 883 352 883 352 896 352 c 256,23,24
 909 352 909 352 918.5 361.5 c 128,-1,25
 928 371 928 371 928 384 c 2,26,-1
 928 480 l 2,27,28
 928 493 928 493 918.5 502.5 c 128,-1,29
 909 512 909 512 896 512 c 1,30,-1
 896 512 l 1,0,1
832 320 m 1,31,32
 832 307 832 307 822.5 297.5 c 128,-1,33
 813 288 813 288 800 288 c 2,34,-1
 160 288 l 2,35,36
 147 288 147 288 137.5 297.5 c 128,-1,37
 128 307 128 307 128 320 c 2,38,-1
 128 544 l 2,39,40
 128 557 128 557 137.5 566.5 c 128,-1,41
 147 576 147 576 160 576 c 2,42,-1
 800 576 l 2,43,44
 813 576 813 576 822.5 566.5 c 128,-1,45
 832 557 832 557 832 544 c 2,46,-1
 832 320 l 1,47,-1
 832 320 l 1,31,32
160 320 m 1,48,-1
 352 320 l 1,49,-1
 352 544 l 1,50,-1
 160 544 l 1,51,-1
 160 320 l 1,52,-1
 160 320 l 1,48,-1
384 320 m 1,53,-1
 576 320 l 1,54,-1
 576 544 l 1,55,-1
 384 544 l 1,56,-1
 384 320 l 1,57,-1
 384 320 l 1,53,-1
608 320 m 1,58,-1
 800 320 l 1,59,-1
 800 544 l 1,60,-1
 608 544 l 1,61,-1
 608 320 l 1,62,-1
 608 320 l 1,58,-1
EndSplineSet
EndChar

StartChar: uniE62E
Encoding: 58926 58926 51
Width: 1024
Flags: W
LayerCount: 4
Fore
SplineSet
896 512 m 1,0,1
 883 512 883 512 873.5 512 c 128,-1,2
 864 512 864 512 864 512 c 1,3,-1
 864 544 l 2,4,5
 864 570 864 570 845 589 c 128,-1,6
 826 608 826 608 800 608 c 2,7,-1
 160 608 l 2,8,9
 133 608 133 608 114.5 589 c 128,-1,10
 96 570 96 570 96 544 c 2,11,-1
 96 320 l 2,12,13
 96 294 96 294 114.5 275 c 128,-1,14
 133 256 133 256 160 256 c 2,15,-1
 800 256 l 2,16,17
 826 256 826 256 845 275 c 128,-1,18
 864 294 864 294 864 320 c 2,19,-1
 864 352 l 1,20,21
 864 352 864 352 873.5 352 c 128,-1,22
 883 352 883 352 896 352 c 256,23,24
 909 352 909 352 918.5 361.5 c 128,-1,25
 928 371 928 371 928 384 c 2,26,-1
 928 480 l 2,27,28
 928 493 928 493 918.5 502.5 c 128,-1,29
 909 512 909 512 896 512 c 1,30,-1
 896 512 l 1,0,1
832 320 m 1,31,32
 832 307 832 307 822.5 297.5 c 128,-1,33
 813 288 813 288 800 288 c 2,34,-1
 160 288 l 2,35,36
 147 288 147 288 137.5 297.5 c 128,-1,37
 128 307 128 307 128 320 c 2,38,-1
 128 544 l 2,39,40
 128 557 128 557 137.5 566.5 c 128,-1,41
 147 576 147 576 160 576 c 2,42,-1
 800 576 l 2,43,44
 813 576 813 576 822.5 566.5 c 128,-1,45
 832 557 832 557 832 544 c 2,46,-1
 832 320 l 1,47,-1
 832 320 l 1,31,32
160 320 m 1,48,-1
 352 320 l 1,49,-1
 352 544 l 1,50,-1
 160 544 l 1,51,-1
 160 320 l 1,52,-1
 160 320 l 1,48,-1
384 320 m 1,53,-1
 576 320 l 1,54,-1
 576 544 l 1,55,-1
 384 544 l 1,56,-1
 384 320 l 1,57,-1
 384 320 l 1,53,-1
EndSplineSet
EndChar

StartChar: uniE62F
Encoding: 58927 58927 52
Width: 1024
Flags: W
LayerCount: 4
Fore
SplineSet
896 512 m 1,0,1
 883 512 883 512 873.5 512 c 128,-1,2
 864 512 864 512 864 512 c 1,3,-1
 864 544 l 2,4,5
 864 570 864 570 845 589 c 128,-1,6
 826 608 826 608 800 608 c 2,7,-1
 160 608 l 2,8,9
 133 608 133 608 114.5 589 c 128,-1,10
 96 570 96 570 96 544 c 2,11,-1
 96 320 l 2,12,13
 96 294 96 294 114.5 275 c 128,-1,14
 133 256 133 256 160 256 c 2,15,-1
 800 256 l 2,16,17
 826 256 826 256 845 275 c 128,-1,18
 864 294 864 294 864 320 c 2,19,-1
 864 352 l 1,20,21
 864 352 864 352 873.5 352 c 128,-1,22
 883 352 883 352 896 352 c 256,23,24
 909 352 909 352 918.5 361.5 c 128,-1,25
 928 371 928 371 928 384 c 2,26,-1
 928 480 l 2,27,28
 928 493 928 493 918.5 502.5 c 128,-1,29
 909 512 909 512 896 512 c 1,30,-1
 896 512 l 1,0,1
832 320 m 1,31,32
 832 307 832 307 822.5 297.5 c 128,-1,33
 813 288 813 288 800 288 c 2,34,-1
 160 288 l 2,35,36
 147 288 147 288 137.5 297.5 c 128,-1,37
 128 307 128 307 128 320 c 2,38,-1
 128 544 l 2,39,40
 128 557 128 557 137.5 566.5 c 128,-1,41
 147 576 147 576 160 576 c 2,42,-1
 800 576 l 2,43,44
 813 576 813 576 822.5 566.5 c 128,-1,45
 832 557 832 557 832 544 c 2,46,-1
 832 320 l 1,47,-1
 832 320 l 1,31,32
160 320 m 1,48,-1
 352 320 l 1,49,-1
 352 544 l 1,50,-1
 160 544 l 1,51,-1
 160 320 l 1,52,-1
 160 320 l 1,48,-1
EndSplineSet
EndChar

StartChar: uniE630
Encoding: 58928 58928 53
Width: 1024
Flags: W
LayerCount: 4
Fore
SplineSet
896 352 m 1,0,1
 883 352 883 352 873.5 352 c 128,-1,2
 864 352 864 352 864 352 c 1,3,-1
 864 320 l 2,4,5
 864 294 864 294 845.5 275 c 128,-1,6
 827 256 827 256 800 256 c 2,7,-1
 160 256 l 2,8,9
 133 256 133 256 114.5 275 c 128,-1,10
 96 294 96 294 96 320 c 2,11,-1
 96 544 l 2,12,13
 96 570 96 570 114.5 589 c 128,-1,14
 133 608 133 608 160 608 c 2,15,-1
 800 608 l 2,16,17
 827 608 827 608 845.5 589 c 128,-1,18
 864 570 864 570 864 544 c 2,19,-1
 864 512 l 1,20,21
 864 512 864 512 873.5 512 c 128,-1,22
 883 512 883 512 896 512 c 256,23,24
 909 512 909 512 918.5 502.5 c 128,-1,25
 928 493 928 493 928 480 c 2,26,-1
 928 384 l 2,27,28
 928 371 928 371 918.5 361.5 c 128,-1,29
 909 352 909 352 896 352 c 1,30,-1
 896 352 l 1,0,1
832 544 m 1,31,32
 832 557 832 557 822.5 566.5 c 128,-1,33
 813 576 813 576 800 576 c 2,34,-1
 160 576 l 2,35,36
 147 576 147 576 137.5 566.5 c 128,-1,37
 128 557 128 557 128 544 c 2,38,-1
 128 320 l 2,39,40
 128 307 128 307 137.5 297.5 c 128,-1,41
 147 288 147 288 160 288 c 2,42,-1
 800 288 l 2,43,44
 813 288 813 288 822.5 297.5 c 128,-1,45
 832 307 832 307 832 320 c 2,46,-1
 832 544 l 1,47,-1
 832 544 l 1,31,32
EndSplineSet
EndChar

StartChar: uniE631
Encoding: 58929 58929 54
Width: 1024
Flags: W
LayerCount: 4
Fore
SplineSet
608 32 m 1,0,-1
 384 32 l 2,1,2
 357 32 357 32 338.5 51 c 128,-1,3
 320 70 320 70 320 96 c 2,4,-1
 320 704 l 2,5,6
 320 731 320 731 338.5 749.5 c 128,-1,7
 357 768 357 768 384 768 c 2,8,-1
 418 768 l 1,9,10
 418 768 418 768 418 769.5 c 128,-1,11
 418 771 418 771 418 784 c 256,12,13
 418 797 418 797 426 814.5 c 128,-1,14
 434 832 434 832 447 832 c 2,15,-1
 543 832 l 2,16,17
 556 832 556 832 565.5 814.5 c 128,-1,18
 575 797 575 797 575 784 c 256,19,20
 575 771 575 771 575 769.5 c 128,-1,21
 575 768 575 768 575 768 c 1,22,-1
 608 768 l 2,23,24
 635 768 635 768 653.5 749.5 c 128,-1,25
 672 731 672 731 672 704 c 2,26,-1
 672 96 l 2,27,28
 672 70 672 70 653.5 51 c 128,-1,29
 635 32 635 32 608 32 c 1,30,-1
 608 32 l 1,0,-1
543 671 m 1,31,-1
 511 671 l 1,32,-1
 511 702 l 1,33,-1
 481 702 l 1,34,-1
 481 671 l 1,35,-1
 449 671 l 1,36,-1
 449 639 l 1,37,-1
 481 639 l 1,38,-1
 481 607 l 1,39,-1
 511 607 l 1,40,-1
 511 639 l 1,41,-1
 543 639 l 1,42,-1
 543 671 l 1,43,-1
 543 671 l 1,31,-1
640 545 m 1,44,-1
 352 545 l 1,45,-1
 352 96 l 2,46,47
 352 83 352 83 361 73.5 c 128,-1,48
 370 64 370 64 384 64 c 2,49,-1
 608 64 l 2,50,51
 621 64 621 64 630.5 73.5 c 128,-1,52
 640 83 640 83 640 96 c 2,53,-1
 640 545 l 1,54,-1
 640 545 l 1,44,-1
447 162 m 1,55,-1
 545 162 l 1,56,-1
 545 128 l 1,57,-1
 447 128 l 1,58,-1
 447 162 l 1,59,-1
 447 162 l 1,55,-1
EndSplineSet
EndChar

StartChar: uniE632
Encoding: 58930 58930 55
Width: 1024
Flags: W
LayerCount: 4
Fore
SplineSet
889 706 m 1,0,1
 912 651 912 651 901 590 c 128,-1,2
 890 529 890 529 845 483 c 0,3,4
 795 434 795 434 727 426 c 128,-1,5
 659 418 659 418 601 451 c 1,6,-1
 544 389 l 1,7,-1
 585 349 l 1,8,-1
 609 373 l 2,9,10
 618 382 618 382 631 382 c 128,-1,11
 644 382 644 382 653 373 c 2,12,-1
 848 176 l 2,13,14
 857 167 857 167 857 154 c 128,-1,15
 857 141 857 141 848 132 c 2,16,-1
 759 43 l 2,17,18
 750 34 750 34 736.5 34 c 128,-1,19
 723 34 723 34 714 43 c 2,20,-1
 520 240 l 2,21,22
 510 249 510 249 510 262 c 128,-1,23
 510 275 510 275 520 284 c 2,24,-1
 542 306 l 1,25,-1
 503 344 l 1,26,-1
 234 50 l 2,27,28
 216 32 216 32 190 32 c 128,-1,29
 164 32 164 32 145 50 c 2,30,-1
 123 73 l 2,31,32
 105 91 105 91 105 117 c 128,-1,33
 105 143 105 143 123 161 c 2,34,-1
 430 418 l 1,35,-1
 226 622 l 1,36,-1
 162 622 l 1,37,-1
 87 742 l 1,38,-1
 147 802 l 1,39,-1
 270 727 l 1,40,-1
 270 664 l 1,41,-1
 476 457 l 1,42,-1
 536 508 l 1,43,44
 492 568 492 568 497 643 c 128,-1,45
 502 718 502 718 556 772 c 0,46,47
 601 817 601 817 661.5 828 c 128,-1,48
 722 839 722 839 778 817 c 1,49,-1
 646 687 l 1,50,-1
 757 576 l 1,51,-1
 889 706 l 1,52,-1
 889 706 l 1,0,1
197 130 m 1,53,54
 188 139 188 139 175 139 c 128,-1,55
 162 139 162 139 152 130 c 0,56,57
 143 121 143 121 143 108 c 128,-1,58
 143 95 143 95 152 86 c 0,59,60
 162 76 162 76 175 76 c 128,-1,61
 188 76 188 76 197 86 c 0,62,63
 206 95 206 95 206 108 c 128,-1,64
 206 121 206 121 197 130 c 1,65,-1
 197 130 l 1,53,54
EndSplineSet
EndChar

StartChar: uniE633
Encoding: 58931 58931 56
Width: 1024
Flags: W
LayerCount: 4
Fore
SplineSet
512 853 m 1,0,1
 424 853 424 853 346.5 819.5 c 128,-1,2
 269 786 269 786 211 728 c 128,-1,3
 153 670 153 670 119 592.5 c 128,-1,4
 85 515 85 515 85 427 c 256,5,6
 85 339 85 339 119 261 c 128,-1,7
 153 183 153 183 211 125 c 128,-1,8
 269 67 269 67 346.5 33.5 c 128,-1,9
 424 0 424 0 512 0 c 256,10,11
 600 0 600 0 677.5 33.5 c 128,-1,12
 755 67 755 67 813 125 c 128,-1,13
 871 183 871 183 905 261 c 128,-1,14
 939 339 939 339 939 427 c 256,15,16
 939 515 939 515 905 592.5 c 128,-1,17
 871 670 871 670 813 728 c 128,-1,18
 755 786 755 786 677.5 819.5 c 128,-1,19
 600 853 600 853 512 853 c 1,20,-1
 512 853 l 1,0,1
171 427 m 1,21,22
 171 497 171 497 198 559 c 128,-1,23
 225 621 225 621 271 667.5 c 128,-1,24
 317 714 317 714 379.5 741 c 128,-1,25
 442 768 442 768 512 768 c 0,26,27
 571 768 571 768 624.5 748.5 c 128,-1,28
 678 729 678 729 721 695 c 1,29,-1
 243 218 l 1,30,31
 210 261 210 261 190.5 314 c 128,-1,32
 171 367 171 367 171 427 c 1,33,-1
 171 427 l 1,21,22
512 85 m 1,34,35
 453 85 453 85 399.5 104.5 c 128,-1,36
 346 124 346 124 303 158 c 1,37,-1
 781 636 l 1,38,39
 814 593 814 593 833.5 539.5 c 128,-1,40
 853 486 853 486 853 427 c 0,41,42
 853 356 853 356 826 294 c 128,-1,43
 799 232 799 232 753 185.5 c 128,-1,44
 707 139 707 139 644.5 112 c 128,-1,45
 582 85 582 85 512 85 c 1,46,-1
 512 85 l 1,34,35
EndSplineSet
EndChar

StartChar: uniE634
Encoding: 58932 58932 57
Width: 1024
Flags: W
LayerCount: 4
Fore
SplineSet
298 259 m 1,0,-1
 358 199 l 1,1,2
 388 229 388 229 427.5 246 c 128,-1,3
 467 263 467 263 512 263 c 256,4,5
 557 263 557 263 596.5 246 c 128,-1,6
 636 229 636 229 666 199 c 1,7,-1
 726 259 l 1,8,9
 685 301 685 301 630 324.5 c 128,-1,10
 575 348 575 348 512 348 c 256,11,12
 449 348 449 348 394 324.5 c 128,-1,13
 339 301 339 301 298 259 c 1,14,-1
 298 259 l 1,0,-1
160 397 m 1,15,-1
 221 337 l 1,16,17
 249 365 249 365 282 387 c 128,-1,18
 315 409 315 409 352 425 c 128,-1,19
 389 441 389 441 429 449.5 c 128,-1,20
 469 458 469 458 512 458 c 256,21,22
 555 458 555 458 595 449.5 c 128,-1,23
 635 441 635 441 672 425 c 128,-1,24
 709 409 709 409 742 387 c 128,-1,25
 775 365 775 365 803 337 c 1,26,-1
 864 397 l 1,27,28
 830 431 830 431 790 458 c 128,-1,29
 750 485 750 485 705.5 504 c 128,-1,30
 661 523 661 523 612.5 533 c 128,-1,31
 564 543 564 543 512 543 c 256,32,33
 460 543 460 543 411.5 533 c 128,-1,34
 363 523 363 523 318.5 504 c 128,-1,35
 274 485 274 485 234 458 c 128,-1,36
 194 431 194 431 160 397 c 1,37,-1
 160 397 l 1,15,-1
512 737 m 1,38,39
 440 737 440 737 372.5 723 c 128,-1,40
 305 709 305 709 243 683 c 128,-1,41
 181 657 181 657 125.5 619.5 c 128,-1,42
 70 582 70 582 23 535 c 1,43,-1
 83 474 l 1,44,45
 124 515 124 515 173 548 c 128,-1,46
 222 581 222 581 276.5 604 c 128,-1,47
 331 627 331 627 390 639.5 c 128,-1,48
 449 652 449 652 512 652 c 256,49,50
 575 652 575 652 634 639.5 c 128,-1,51
 693 627 693 627 747.5 604 c 128,-1,52
 802 581 802 581 851 548 c 128,-1,53
 900 515 900 515 941 474 c 1,54,-1
 1001 535 l 1,55,56
 954 582 954 582 898.5 619.5 c 128,-1,57
 843 657 843 657 781 683 c 128,-1,58
 719 709 719 709 651.5 723 c 128,-1,59
 584 737 584 737 512 737 c 1,60,-1
 512 737 l 1,38,39
512 171 m 1,61,62
 486 171 486 171 467 152 c 128,-1,63
 448 133 448 133 448 107 c 0,64,65
 448 80 448 80 467 61.5 c 128,-1,66
 486 43 486 43 512 43 c 256,67,68
 538 43 538 43 557 61.5 c 128,-1,69
 576 80 576 80 576 107 c 0,70,71
 576 133 576 133 557 152 c 128,-1,72
 538 171 538 171 512 171 c 1,73,-1
 512 171 l 1,61,62
EndSplineSet
EndChar

StartChar: uniE636
Encoding: 58934 58934 59
Width: 1024
Flags: W
LayerCount: 4
Fore
SplineSet
171 256 m 1,0,-1
 299 256 l 1,1,-1
 299 384 l 1,2,-1
 171 384 l 1,3,-1
 171 256 l 1,4,-1
 171 256 l 1,0,-1
213 341 m 1,5,-1
 256 341 l 1,6,-1
 256 299 l 1,7,-1
 213 299 l 1,8,-1
 213 341 l 1,9,-1
 213 341 l 1,5,-1
341 256 m 1,10,-1
 469 256 l 1,11,-1
 469 384 l 1,12,-1
 341 384 l 1,13,-1
 341 256 l 1,14,-1
 341 256 l 1,10,-1
384 341 m 1,15,-1
 427 341 l 1,16,-1
 427 299 l 1,17,-1
 384 299 l 1,18,-1
 384 341 l 1,19,-1
 384 341 l 1,15,-1
341 85 m 1,20,-1
 469 85 l 1,21,-1
 469 213 l 1,22,-1
 341 213 l 1,23,-1
 341 85 l 1,24,-1
 341 85 l 1,20,-1
384 171 m 1,25,-1
 427 171 l 1,26,-1
 427 128 l 1,27,-1
 384 128 l 1,28,-1
 384 171 l 1,29,-1
 384 171 l 1,25,-1
171 85 m 1,30,-1
 299 85 l 1,31,-1
 299 213 l 1,32,-1
 171 213 l 1,33,-1
 171 85 l 1,34,-1
 171 85 l 1,30,-1
213 171 m 1,35,-1
 256 171 l 1,36,-1
 256 128 l 1,37,-1
 213 128 l 1,38,-1
 213 171 l 1,39,-1
 213 171 l 1,35,-1
512 256 m 1,40,-1
 640 256 l 1,41,-1
 640 384 l 1,42,-1
 512 384 l 1,43,-1
 512 256 l 1,44,-1
 512 256 l 1,40,-1
555 341 m 1,45,-1
 597 341 l 1,46,-1
 597 299 l 1,47,-1
 555 299 l 1,48,-1
 555 341 l 1,49,-1
 555 341 l 1,45,-1
427 512 m 1,50,-1
 469 512 l 1,51,-1
 469 555 l 1,52,-1
 427 555 l 1,53,-1
 427 512 l 1,54,-1
 427 512 l 1,50,-1
341 512 m 1,55,-1
 384 512 l 1,56,-1
 384 555 l 1,57,-1
 341 555 l 1,58,-1
 341 512 l 1,59,-1
 341 512 l 1,55,-1
171 427 m 1,60,-1
 853 427 l 1,61,-1
 853 811 l 1,62,-1
 171 811 l 1,63,-1
 171 427 l 1,64,-1
 171 427 l 1,60,-1
213 768 m 1,65,-1
 811 768 l 1,66,-1
 811 469 l 1,67,-1
 213 469 l 1,68,-1
 213 768 l 1,69,-1
 213 768 l 1,65,-1
853 939 m 1,70,-1
 171 939 l 2,71,72
 118 939 118 939 80.5 901.5 c 128,-1,73
 43 864 43 864 43 811 c 2,74,-1
 43 43 l 2,75,76
 43 -10 43 -10 80.5 -47.5 c 128,-1,77
 118 -85 118 -85 171 -85 c 2,78,-1
 853 -85 l 2,79,80
 906 -85 906 -85 943.5 -47.5 c 128,-1,81
 981 -10 981 -10 981 43 c 2,82,-1
 981 811 l 2,83,84
 981 864 981 864 943.5 901.5 c 128,-1,85
 906 939 906 939 853 939 c 1,86,-1
 853 939 l 1,70,-1
896 43 m 1,87,88
 896 25 896 25 883.5 12.5 c 128,-1,89
 871 0 871 0 853 0 c 2,90,-1
 171 0 l 2,91,92
 153 0 153 0 140.5 12.5 c 128,-1,93
 128 25 128 25 128 43 c 2,94,-1
 128 811 l 2,95,96
 128 828 128 828 140.5 840.5 c 128,-1,97
 153 853 153 853 171 853 c 2,98,-1
 853 853 l 2,99,100
 871 853 871 853 883.5 840.5 c 128,-1,101
 896 828 896 828 896 811 c 2,102,-1
 896 43 l 1,103,-1
 896 43 l 1,87,88
512 85 m 1,104,-1
 640 85 l 1,105,-1
 640 213 l 1,106,-1
 512 213 l 1,107,-1
 512 85 l 1,108,-1
 512 85 l 1,104,-1
555 171 m 1,109,-1
 597 171 l 1,110,-1
 597 128 l 1,111,-1
 555 128 l 1,112,-1
 555 171 l 1,113,-1
 555 171 l 1,109,-1
683 85 m 1,114,-1
 853 85 l 1,115,-1
 853 384 l 1,116,-1
 683 384 l 1,117,-1
 683 85 l 1,118,-1
 683 85 l 1,114,-1
725 341 m 1,119,-1
 811 341 l 1,120,-1
 811 128 l 1,121,-1
 725 128 l 1,122,-1
 725 341 l 1,123,-1
 725 341 l 1,119,-1
256 512 m 1,124,-1
 299 512 l 1,125,-1
 299 555 l 1,126,-1
 256 555 l 1,127,-1
 256 512 l 1,128,-1
 256 512 l 1,124,-1
EndSplineSet
EndChar

StartChar: uniE637
Encoding: 58935 58935 60
Width: 1024
Flags: W
LayerCount: 4
Fore
SplineSet
929 555 m 1,0,1
 911 555 911 555 903.5 530 c 128,-1,2
 896 505 896 505 896 469 c 2,3,-1
 896 384 l 2,4,5
 896 349 896 349 903.5 324 c 128,-1,6
 911 299 911 299 929 299 c 0,7,8
 946 299 946 299 953.5 324 c 128,-1,9
 961 349 961 349 961 384 c 1,10,-1
 1024 384 l 1,11,-1
 1024 469 l 1,12,-1
 961 469 l 1,13,14
 961 505 961 505 953.5 530 c 128,-1,15
 946 555 946 555 929 555 c 1,16,-1
 929 555 l 1,0,1
768 683 m 1,17,18
 736 683 736 683 730.5 658 c 128,-1,19
 725 633 725 633 725 597 c 2,20,-1
 725 469 l 1,21,-1
 299 469 l 1,22,-1
 299 597 l 2,23,24
 299 633 299 633 293.5 658 c 128,-1,25
 288 683 288 683 256 683 c 0,26,27
 221 683 221 683 196 658 c 128,-1,28
 171 633 171 633 171 597 c 2,29,-1
 171 256 l 2,30,31
 171 221 171 221 196 196 c 128,-1,32
 221 171 221 171 256 171 c 0,33,34
 288 171 288 171 293.5 196 c 128,-1,35
 299 221 299 221 299 256 c 2,36,-1
 299 384 l 1,37,-1
 725 384 l 1,38,-1
 725 256 l 2,39,40
 725 221 725 221 730.5 196 c 128,-1,41
 736 171 736 171 768 171 c 0,42,43
 803 171 803 171 828 196 c 128,-1,44
 853 221 853 221 853 256 c 2,45,-1
 853 597 l 2,46,47
 853 633 853 633 828 658 c 128,-1,48
 803 683 803 683 768 683 c 1,49,-1
 768 683 l 1,17,18
95 555 m 1,50,51
 113 555 113 555 120.5 530 c 128,-1,52
 128 505 128 505 128 469 c 2,53,-1
 128 384 l 2,54,55
 128 349 128 349 120.5 324 c 128,-1,56
 113 299 113 299 95 299 c 0,57,58
 78 299 78 299 70.5 324 c 128,-1,59
 63 349 63 349 63 384 c 1,60,-1
 0 384 l 1,61,-1
 0 469 l 1,62,-1
 63 469 l 1,63,64
 63 505 63 505 70.5 530 c 128,-1,65
 78 555 78 555 95 555 c 1,66,-1
 95 555 l 1,50,51
EndSplineSet
EndChar

StartChar: uniE638
Encoding: 58936 58936 61
Width: 1024
Flags: W
LayerCount: 4
Fore
SplineSet
640 640 m 1,0,-1
 640 469 l 1,1,-1
 683 469 l 1,2,-1
 683 384 l 1,3,-1
 555 384 l 1,4,-1
 555 725 l 1,5,-1
 640 725 l 1,6,-1
 512 896 l 1,7,-1
 384 725 l 1,8,-1
 469 725 l 1,9,-1
 469 384 l 1,10,-1
 341 384 l 1,11,-1
 341 472 l 1,12,13
 364 484 364 484 378.5 505.5 c 128,-1,14
 393 527 393 527 393 555 c 0,15,16
 393 594 393 594 365.5 621.5 c 128,-1,17
 338 649 338 649 299 649 c 256,18,19
 260 649 260 649 232.5 621.5 c 128,-1,20
 205 594 205 594 205 555 c 0,21,22
 205 527 205 527 219 505.5 c 128,-1,23
 233 484 233 484 256 472 c 1,24,-1
 256 384 l 2,25,26
 256 349 256 349 281 324 c 128,-1,27
 306 299 306 299 341 299 c 2,28,-1
 469 299 l 1,29,-1
 469 169 l 1,30,31
 447 157 447 157 432.5 135 c 128,-1,32
 418 113 418 113 418 85 c 0,33,34
 418 46 418 46 445.5 18.5 c 128,-1,35
 473 -9 473 -9 512 -9 c 256,36,37
 551 -9 551 -9 578.5 18.5 c 128,-1,38
 606 46 606 46 606 85 c 0,39,40
 606 113 606 113 591.5 135 c 128,-1,41
 577 157 577 157 555 169 c 1,42,-1
 555 299 l 1,43,-1
 683 299 l 2,44,45
 718 299 718 299 743 324 c 128,-1,46
 768 349 768 349 768 384 c 2,47,-1
 768 469 l 1,48,-1
 811 469 l 1,49,-1
 811 640 l 1,50,-1
 640 640 l 1,51,-1
 640 640 l 1,0,-1
EndSplineSet
EndChar

StartChar: uniE639
Encoding: 58937 58937 62
Width: 1024
Flags: W
LayerCount: 4
Fore
SplineSet
503 474 m 1,0,1
 431 492 431 492 403 513.5 c 128,-1,2
 375 535 375 535 375 565 c 0,3,4
 375 600 375 600 405.5 622 c 128,-1,5
 436 644 436 644 491 644 c 0,6,7
 548 644 548 644 571.5 619.5 c 128,-1,8
 595 595 595 595 597 555 c 1,9,-1
 692 555 l 1,10,11
 690 610 690 610 656 655.5 c 128,-1,12
 622 701 622 701 555 717 c 1,13,-1
 555 811 l 1,14,-1
 427 811 l 1,15,-1
 427 719 l 1,16,17
 365 705 365 705 321 665.5 c 128,-1,18
 277 626 277 626 277 564 c 0,19,20
 277 491 277 491 333 450.5 c 128,-1,21
 389 410 389 410 478 388 c 0,22,23
 558 369 558 369 582 342 c 128,-1,24
 606 315 606 315 606 285 c 0,25,26
 606 263 606 263 584 236 c 128,-1,27
 562 209 562 209 491 209 c 0,28,29
 425 209 425 209 396 235 c 128,-1,30
 367 261 367 261 364 299 c 1,31,-1
 269 299 l 1,32,33
 273 229 273 229 319 189 c 128,-1,34
 365 149 365 149 427 135 c 1,35,-1
 427 43 l 1,36,-1
 555 43 l 1,37,-1
 555 134 l 1,38,39
 617 146 617 146 660.5 183 c 128,-1,40
 704 220 704 220 704 286 c 0,41,42
 704 377 704 377 640 416 c 128,-1,43
 576 455 576 455 503 474 c 1,44,-1
 503 474 l 1,0,1
EndSplineSet
EndChar

StartChar: uniE63A
Encoding: 58938 58938 63
Width: 1024
Flags: W
LayerCount: 4
Fore
SplineSet
683 384 m 1,0,-1
 555 384 l 1,1,-1
 555 811 l 1,2,-1
 469 811 l 1,3,-1
 469 384 l 1,4,-1
 341 384 l 1,5,-1
 512 213 l 1,6,-1
 683 384 l 1,7,-1
 683 384 l 1,0,-1
171 128 m 1,8,-1
 171 43 l 1,9,-1
 853 43 l 1,10,-1
 853 128 l 1,11,-1
 171 128 l 1,12,-1
 171 128 l 1,8,-1
EndSplineSet
EndChar

StartChar: uniE63B
Encoding: 58939 58939 64
Width: 1024
Flags: W
LayerCount: 4
Fore
SplineSet
341 128 m 1,0,-1
 469 128 l 1,1,-1
 469 -43 l 1,2,-1
 555 -43 l 1,3,-1
 555 128 l 1,4,-1
 683 128 l 1,5,-1
 512 299 l 1,6,-1
 341 128 l 1,7,-1
 341 128 l 1,0,-1
683 725 m 1,8,-1
 555 725 l 1,9,-1
 555 896 l 1,10,-1
 469 896 l 1,11,-1
 469 725 l 1,12,-1
 341 725 l 1,13,-1
 512 555 l 1,14,-1
 683 725 l 1,15,-1
 683 725 l 1,8,-1
171 469 m 1,16,-1
 171 384 l 1,17,-1
 853 384 l 1,18,-1
 853 469 l 1,19,-1
 171 469 l 1,20,-1
 171 469 l 1,16,-1
EndSplineSet
EndChar

StartChar: uniE63C
Encoding: 58940 58940 65
Width: 1024
Flags: W
LayerCount: 4
Fore
SplineSet
341 469 m 1,0,-1
 469 469 l 1,1,-1
 469 43 l 1,2,-1
 555 43 l 1,3,-1
 555 469 l 1,4,-1
 683 469 l 1,5,-1
 512 640 l 1,6,-1
 341 469 l 1,7,-1
 341 469 l 1,0,-1
171 811 m 1,8,-1
 171 725 l 1,9,-1
 853 725 l 1,10,-1
 853 811 l 1,11,-1
 171 811 l 1,12,-1
 171 811 l 1,8,-1
EndSplineSet
EndChar

StartChar: uniE63D
Encoding: 58941 58941 66
Width: 1024
Flags: W
LayerCount: 4
Fore
SplineSet
811 555 m 1,0,-1
 640 555 l 1,1,-1
 640 811 l 1,2,-1
 384 811 l 1,3,-1
 384 555 l 1,4,-1
 213 555 l 1,5,-1
 512 256 l 1,6,-1
 811 555 l 1,7,-1
 811 555 l 1,0,-1
213 171 m 1,8,-1
 213 85 l 1,9,-1
 811 85 l 1,10,-1
 811 171 l 1,11,-1
 213 171 l 1,12,-1
 213 171 l 1,8,-1
EndSplineSet
EndChar

StartChar: uniE63E
Encoding: 58942 58942 67
Width: 1024
Flags: W
LayerCount: 4
Fore
SplineSet
384 256 m 1,0,-1
 640 256 l 1,1,-1
 640 512 l 1,2,-1
 811 512 l 1,3,-1
 512 811 l 1,4,-1
 213 512 l 1,5,-1
 384 512 l 1,6,-1
 384 256 l 1,0,-1
213 171 m 1,7,-1
 811 171 l 1,8,-1
 811 85 l 1,9,-1
 213 85 l 1,10,-1
 213 171 l 1,7,-1
EndSplineSet
EndChar

StartChar: uniE63F
Encoding: 58943 58943 68
Width: 1024
Flags: W
LayerCount: 4
Fore
SplineSet
811 640 m 1,0,-1
 811 469 l 1,1,-1
 249 469 l 1,2,-1
 402 622 l 1,3,-1
 341 683 l 1,4,-1
 85 427 l 1,5,-1
 341 171 l 1,6,-1
 402 231 l 1,7,-1
 249 384 l 1,8,-1
 896 384 l 1,9,-1
 896 640 l 1,10,-1
 811 640 l 1,0,-1
EndSplineSet
EndChar

StartChar: uniE640
Encoding: 58944 58944 69
Width: 1024
Flags: W
LayerCount: 4
Fore
SplineSet
512 299 m 1,0,1
 565 299 565 299 602.5 336.5 c 128,-1,2
 640 374 640 374 640 427 c 2,3,-1
 640 683 l 2,4,5
 640 736 640 736 602.5 773.5 c 128,-1,6
 565 811 565 811 512 811 c 256,7,8
 459 811 459 811 421.5 773.5 c 128,-1,9
 384 736 384 736 384 683 c 2,10,-1
 384 427 l 2,11,12
 384 374 384 374 421.5 336.5 c 128,-1,13
 459 299 459 299 512 299 c 1,14,-1
 512 299 l 1,0,1
738 427 m 1,15,16
 738 379 738 379 719.5 339 c 128,-1,17
 701 299 701 299 669.5 270 c 128,-1,18
 638 241 638 241 597 225 c 128,-1,19
 556 209 556 209 512 209 c 256,20,21
 468 209 468 209 427 225 c 128,-1,22
 386 241 386 241 354.5 270 c 128,-1,23
 323 299 323 299 304.5 339 c 128,-1,24
 286 379 286 379 286 427 c 1,25,-1
 213 427 l 1,26,27
 213 372 213 372 233.5 323.5 c 128,-1,28
 254 275 254 275 289 236.5 c 128,-1,29
 324 198 324 198 370.5 173 c 128,-1,30
 417 148 417 148 469 140 c 1,31,-1
 469 0 l 1,32,-1
 555 0 l 1,33,-1
 555 140 l 1,34,35
 607 148 607 148 653.5 173 c 128,-1,36
 700 198 700 198 735 236.5 c 128,-1,37
 770 275 770 275 790.5 323.5 c 128,-1,38
 811 372 811 372 811 427 c 1,39,-1
 738 427 l 1,40,-1
 738 427 l 1,15,16
EndSplineSet
EndChar

StartChar: uniE641
Encoding: 58945 58945 70
Width: 1024
Flags: W
LayerCount: 4
Fore
SplineSet
171 683 m 1,0,-1
 939 683 l 1,1,-1
 939 768 l 1,2,-1
 171 768 l 2,3,4
 135 768 135 768 110 743 c 128,-1,5
 85 718 85 718 85 683 c 2,6,-1
 85 213 l 1,7,-1
 0 213 l 1,8,-1
 0 85 l 1,9,-1
 597 85 l 1,10,-1
 597 213 l 1,11,-1
 171 213 l 1,12,-1
 171 683 l 1,13,-1
 171 683 l 1,0,-1
981 597 m 1,14,-1
 725 597 l 2,15,16
 708 597 708 597 695.5 584.5 c 128,-1,17
 683 572 683 572 683 555 c 2,18,-1
 683 128 l 2,19,20
 683 110 683 110 695.5 97.5 c 128,-1,21
 708 85 708 85 725 85 c 2,22,-1
 981 85 l 2,23,24
 999 85 999 85 1011.5 97.5 c 128,-1,25
 1024 110 1024 110 1024 128 c 2,26,-1
 1024 555 l 2,27,28
 1024 572 1024 572 1011.5 584.5 c 128,-1,29
 999 597 999 597 981 597 c 1,30,-1
 981 597 l 1,14,-1
939 213 m 1,31,-1
 768 213 l 1,32,-1
 768 512 l 1,33,-1
 939 512 l 1,34,-1
 939 213 l 1,35,-1
 939 213 l 1,31,-1
EndSplineSet
EndChar

StartChar: uniE642
Encoding: 58946 58946 71
Width: 1024
Flags: W
LayerCount: 4
Fore
SplineSet
939 683 m 1,0,-1
 939 768 l 1,1,-1
 291 768 l 1,2,-1
 376 683 l 1,3,-1
 939 683 l 1,4,-1
 939 683 l 1,0,-1
82 868 m 1,5,-1
 28 814 l 1,6,-1
 105 737 l 1,7,8
 96 726 96 726 90.5 712 c 128,-1,9
 85 698 85 698 85 683 c 2,10,-1
 85 213 l 1,11,-1
 0 213 l 1,12,-1
 0 85 l 1,13,-1
 756 85 l 1,14,-1
 857 -15 l 1,15,-1
 911 39 l 1,16,-1
 82 868 l 1,17,-1
 82 868 l 1,5,-1
171 671 m 1,18,-1
 628 213 l 1,19,-1
 171 213 l 1,20,-1
 171 671 l 1,21,-1
 171 671 l 1,18,-1
981 597 m 1,22,-1
 725 597 l 2,23,24
 708 597 708 597 695.5 584.5 c 128,-1,25
 683 572 683 572 683 555 c 2,26,-1
 683 376 l 1,27,-1
 768 291 l 1,28,-1
 768 512 l 1,29,-1
 939 512 l 1,30,-1
 939 213 l 1,31,-1
 846 213 l 1,32,-1
 974 85 l 1,33,-1
 981 85 l 2,34,35
 999 85 999 85 1011.5 97.5 c 128,-1,36
 1024 110 1024 110 1024 128 c 2,37,-1
 1024 555 l 2,38,39
 1024 572 1024 572 1011.5 584.5 c 128,-1,40
 999 597 999 597 981 597 c 1,41,-1
 981 597 l 1,22,-1
EndSplineSet
EndChar

StartChar: uniE643
Encoding: 58947 58947 72
Width: 1024
Flags: W
LayerCount: 4
Fore
SplineSet
512 512 m 1,0,1
 450 512 450 512 395.5 488.5 c 128,-1,2
 341 465 341 465 300.5 424.5 c 128,-1,3
 260 384 260 384 236.5 329.5 c 128,-1,4
 213 275 213 275 213 213 c 1,5,-1
 299 213 l 1,6,7
 299 257 299 257 315.5 296 c 128,-1,8
 332 335 332 335 361 364 c 128,-1,9
 390 393 390 393 429 410 c 128,-1,10
 468 427 468 427 512 427 c 256,11,12
 556 427 556 427 595 410 c 128,-1,13
 634 393 634 393 663 364 c 128,-1,14
 692 335 692 335 708.5 296 c 128,-1,15
 725 257 725 257 725 213 c 1,16,-1
 811 213 l 1,17,18
 811 275 811 275 787.5 329.5 c 128,-1,19
 764 384 764 384 723.5 424.5 c 128,-1,20
 683 465 683 465 628.5 488.5 c 128,-1,21
 574 512 574 512 512 512 c 1,22,-1
 512 512 l 1,0,1
512 683 m 1,23,24
 415 683 415 683 329.5 646 c 128,-1,25
 244 609 244 609 180.5 545 c 128,-1,26
 117 481 117 481 80 395.5 c 128,-1,27
 43 310 43 310 43 213 c 1,28,-1
 128 213 l 1,29,30
 128 293 128 293 158 363 c 128,-1,31
 188 433 188 433 240.5 485 c 128,-1,32
 293 537 293 537 363 567 c 128,-1,33
 433 597 433 597 512 597 c 256,34,35
 591 597 591 597 661 567 c 128,-1,36
 731 537 731 537 783.5 485 c 128,-1,37
 836 433 836 433 866 363 c 128,-1,38
 896 293 896 293 896 213 c 1,39,-1
 981 213 l 1,40,41
 981 310 981 310 944 395.5 c 128,-1,42
 907 481 907 481 843.5 545 c 128,-1,43
 780 609 780 609 694.5 646 c 128,-1,44
 609 683 609 683 512 683 c 1,45,-1
 512 683 l 1,23,24
EndSplineSet
EndChar

StartChar: uniE644
Encoding: 58948 58948 73
Width: 1024
Flags: W
LayerCount: 4
Fore
SplineSet
512 148 m 1,0,-1
 197 392 l 1,1,-1
 128 339 l 1,2,-1
 512 40 l 1,3,-1
 896 339 l 1,4,-1
 826 393 l 1,5,-1
 512 148 l 1,6,-1
 512 148 l 1,0,-1
512 256 m 1,7,-1
 896 555 l 1,8,-1
 512 853 l 1,9,-1
 128 555 l 1,10,-1
 198 501 l 1,11,-1
 512 256 l 1,12,-1
 512 256 l 1,7,-1
EndSplineSet
EndChar

StartChar: uniE645
Encoding: 58949 58949 74
Width: 1024
Flags: W
LayerCount: 4
Fore
SplineSet
896 256 m 1,0,-1
 896 341 l 1,1,-1
 555 555 l 1,2,-1
 555 789 l 2,3,4
 555 816 555 816 536 834.5 c 128,-1,5
 517 853 517 853 491 853 c 0,6,7
 464 853 464 853 445.5 834.5 c 128,-1,8
 427 816 427 816 427 789 c 2,9,-1
 427 555 l 1,10,-1
 85 341 l 1,11,-1
 85 256 l 1,12,-1
 427 363 l 1,13,-1
 427 128 l 1,14,-1
 341 64 l 1,15,-1
 341 0 l 1,16,-1
 491 43 l 1,17,-1
 640 0 l 1,18,-1
 640 64 l 1,19,-1
 555 128 l 1,20,-1
 555 363 l 1,21,-1
 896 256 l 1,22,-1
 896 256 l 1,0,-1
EndSplineSet
EndChar

StartChar: uniE646
Encoding: 58950 58950 75
Width: 1024
Flags: W
LayerCount: 4
Fore
SplineSet
299 384 m 1,0,1
 352 384 352 384 389.5 421.5 c 128,-1,2
 427 459 427 459 427 512 c 256,3,4
 427 565 427 565 389.5 602.5 c 128,-1,5
 352 640 352 640 299 640 c 256,6,7
 246 640 246 640 208.5 602.5 c 128,-1,8
 171 565 171 565 171 512 c 256,9,10
 171 459 171 459 208.5 421.5 c 128,-1,11
 246 384 246 384 299 384 c 1,12,-1
 299 384 l 1,0,1
811 640 m 1,13,-1
 469 640 l 1,14,-1
 469 341 l 1,15,-1
 128 341 l 1,16,-1
 128 725 l 1,17,-1
 43 725 l 1,18,-1
 43 85 l 1,19,-1
 128 85 l 1,20,-1
 128 213 l 1,21,-1
 896 213 l 1,22,-1
 896 85 l 1,23,-1
 981 85 l 1,24,-1
 981 469 l 2,25,26
 981 540 981 540 931 590 c 128,-1,27
 881 640 881 640 811 640 c 1,28,-1
 811 640 l 1,13,-1
EndSplineSet
EndChar

StartChar: uniE647
Encoding: 58951 58951 76
Width: 1024
Flags: W
LayerCount: 4
Fore
SplineSet
171 597 m 1,0,-1
 341 597 l 1,1,-1
 341 768 l 1,2,-1
 171 768 l 1,3,-1
 171 597 l 1,4,-1
 171 597 l 1,0,-1
427 85 m 1,5,-1
 597 85 l 1,6,-1
 597 256 l 1,7,-1
 427 256 l 1,8,-1
 427 85 l 1,9,-1
 427 85 l 1,5,-1
171 85 m 1,10,-1
 341 85 l 1,11,-1
 341 256 l 1,12,-1
 171 256 l 1,13,-1
 171 85 l 1,14,-1
 171 85 l 1,10,-1
171 341 m 1,15,-1
 341 341 l 1,16,-1
 341 512 l 1,17,-1
 171 512 l 1,18,-1
 171 341 l 1,19,-1
 171 341 l 1,15,-1
427 341 m 1,20,-1
 597 341 l 1,21,-1
 597 512 l 1,22,-1
 427 512 l 1,23,-1
 427 341 l 1,24,-1
 427 341 l 1,20,-1
683 768 m 1,25,-1
 683 597 l 1,26,-1
 853 597 l 1,27,-1
 853 768 l 1,28,-1
 683 768 l 1,29,-1
 683 768 l 1,25,-1
427 597 m 1,30,-1
 597 597 l 1,31,-1
 597 768 l 1,32,-1
 427 768 l 1,33,-1
 427 597 l 1,34,-1
 427 597 l 1,30,-1
683 341 m 1,35,-1
 853 341 l 1,36,-1
 853 512 l 1,37,-1
 683 512 l 1,38,-1
 683 341 l 1,39,-1
 683 341 l 1,35,-1
683 85 m 1,40,-1
 853 85 l 1,41,-1
 853 256 l 1,42,-1
 683 256 l 1,43,-1
 683 85 l 1,44,-1
 683 85 l 1,40,-1
EndSplineSet
EndChar

StartChar: uniE648
Encoding: 58952 58952 77
Width: 1024
Flags: W
LayerCount: 4
Fore
SplineSet
658 622 m 1,0,-1
 597 683 l 1,1,-1
 341 427 l 1,2,-1
 597 171 l 1,3,-1
 658 231 l 1,4,-1
 462 427 l 1,5,-1
 658 622 l 1,0,-1
EndSplineSet
EndChar

StartChar: uniE649
Encoding: 58953 58953 78
Width: 1024
Flags: W
LayerCount: 4
Fore
SplineSet
427 683 m 1,0,-1
 366 622 l 1,1,-1
 562 427 l 1,2,-1
 366 231 l 1,3,-1
 427 171 l 1,4,-1
 683 427 l 1,5,-1
 427 683 l 1,0,-1
EndSplineSet
EndChar

StartChar: uniE64A
Encoding: 58954 58954 79
Width: 1024
Flags: W
LayerCount: 4
Fore
SplineSet
512 597 m 1,0,-1
 256 341 l 1,1,-1
 316 281 l 1,2,-1
 512 477 l 1,3,-1
 708 281 l 1,4,-1
 768 341 l 1,5,-1
 512 597 l 1,0,-1
EndSplineSet
EndChar

StartChar: uniE64B
Encoding: 58955 58955 80
Width: 1024
Flags: W
LayerCount: 4
Fore
SplineSet
708 572 m 1,0,-1
 512 377 l 1,1,-1
 316 572 l 1,2,-1
 256 512 l 1,3,-1
 512 256 l 1,4,-1
 768 512 l 1,5,-1
 708 572 l 1,0,-1
EndSplineSet
EndChar

StartChar: uniE64C
Encoding: 58956 58956 81
Width: 1024
Flags: W
LayerCount: 4
Fore
SplineSet
128 171 m 1,0,-1
 896 171 l 1,1,-1
 896 256 l 1,2,-1
 128 256 l 1,3,-1
 128 171 l 1,4,-1
 128 171 l 1,0,-1
128 384 m 1,5,-1
 896 384 l 1,6,-1
 896 469 l 1,7,-1
 128 469 l 1,8,-1
 128 384 l 1,9,-1
 128 384 l 1,5,-1
128 683 m 1,10,-1
 128 597 l 1,11,-1
 896 597 l 1,12,-1
 896 683 l 1,13,-1
 128 683 l 1,14,-1
 128 683 l 1,10,-1
EndSplineSet
EndChar

StartChar: uniE64D
Encoding: 58957 58957 82
Width: 1024
Flags: W
LayerCount: 4
Fore
SplineSet
256 512 m 1,0,1
 221 512 221 512 196 487 c 128,-1,2
 171 462 171 462 171 427 c 0,3,4
 171 391 171 391 196 366 c 128,-1,5
 221 341 221 341 256 341 c 256,6,7
 291 341 291 341 316 366 c 128,-1,8
 341 391 341 391 341 427 c 0,9,10
 341 462 341 462 316 487 c 128,-1,11
 291 512 291 512 256 512 c 1,12,-1
 256 512 l 1,0,1
768 512 m 1,13,14
 733 512 733 512 708 487 c 128,-1,15
 683 462 683 462 683 427 c 0,16,17
 683 391 683 391 708 366 c 128,-1,18
 733 341 733 341 768 341 c 256,19,20
 803 341 803 341 828 366 c 128,-1,21
 853 391 853 391 853 427 c 0,22,23
 853 462 853 462 828 487 c 128,-1,24
 803 512 803 512 768 512 c 1,25,-1
 768 512 l 1,13,14
512 512 m 1,26,27
 477 512 477 512 452 487 c 128,-1,28
 427 462 427 462 427 427 c 0,29,30
 427 391 427 391 452 366 c 128,-1,31
 477 341 477 341 512 341 c 256,32,33
 547 341 547 341 572 366 c 128,-1,34
 597 391 597 391 597 427 c 0,35,36
 597 462 597 462 572 487 c 128,-1,37
 547 512 547 512 512 512 c 1,38,-1
 512 512 l 1,26,27
EndSplineSet
EndChar

StartChar: uniE64E
Encoding: 58958 58958 83
Width: 1024
Flags: W
LayerCount: 4
Fore
SplineSet
512 597 m 1,0,1
 547 597 547 597 572 622 c 128,-1,2
 597 647 597 647 597 683 c 0,3,4
 597 718 597 718 572 743 c 128,-1,5
 547 768 547 768 512 768 c 256,6,7
 477 768 477 768 452 743 c 128,-1,8
 427 718 427 718 427 683 c 0,9,10
 427 647 427 647 452 622 c 128,-1,11
 477 597 477 597 512 597 c 1,12,-1
 512 597 l 1,0,1
512 512 m 1,13,14
 477 512 477 512 452 487 c 128,-1,15
 427 462 427 462 427 427 c 0,16,17
 427 391 427 391 452 366 c 128,-1,18
 477 341 477 341 512 341 c 256,19,20
 547 341 547 341 572 366 c 128,-1,21
 597 391 597 391 597 427 c 0,22,23
 597 462 597 462 572 487 c 128,-1,24
 547 512 547 512 512 512 c 1,25,-1
 512 512 l 1,13,14
512 256 m 1,26,27
 477 256 477 256 452 231 c 128,-1,28
 427 206 427 206 427 171 c 0,29,30
 427 135 427 135 452 110 c 128,-1,31
 477 85 477 85 512 85 c 256,32,33
 547 85 547 85 572 110 c 128,-1,34
 597 135 597 135 597 171 c 0,35,36
 597 206 597 206 572 231 c 128,-1,37
 547 256 547 256 512 256 c 1,38,-1
 512 256 l 1,26,27
EndSplineSet
EndChar

StartChar: uniE64F
Encoding: 58959 58959 84
Width: 1024
Flags: W
LayerCount: 4
Fore
SplineSet
316 146 m 1,0,-1
 377 85 l 1,1,-1
 512 221 l 1,2,-1
 647 85 l 1,3,-1
 708 146 l 1,4,-1
 512 341 l 1,5,-1
 316 146 l 1,6,-1
 316 146 l 1,0,-1
708 708 m 1,7,-1
 647 768 l 1,8,-1
 512 633 l 1,9,-1
 377 768 l 1,10,-1
 316 708 l 1,11,-1
 512 512 l 1,12,-1
 708 708 l 1,13,-1
 708 708 l 1,7,-1
EndSplineSet
EndChar

StartChar: uniE650
Encoding: 58960 58960 85
Width: 1024
Flags: W
LayerCount: 4
Fore
SplineSet
512 690 m 1,0,-1
 647 555 l 1,1,-1
 708 615 l 1,2,-1
 512 811 l 1,3,-1
 316 615 l 1,4,-1
 377 555 l 1,5,-1
 512 690 l 1,6,-1
 512 690 l 1,0,-1
512 163 m 1,7,-1
 377 299 l 1,8,-1
 316 238 l 1,9,-1
 512 43 l 1,10,-1
 708 238 l 1,11,-1
 647 299 l 1,12,-1
 512 163 l 1,13,-1
 512 163 l 1,7,-1
EndSplineSet
EndChar

StartChar: uniE651
Encoding: 58961 58961 86
Width: 1024
Flags: W
LayerCount: 4
Fore
SplineSet
608 426 m 1,0,-1
 707 327 l 1,1,2
 716 350 716 350 720.5 375 c 128,-1,3
 725 400 725 400 725 427 c 0,4,5
 725 453 725 453 720.5 477.5 c 128,-1,6
 716 502 716 502 707 525 c 1,7,-1
 608 426 l 1,8,-1
 608 426 l 1,0,-1
833 652 m 1,9,-1
 779 598 l 1,10,11
 799 560 799 560 810 516.5 c 128,-1,12
 821 473 821 473 821 426 c 0,13,14
 821 380 821 380 810 336.5 c 128,-1,15
 799 293 799 293 779 255 c 1,16,-1
 831 204 l 1,17,18
 861 253 861 253 878.5 310.5 c 128,-1,19
 896 368 896 368 896 430 c 0,20,21
 896 491 896 491 879.5 547.5 c 128,-1,22
 863 604 863 604 833 652 c 1,23,-1
 833 652 l 1,9,-1
670 610 m 1,24,-1
 427 853 l 1,25,-1
 384 853 l 1,26,-1
 384 530 l 1,27,-1
 188 725 l 1,28,-1
 128 665 l 1,29,-1
 366 427 l 1,30,-1
 128 188 l 1,31,-1
 188 128 l 1,32,-1
 384 324 l 1,33,-1
 384 0 l 1,34,-1
 427 0 l 1,35,-1
 670 243 l 1,36,-1
 487 427 l 1,37,-1
 670 610 l 1,38,-1
 670 610 l 1,24,-1
469 690 m 1,39,-1
 550 610 l 1,40,-1
 469 530 l 1,41,-1
 469 690 l 1,42,-1
 469 690 l 1,39,-1
550 243 m 1,43,-1
 469 163 l 1,44,-1
 469 324 l 1,45,-1
 550 243 l 1,46,-1
 550 243 l 1,43,-1
EndSplineSet
EndChar

StartChar: uniE652
Encoding: 58962 58962 87
Width: 1024
Flags: W
LayerCount: 4
Fore
SplineSet
807 725 m 1,0,1
 801 744 801 744 784.5 756 c 128,-1,2
 768 768 768 768 747 768 c 2,3,-1
 277 768 l 2,4,5
 256 768 256 768 239.5 756 c 128,-1,6
 223 744 223 744 217 725 c 2,7,-1
 128 469 l 1,8,-1
 128 128 l 2,9,10
 128 110 128 110 140.5 97.5 c 128,-1,11
 153 85 153 85 171 85 c 2,12,-1
 213 85 l 2,13,14
 231 85 231 85 243.5 97.5 c 128,-1,15
 256 110 256 110 256 128 c 2,16,-1
 256 171 l 1,17,-1
 768 171 l 1,18,-1
 768 128 l 2,19,20
 768 110 768 110 780.5 97.5 c 128,-1,21
 793 85 793 85 811 85 c 2,22,-1
 853 85 l 2,23,24
 871 85 871 85 883.5 97.5 c 128,-1,25
 896 110 896 110 896 128 c 2,26,-1
 896 469 l 1,27,-1
 807 725 l 1,28,-1
 807 725 l 1,0,1
277 299 m 1,29,30
 251 299 251 299 232 317.5 c 128,-1,31
 213 336 213 336 213 363 c 0,32,33
 213 389 213 389 232 408 c 128,-1,34
 251 427 251 427 277 427 c 0,35,36
 304 427 304 427 322.5 408 c 128,-1,37
 341 389 341 389 341 363 c 0,38,39
 341 336 341 336 322.5 317.5 c 128,-1,40
 304 299 304 299 277 299 c 1,41,-1
 277 299 l 1,29,30
747 299 m 1,42,43
 720 299 720 299 701.5 317.5 c 128,-1,44
 683 336 683 336 683 363 c 0,45,46
 683 389 683 389 701.5 408 c 128,-1,47
 720 427 720 427 747 427 c 0,48,49
 773 427 773 427 792 408 c 128,-1,50
 811 389 811 389 811 363 c 0,51,52
 811 336 811 336 792 317.5 c 128,-1,53
 773 299 773 299 747 299 c 1,54,-1
 747 299 l 1,42,43
213 512 m 1,55,-1
 277 704 l 1,56,-1
 747 704 l 1,57,-1
 811 512 l 1,58,-1
 213 512 l 1,59,-1
 213 512 l 1,55,-1
EndSplineSet
EndChar

StartChar: uniE653
Encoding: 58963 58963 88
Width: 1024
Flags: W
LayerCount: 4
Fore
SplineSet
705 467 m 1,0,-1
 660 512 l 1,1,-1
 452 304 l 1,2,-1
 361 394 l 1,3,-1
 316 349 l 1,4,-1
 452 213 l 1,5,-1
 705 467 l 1,6,-1
 705 467 l 1,0,-1
811 811 m 1,7,-1
 768 811 l 1,8,-1
 768 896 l 1,9,-1
 683 896 l 1,10,-1
 683 811 l 1,11,-1
 341 811 l 1,12,-1
 341 896 l 1,13,-1
 256 896 l 1,14,-1
 256 811 l 1,15,-1
 213 811 l 2,16,17
 178 811 178 811 153 786 c 128,-1,18
 128 761 128 761 128 725 c 2,19,-1
 128 128 l 2,20,21
 128 93 128 93 153 68 c 128,-1,22
 178 43 178 43 213 43 c 2,23,-1
 811 43 l 2,24,25
 846 43 846 43 871 68 c 128,-1,26
 896 93 896 93 896 128 c 2,27,-1
 896 725 l 2,28,29
 896 761 896 761 871 786 c 128,-1,30
 846 811 846 811 811 811 c 1,31,-1
 811 811 l 1,7,-1
811 128 m 1,32,-1
 213 128 l 1,33,-1
 213 597 l 1,34,-1
 811 597 l 1,35,-1
 811 128 l 1,36,-1
 811 128 l 1,32,-1
EndSplineSet
EndChar

StartChar: uniE654
Encoding: 58964 58964 89
Width: 1024
Flags: W
LayerCount: 4
Fore
SplineSet
397 213 m 1,0,-1
 501 317 l 1,1,-1
 605 213 l 1,2,-1
 651 259 l 1,3,-1
 547 363 l 1,4,-1
 651 467 l 1,5,-1
 605 512 l 1,6,-1
 501 408 l 1,7,-1
 397 512 l 1,8,-1
 352 467 l 1,9,-1
 456 363 l 1,10,-1
 352 259 l 1,11,-1
 397 213 l 1,12,-1
 397 213 l 1,0,-1
811 811 m 1,13,-1
 768 811 l 1,14,-1
 768 896 l 1,15,-1
 683 896 l 1,16,-1
 683 811 l 1,17,-1
 341 811 l 1,18,-1
 341 896 l 1,19,-1
 256 896 l 1,20,-1
 256 811 l 1,21,-1
 213 811 l 2,22,23
 178 811 178 811 153 786 c 128,-1,24
 128 761 128 761 128 725 c 2,25,-1
 128 128 l 2,26,27
 128 93 128 93 153 68 c 128,-1,28
 178 43 178 43 213 43 c 2,29,-1
 811 43 l 2,30,31
 846 43 846 43 871 68 c 128,-1,32
 896 93 896 93 896 128 c 2,33,-1
 896 725 l 2,34,35
 896 761 896 761 871 786 c 128,-1,36
 846 811 846 811 811 811 c 1,37,-1
 811 811 l 1,13,-1
811 128 m 1,38,-1
 213 128 l 1,39,-1
 213 597 l 1,40,-1
 811 597 l 1,41,-1
 811 128 l 1,42,-1
 811 128 l 1,38,-1
EndSplineSet
EndChar

StartChar: uniE655
Encoding: 58965 58965 90
Width: 1024
Flags: W
LayerCount: 4
Fore
SplineSet
853 683 m 1,0,-1
 512 683 l 1,1,-1
 427 768 l 1,2,-1
 171 768 l 2,3,4
 135 768 135 768 110 743 c 128,-1,5
 85 718 85 718 85 683 c 2,6,-1
 85 171 l 2,7,8
 85 135 85 135 110 110 c 128,-1,9
 135 85 135 85 171 85 c 2,10,-1
 853 85 l 2,11,12
 889 85 889 85 914 110 c 128,-1,13
 939 135 939 135 939 171 c 2,14,-1
 939 597 l 2,15,16
 939 633 939 633 914 658 c 128,-1,17
 889 683 889 683 853 683 c 1,18,-1
 853 683 l 1,0,-1
579 171 m 1,19,-1
 427 260 l 1,20,-1
 274 171 l 1,21,-1
 314 344 l 1,22,-1
 179 461 l 1,23,-1
 357 476 l 1,24,-1
 427 640 l 1,25,-1
 496 476 l 1,26,-1
 674 461 l 1,27,-1
 539 344 l 1,28,-1
 579 171 l 1,29,-1
 579 171 l 1,19,-1
EndSplineSet
EndChar

StartChar: uniE656
Encoding: 58966 58966 91
Width: 1024
Flags: W
LayerCount: 4
Fore
SplineSet
981 0 m 1,0,-1
 896 0 l 1,1,-1
 896 43 l 1,2,-1
 853 43 l 1,3,-1
 853 0 l 1,4,-1
 768 0 l 1,5,-1
 768 43 l 1,6,-1
 725 43 l 1,7,-1
 725 0 l 1,8,-1
 640 0 l 1,9,-1
 640 43 l 1,10,-1
 597 43 l 1,11,-1
 597 0 l 1,12,-1
 512 0 l 1,13,-1
 512 43 l 1,14,-1
 469 43 l 1,15,-1
 469 0 l 1,16,-1
 384 0 l 1,17,-1
 384 43 l 1,18,-1
 341 43 l 1,19,-1
 341 0 l 1,20,-1
 154 0 l 1,21,-1
 378 135 l 1,22,-1
 490 460 l 1,23,-1
 655 170 l 1,24,-1
 975 703 l 1,25,-1
 902 747 l 1,26,-1
 657 339 l 1,27,-1
 470 667 l 1,28,-1
 308 192 l 1,29,-1
 85 58 l 1,30,-1
 85 939 l 1,31,-1
 0 939 l 1,32,-1
 0 -85 l 1,33,-1
 1024 -85 l 1,34,-1
 1024 43 l 1,35,-1
 981 43 l 1,36,-1
 981 0 l 1,0,-1
981 939 m 1,37,-1
 1024 939 l 1,38,-1
 1024 896 l 1,39,-1
 981 896 l 1,40,-1
 981 939 l 1,37,-1
853 939 m 1,41,-1
 896 939 l 1,42,-1
 896 896 l 1,43,-1
 853 896 l 1,44,-1
 853 939 l 1,41,-1
725 939 m 1,45,-1
 768 939 l 1,46,-1
 768 896 l 1,47,-1
 725 896 l 1,48,-1
 725 939 l 1,45,-1
597 939 m 1,49,-1
 640 939 l 1,50,-1
 640 896 l 1,51,-1
 597 896 l 1,52,-1
 597 939 l 1,49,-1
469 939 m 1,53,-1
 512 939 l 1,54,-1
 512 896 l 1,55,-1
 469 896 l 1,56,-1
 469 939 l 1,53,-1
341 939 m 1,57,-1
 384 939 l 1,58,-1
 384 896 l 1,59,-1
 341 896 l 1,60,-1
 341 939 l 1,57,-1
213 939 m 1,61,-1
 256 939 l 1,62,-1
 256 896 l 1,63,-1
 213 896 l 1,64,-1
 213 939 l 1,61,-1
85 939 m 1,65,-1
 128 939 l 1,66,-1
 128 896 l 1,67,-1
 85 896 l 1,68,-1
 85 939 l 1,65,-1
981 811 m 1,69,-1
 1024 811 l 1,70,-1
 1024 768 l 1,71,-1
 981 768 l 1,72,-1
 981 811 l 1,69,-1
853 811 m 1,73,-1
 896 811 l 1,74,-1
 896 768 l 1,75,-1
 853 768 l 1,76,-1
 853 811 l 1,73,-1
725 811 m 1,77,-1
 768 811 l 1,78,-1
 768 768 l 1,79,-1
 725 768 l 1,80,-1
 725 811 l 1,77,-1
597 811 m 1,81,-1
 640 811 l 1,82,-1
 640 768 l 1,83,-1
 597 768 l 1,84,-1
 597 811 l 1,81,-1
469 811 m 1,85,-1
 512 811 l 1,86,-1
 512 768 l 1,87,-1
 469 768 l 1,88,-1
 469 811 l 1,85,-1
341 811 m 1,89,-1
 384 811 l 1,90,-1
 384 768 l 1,91,-1
 341 768 l 1,92,-1
 341 811 l 1,89,-1
213 811 m 1,93,-1
 256 811 l 1,94,-1
 256 768 l 1,95,-1
 213 768 l 1,96,-1
 213 811 l 1,93,-1
85 811 m 1,97,-1
 128 811 l 1,98,-1
 128 768 l 1,99,-1
 85 768 l 1,100,-1
 85 811 l 1,97,-1
981 683 m 1,101,-1
 1024 683 l 1,102,-1
 1024 640 l 1,103,-1
 981 640 l 1,104,-1
 981 683 l 1,101,-1
725 683 m 1,105,-1
 768 683 l 1,106,-1
 768 640 l 1,107,-1
 725 640 l 1,108,-1
 725 683 l 1,105,-1
597 683 m 1,109,-1
 640 683 l 1,110,-1
 640 640 l 1,111,-1
 597 640 l 1,112,-1
 597 683 l 1,109,-1
341 683 m 1,113,-1
 384 683 l 1,114,-1
 384 640 l 1,115,-1
 341 640 l 1,116,-1
 341 683 l 1,113,-1
213 683 m 1,117,-1
 256 683 l 1,118,-1
 256 640 l 1,119,-1
 213 640 l 1,120,-1
 213 683 l 1,117,-1
85 683 m 1,121,-1
 128 683 l 1,122,-1
 128 640 l 1,123,-1
 85 640 l 1,124,-1
 85 683 l 1,121,-1
981 555 m 1,125,-1
 1024 555 l 1,126,-1
 1024 512 l 1,127,-1
 981 512 l 1,128,-1
 981 555 l 1,125,-1
597 555 m 1,129,-1
 640 555 l 1,130,-1
 640 512 l 1,131,-1
 597 512 l 1,132,-1
 597 555 l 1,129,-1
341 555 m 1,133,-1
 384 555 l 1,134,-1
 384 512 l 1,135,-1
 341 512 l 1,136,-1
 341 555 l 1,133,-1
213 555 m 1,137,-1
 256 555 l 1,138,-1
 256 512 l 1,139,-1
 213 512 l 1,140,-1
 213 555 l 1,137,-1
85 555 m 1,141,-1
 128 555 l 1,142,-1
 128 512 l 1,143,-1
 85 512 l 1,144,-1
 85 555 l 1,141,-1
981 427 m 1,145,-1
 1024 427 l 1,146,-1
 1024 384 l 1,147,-1
 981 384 l 1,148,-1
 981 427 l 1,145,-1
853 427 m 1,149,-1
 896 427 l 1,150,-1
 896 384 l 1,151,-1
 853 384 l 1,152,-1
 853 427 l 1,149,-1
213 427 m 1,153,-1
 256 427 l 1,154,-1
 256 384 l 1,155,-1
 213 384 l 1,156,-1
 213 427 l 1,153,-1
85 427 m 1,157,-1
 128 427 l 1,158,-1
 128 384 l 1,159,-1
 85 384 l 1,160,-1
 85 427 l 1,157,-1
981 299 m 1,161,-1
 1024 299 l 1,162,-1
 1024 256 l 1,163,-1
 981 256 l 1,164,-1
 981 299 l 1,161,-1
853 299 m 1,165,-1
 896 299 l 1,166,-1
 896 256 l 1,167,-1
 853 256 l 1,168,-1
 853 299 l 1,165,-1
469 299 m 1,169,-1
 512 299 l 1,170,-1
 512 256 l 1,171,-1
 469 256 l 1,172,-1
 469 299 l 1,169,-1
213 299 m 1,173,-1
 256 299 l 1,174,-1
 256 256 l 1,175,-1
 213 256 l 1,176,-1
 213 299 l 1,173,-1
85 299 m 1,177,-1
 128 299 l 1,178,-1
 128 256 l 1,179,-1
 85 256 l 1,180,-1
 85 299 l 1,177,-1
981 171 m 1,181,-1
 1024 171 l 1,182,-1
 1024 128 l 1,183,-1
 981 128 l 1,184,-1
 981 171 l 1,181,-1
853 171 m 1,185,-1
 896 171 l 1,186,-1
 896 128 l 1,187,-1
 853 128 l 1,188,-1
 853 171 l 1,185,-1
725 171 m 1,189,-1
 768 171 l 1,190,-1
 768 128 l 1,191,-1
 725 128 l 1,192,-1
 725 171 l 1,189,-1
469 171 m 1,193,-1
 512 171 l 1,194,-1
 512 128 l 1,195,-1
 469 128 l 1,196,-1
 469 171 l 1,193,-1
85 171 m 1,197,-1
 128 171 l 1,198,-1
 128 128 l 1,199,-1
 85 128 l 1,200,-1
 85 171 l 1,197,-1
EndSplineSet
EndChar

StartChar: uniE657
Encoding: 58967 58967 92
Width: 1024
Flags: W
LayerCount: 4
Fore
SplineSet
627 533 m 1,0,-1
 725 631 l 1,1,-1
 725 469 l 1,2,-1
 747 469 l 1,3,-1
 868 591 l 1,4,-1
 777 683 l 1,5,-1
 868 774 l 1,6,-1
 747 896 l 1,7,-1
 725 896 l 1,8,-1
 725 734 l 1,9,-1
 627 832 l 1,10,-1
 597 802 l 1,11,-1
 717 683 l 1,12,-1
 597 563 l 1,13,-1
 627 533 l 1,14,-1
 627 533 l 1,0,-1
768 814 m 1,15,-1
 808 774 l 1,16,-1
 768 734 l 1,17,-1
 768 814 l 1,18,-1
 768 814 l 1,15,-1
768 631 m 1,19,-1
 808 591 l 1,20,-1
 768 551 l 1,21,-1
 768 631 l 1,22,-1
 768 631 l 1,19,-1
853 277 m 1,23,24
 813 277 813 277 775 283.5 c 128,-1,25
 737 290 737 290 701 302 c 0,26,27
 690 305 690 305 678.5 302.5 c 128,-1,28
 667 300 667 300 658 291 c 2,29,-1
 564 197 l 1,30,31
 518 220 518 220 477.5 250 c 128,-1,32
 437 280 437 280 401 315.5 c 128,-1,33
 365 351 365 351 335.5 392 c 128,-1,34
 306 433 306 433 283 478 c 1,35,-1
 377 572 l 2,36,37
 385 581 385 581 388 592.5 c 128,-1,38
 391 604 391 604 387 615 c 0,39,40
 375 651 375 651 369 689.5 c 128,-1,41
 363 728 363 728 363 768 c 0,42,43
 363 786 363 786 350.5 798.5 c 128,-1,44
 338 811 338 811 320 811 c 2,45,-1
 171 811 l 2,46,47
 153 811 153 811 140.5 798.5 c 128,-1,48
 128 786 128 786 128 768 c 0,49,50
 128 618 128 618 185 486 c 128,-1,51
 242 354 242 354 340.5 255.5 c 128,-1,52
 439 157 439 157 571 100 c 128,-1,53
 703 43 703 43 853 43 c 0,54,55
 871 43 871 43 883.5 55.5 c 128,-1,56
 896 68 896 68 896 85 c 2,57,-1
 896 235 l 2,58,59
 896 252 896 252 883.5 264.5 c 128,-1,60
 871 277 871 277 853 277 c 1,61,-1
 853 277 l 1,23,24
EndSplineSet
EndChar

StartChar: uniE658
Encoding: 58968 58968 93
Width: 1024
Flags: W
LayerCount: 4
Fore
SplineSet
768 469 m 1,0,-1
 981 683 l 1,1,-1
 768 896 l 1,2,-1
 768 768 l 1,3,-1
 597 768 l 1,4,-1
 597 597 l 1,5,-1
 768 597 l 1,6,-1
 768 469 l 1,7,-1
 768 469 l 1,0,-1
853 277 m 1,8,9
 813 277 813 277 775 283.5 c 128,-1,10
 737 290 737 290 701 302 c 0,11,12
 690 305 690 305 678.5 302.5 c 128,-1,13
 667 300 667 300 658 291 c 2,14,-1
 564 197 l 1,15,16
 518 220 518 220 477.5 250 c 128,-1,17
 437 280 437 280 401 315.5 c 128,-1,18
 365 351 365 351 335.5 392 c 128,-1,19
 306 433 306 433 283 478 c 1,20,-1
 377 572 l 2,21,22
 385 581 385 581 388 592.5 c 128,-1,23
 391 604 391 604 387 615 c 0,24,25
 375 652 375 652 369 690 c 128,-1,26
 363 728 363 728 363 768 c 0,27,28
 363 786 363 786 350.5 798.5 c 128,-1,29
 338 811 338 811 320 811 c 2,30,-1
 171 811 l 2,31,32
 153 811 153 811 140.5 798.5 c 128,-1,33
 128 786 128 786 128 768 c 0,34,35
 128 618 128 618 185 486 c 128,-1,36
 242 354 242 354 340.5 255.5 c 128,-1,37
 439 157 439 157 571 100 c 128,-1,38
 703 43 703 43 853 43 c 0,39,40
 871 43 871 43 883.5 55.5 c 128,-1,41
 896 68 896 68 896 85 c 2,42,-1
 896 235 l 2,43,44
 896 252 896 252 883.5 264.5 c 128,-1,45
 871 277 871 277 853 277 c 1,46,-1
 853 277 l 1,8,9
EndSplineSet
EndChar

StartChar: uniE659
Encoding: 58969 58969 94
Width: 1024
Flags: W
LayerCount: 4
Fore
SplineSet
853 277 m 1,0,1
 813 277 813 277 775 283.5 c 128,-1,2
 737 290 737 290 701 302 c 0,3,4
 690 305 690 305 678.5 302.5 c 128,-1,5
 667 300 667 300 658 291 c 2,6,-1
 564 197 l 1,7,8
 518 220 518 220 477.5 250 c 128,-1,9
 437 280 437 280 401 315.5 c 128,-1,10
 365 351 365 351 335.5 392 c 128,-1,11
 306 433 306 433 283 478 c 1,12,-1
 377 572 l 2,13,14
 385 581 385 581 388 592.5 c 128,-1,15
 391 604 391 604 387 615 c 0,16,17
 375 651 375 651 369 689.5 c 128,-1,18
 363 728 363 728 363 768 c 0,19,20
 363 786 363 786 350.5 798.5 c 128,-1,21
 338 811 338 811 320 811 c 2,22,-1
 171 811 l 2,23,24
 153 811 153 811 140.5 798.5 c 128,-1,25
 128 786 128 786 128 768 c 0,26,27
 128 618 128 618 185 486 c 128,-1,28
 242 354 242 354 340.5 255.5 c 128,-1,29
 439 157 439 157 571 100 c 128,-1,30
 703 43 703 43 853 43 c 0,31,32
 871 43 871 43 883.5 55.5 c 128,-1,33
 896 68 896 68 896 85 c 2,34,-1
 896 235 l 2,35,36
 896 252 896 252 883.5 264.5 c 128,-1,37
 871 277 871 277 853 277 c 1,38,-1
 853 277 l 1,0,1
811 427 m 1,39,-1
 896 427 l 1,40,41
 896 506 896 506 866 576 c 128,-1,42
 836 646 836 646 783.5 698 c 128,-1,43
 731 750 731 750 661.5 780.5 c 128,-1,44
 592 811 592 811 512 811 c 1,45,-1
 512 725 l 1,46,47
 574 725 574 725 628.5 701.5 c 128,-1,48
 683 678 683 678 723.5 637.5 c 128,-1,49
 764 597 764 597 787.5 543 c 128,-1,50
 811 489 811 489 811 427 c 1,51,-1
 811 427 l 1,39,-1
640 427 m 1,52,-1
 725 427 l 1,53,54
 725 471 725 471 708.5 510 c 128,-1,55
 692 549 692 549 663 577.5 c 128,-1,56
 634 606 634 606 595 623 c 128,-1,57
 556 640 556 640 512 640 c 1,58,-1
 512 555 l 1,59,60
 565 555 565 555 602.5 517.5 c 128,-1,61
 640 480 640 480 640 427 c 1,62,-1
 640 427 l 1,52,-1
EndSplineSet
EndChar

StartChar: uniE65A
Encoding: 58970 58970 95
Width: 1024
Flags: W
LayerCount: 4
Fore
SplineSet
853 277 m 1,0,1
 813 277 813 277 775 283.5 c 128,-1,2
 737 290 737 290 701 302 c 0,3,4
 690 305 690 305 678.5 302.5 c 128,-1,5
 667 300 667 300 658 291 c 2,6,-1
 564 197 l 1,7,8
 518 220 518 220 477.5 250 c 128,-1,9
 437 280 437 280 401 315.5 c 128,-1,10
 365 351 365 351 335.5 392 c 128,-1,11
 306 433 306 433 283 478 c 1,12,-1
 377 572 l 2,13,14
 385 581 385 581 388 592.5 c 128,-1,15
 391 604 391 604 387 615 c 0,16,17
 375 651 375 651 369 689.5 c 128,-1,18
 363 728 363 728 363 768 c 0,19,20
 363 786 363 786 350.5 798.5 c 128,-1,21
 338 811 338 811 320 811 c 2,22,-1
 171 811 l 2,23,24
 153 811 153 811 140.5 798.5 c 128,-1,25
 128 786 128 786 128 768 c 0,26,27
 128 618 128 618 185 486 c 128,-1,28
 242 354 242 354 340.5 255.5 c 128,-1,29
 439 157 439 157 571 100 c 128,-1,30
 703 43 703 43 853 43 c 0,31,32
 871 43 871 43 883.5 55.5 c 128,-1,33
 896 68 896 68 896 85 c 2,34,-1
 896 235 l 2,35,36
 896 252 896 252 883.5 264.5 c 128,-1,37
 871 277 871 277 853 277 c 1,38,-1
 853 277 l 1,0,1
853 768 m 1,39,-1
 853 789 l 2,40,41
 853 833 853 833 822 864.5 c 128,-1,42
 791 896 791 896 747 896 c 256,43,44
 703 896 703 896 671.5 864.5 c 128,-1,45
 640 833 640 833 640 789 c 2,46,-1
 640 768 l 1,47,48
 622 768 622 768 609.5 755.5 c 128,-1,49
 597 743 597 743 597 725 c 2,50,-1
 597 555 l 2,51,52
 597 537 597 537 609.5 524.5 c 128,-1,53
 622 512 622 512 640 512 c 2,54,-1
 853 512 l 2,55,56
 871 512 871 512 883.5 524.5 c 128,-1,57
 896 537 896 537 896 555 c 2,58,-1
 896 725 l 2,59,60
 896 743 896 743 883.5 755.5 c 128,-1,61
 871 768 871 768 853 768 c 1,62,-1
 853 768 l 1,39,-1
819 768 m 1,63,-1
 674 768 l 1,64,-1
 674 789 l 2,65,66
 674 819 674 819 695.5 840.5 c 128,-1,67
 717 862 717 862 747 862 c 256,68,69
 777 862 777 862 798 840.5 c 128,-1,70
 819 819 819 819 819 789 c 2,71,-1
 819 768 l 1,72,-1
 819 768 l 1,63,-1
EndSplineSet
EndChar

StartChar: uniE65B
Encoding: 58971 58971 96
Width: 1024
Flags: W
LayerCount: 4
Fore
SplineSet
277 704 m 1,0,-1
 512 469 l 1,1,-1
 811 768 l 1,2,-1
 768 811 l 1,3,-1
 512 555 l 1,4,-1
 320 747 l 1,5,-1
 469 747 l 1,6,-1
 469 811 l 1,7,-1
 213 811 l 1,8,-1
 213 555 l 1,9,-1
 277 555 l 1,10,-1
 277 704 l 1,11,-1
 277 704 l 1,0,-1
1011 227 m 1,12,13
 963 274 963 274 906 311 c 128,-1,14
 849 348 849 348 785.5 373.5 c 128,-1,15
 722 399 722 399 653.5 413 c 128,-1,16
 585 427 585 427 512 427 c 256,17,18
 439 427 439 427 370.5 413 c 128,-1,19
 302 399 302 399 238.5 373.5 c 128,-1,20
 175 348 175 348 118 311 c 128,-1,21
 61 274 61 274 13 227 c 0,22,23
 7 221 7 221 3.5 213.5 c 128,-1,24
 0 206 0 206 0 197 c 256,25,26
 0 188 0 188 3.5 180.5 c 128,-1,27
 7 173 7 173 13 167 c 2,28,-1
 118 61 l 2,29,30
 124 55 124 55 132 52 c 128,-1,31
 140 49 140 49 148 49 c 0,32,33
 157 49 157 49 165 52 c 128,-1,34
 173 55 173 55 178 61 c 0,35,36
 204 84 204 84 232.5 104 c 128,-1,37
 261 124 261 124 292 140 c 0,38,39
 303 145 303 145 309.5 155.5 c 128,-1,40
 316 166 316 166 316 178 c 2,41,-1
 316 311 l 1,42,43
 362 326 362 326 411.5 333.5 c 128,-1,44
 461 341 461 341 512 341 c 256,45,46
 563 341 563 341 612.5 333.5 c 128,-1,47
 662 326 662 326 708 311 c 1,48,-1
 708 178 l 2,49,50
 708 165 708 165 715 155 c 128,-1,51
 722 145 722 145 732 140 c 0,52,53
 763 124 763 124 792 104 c 128,-1,54
 821 84 821 84 846 61 c 0,55,56
 852 55 852 55 859.5 51.5 c 128,-1,57
 867 48 867 48 876 48 c 256,58,59
 885 48 885 48 892.5 51.5 c 128,-1,60
 900 55 900 55 906 61 c 2,61,-1
 1012 167 l 2,62,63
 1017 173 1017 173 1020.5 180.5 c 128,-1,64
 1024 188 1024 188 1024 197 c 256,65,66
 1024 206 1024 206 1020.5 213.5 c 128,-1,67
 1017 221 1017 221 1011 227 c 1,68,-1
 1011 227 l 1,12,13
EndSplineSet
EndChar

StartChar: uniE65C
Encoding: 58972 58972 97
Width: 1024
Flags: W
LayerCount: 4
Fore
SplineSet
725 811 m 1,0,-1
 640 811 l 1,1,-1
 640 512 l 1,2,-1
 725 512 l 1,3,-1
 725 811 l 1,4,-1
 725 811 l 1,0,-1
853 277 m 1,5,6
 813 277 813 277 775 283.5 c 128,-1,7
 737 290 737 290 701 302 c 0,8,9
 690 305 690 305 678.5 302.5 c 128,-1,10
 667 300 667 300 658 291 c 2,11,-1
 564 197 l 1,12,13
 518 220 518 220 477.5 250 c 128,-1,14
 437 280 437 280 401 315.5 c 128,-1,15
 365 351 365 351 335.5 392 c 128,-1,16
 306 433 306 433 283 478 c 1,17,-1
 377 572 l 2,18,19
 385 581 385 581 388 592.5 c 128,-1,20
 391 604 391 604 387 615 c 0,21,22
 375 651 375 651 369 689.5 c 128,-1,23
 363 728 363 728 363 768 c 0,24,25
 363 786 363 786 350.5 798.5 c 128,-1,26
 338 811 338 811 320 811 c 2,27,-1
 171 811 l 2,28,29
 153 811 153 811 140.5 798.5 c 128,-1,30
 128 786 128 786 128 768 c 0,31,32
 128 618 128 618 185 486 c 128,-1,33
 242 354 242 354 340.5 255.5 c 128,-1,34
 439 157 439 157 571 100 c 128,-1,35
 703 43 703 43 853 43 c 0,36,37
 871 43 871 43 883.5 55.5 c 128,-1,38
 896 68 896 68 896 85 c 2,39,-1
 896 235 l 2,40,41
 896 252 896 252 883.5 264.5 c 128,-1,42
 871 277 871 277 853 277 c 1,43,-1
 853 277 l 1,5,6
811 811 m 1,44,-1
 811 512 l 1,45,-1
 896 512 l 1,46,-1
 896 811 l 1,47,-1
 811 811 l 1,48,-1
 811 811 l 1,44,-1
EndSplineSet
EndChar

StartChar: uniE65D
Encoding: 58973 58973 98
Width: 1024
Flags: W
LayerCount: 4
Fore
SplineSet
768 853 m 1,0,-1
 427 853 l 1,1,-1
 172 597 l 1,2,-1
 171 85 l 2,3,4
 171 50 171 50 196 25 c 128,-1,5
 221 0 221 0 256 0 c 2,6,-1
 768 0 l 2,7,8
 803 0 803 0 828 25 c 128,-1,9
 853 50 853 50 853 85 c 2,10,-1
 853 768 l 2,11,12
 853 803 853 803 828 828 c 128,-1,13
 803 853 803 853 768 853 c 1,14,-1
 768 853 l 1,0,-1
512 597 m 1,15,-1
 427 597 l 1,16,-1
 427 768 l 1,17,-1
 512 768 l 1,18,-1
 512 597 l 1,19,-1
 512 597 l 1,15,-1
640 597 m 1,20,-1
 555 597 l 1,21,-1
 555 768 l 1,22,-1
 640 768 l 1,23,-1
 640 597 l 1,24,-1
 640 597 l 1,20,-1
768 597 m 1,25,-1
 683 597 l 1,26,-1
 683 768 l 1,27,-1
 768 768 l 1,28,-1
 768 597 l 1,29,-1
 768 597 l 1,25,-1
EndSplineSet
EndChar

StartChar: uniE65E
Encoding: 58974 58974 99
Width: 1054
Flags: W
LayerCount: 4
Fore
SplineSet
736 817 m 1,0,1
 702 817 702 817 643 785 c 128,-1,2
 584 753 584 753 528 753 c 256,3,4
 472 753 472 753 411 785 c 128,-1,5
 350 817 350 817 320 817 c 0,6,7
 217 817 217 817 140 701.5 c 128,-1,8
 63 586 63 586 27 448 c 128,-1,9
 -9 310 -9 310 4 194.5 c 128,-1,10
 17 79 17 79 94 79 c 0,11,12
 159 79 159 79 201.5 112.5 c 128,-1,13
 244 146 244 146 287 186.5 c 128,-1,14
 330 227 330 227 384.5 261 c 128,-1,15
 439 295 439 295 528 295 c 0,16,17
 600 295 600 295 658.5 261.5 c 128,-1,18
 717 228 717 228 768 188 c 128,-1,19
 819 148 819 148 865.5 114.5 c 128,-1,20
 912 81 912 81 960 81 c 0,21,22
 1037 81 1037 81 1050.5 196 c 128,-1,23
 1064 311 1064 311 1028.5 449 c 128,-1,24
 993 587 993 587 916 702 c 128,-1,25
 839 817 839 817 736 817 c 1,26,-1
 736 817 l 1,0,1
304 401 m 1,27,28
 245 401 245 401 202.5 443.5 c 128,-1,29
 160 486 160 486 160 545 c 0,30,31
 160 605 160 605 202.5 647 c 128,-1,32
 245 689 245 689 304 689 c 0,33,34
 364 689 364 689 406 647 c 128,-1,35
 448 605 448 605 448 545 c 0,36,37
 448 486 448 486 406 443.5 c 128,-1,38
 364 401 364 401 304 401 c 1,39,-1
 304 401 l 1,27,28
686 481 m 1,40,41
 673 481 673 481 663.5 490.5 c 128,-1,42
 654 500 654 500 654 513 c 0,43,44
 654 527 654 527 663.5 536 c 128,-1,45
 673 545 673 545 686 545 c 0,46,47
 700 545 700 545 709 536 c 128,-1,48
 718 527 718 527 718 513 c 0,49,50
 718 500 718 500 709 490.5 c 128,-1,51
 700 481 700 481 686 481 c 1,52,-1
 686 481 l 1,40,41
784 385 m 1,53,54
 771 385 771 385 761.5 394.5 c 128,-1,55
 752 404 752 404 752 417 c 0,56,57
 752 431 752 431 761.5 440 c 128,-1,58
 771 449 771 449 784 449 c 0,59,60
 798 449 798 449 807 440 c 128,-1,61
 816 431 816 431 816 417 c 0,62,63
 816 404 816 404 807 394.5 c 128,-1,64
 798 385 798 385 784 385 c 1,65,-1
 784 385 l 1,53,54
784 577 m 1,66,67
 771 577 771 577 761.5 586.5 c 128,-1,68
 752 596 752 596 752 609 c 0,69,70
 752 623 752 623 761.5 632 c 128,-1,71
 771 641 771 641 784 641 c 0,72,73
 798 641 798 641 807 632 c 128,-1,74
 816 623 816 623 816 609 c 0,75,76
 816 596 816 596 807 586.5 c 128,-1,77
 798 577 798 577 784 577 c 1,78,-1
 784 577 l 1,66,67
880 481 m 1,79,80
 867 481 867 481 857.5 490.5 c 128,-1,81
 848 500 848 500 848 513 c 0,82,83
 848 527 848 527 857.5 536 c 128,-1,84
 867 545 867 545 880 545 c 0,85,86
 894 545 894 545 903 536 c 128,-1,87
 912 527 912 527 912 513 c 0,88,89
 912 500 912 500 903 490.5 c 128,-1,90
 894 481 894 481 880 481 c 1,91,-1
 880 481 l 1,79,80
304 625 m 1,92,93
 271 625 271 625 247.5 601.5 c 128,-1,94
 224 578 224 578 224 545 c 256,95,96
 224 512 224 512 247.5 488.5 c 128,-1,97
 271 465 271 465 304 465 c 0,98,99
 338 465 338 465 361 488.5 c 128,-1,100
 384 512 384 512 384 545 c 256,101,102
 384 578 384 578 361 601.5 c 128,-1,103
 338 625 338 625 304 625 c 1,104,-1
 304 625 l 1,92,93
EndSplineSet
EndChar

StartChar: uniE65F
Encoding: 58975 58975 100
Width: 1064
Flags: W
LayerCount: 4
Fore
SplineSet
0 292 m 1,0,-1
 356 -64 l 1,1,2
 356 -64 356 -64 367.5 -30.5 c 128,-1,3
 379 3 379 3 384 52 c 128,-1,4
 389 101 389 101 378 157 c 128,-1,5
 367 213 367 213 322 258 c 0,6,7
 277 302 277 302 221.5 313 c 128,-1,8
 166 324 166 324 116.5 319.5 c 128,-1,9
 67 315 67 315 33.5 303.5 c 128,-1,10
 0 292 0 292 0 292 c 1,11,-1
 0 292 l 1,0,-1
956 264 m 1,12,-1
 775 83 l 1,13,-1
 798 60 l 1,14,-1
 979 241 l 1,15,-1
 956 264 l 1,16,-1
 956 264 l 1,12,-1
1046 219 m 1,17,-1
 843 422 l 2,18,19
 824 441 824 441 797.5 441 c 128,-1,20
 771 441 771 441 752 422 c 2,21,-1
 735 405 l 1,22,-1
 685 455 l 1,23,-1
 774 544 l 2,24,25
 793 563 793 563 791.5 591 c 128,-1,26
 790 619 790 619 771 637 c 2,27,-1
 661 748 l 2,28,29
 642 766 642 766 615.5 766 c 128,-1,30
 589 766 589 766 570 748 c 2,31,-1
 489 669 l 1,32,-1
 446 712 l 1,33,-1
 449 715 l 2,34,35
 468 734 468 734 468 760.5 c 128,-1,36
 468 787 468 787 449 805 c 2,37,-1
 246 1009 l 2,38,39
 227 1028 227 1028 200.5 1028 c 128,-1,40
 174 1028 174 1028 155 1009 c 2,41,-1
 19 873 l 2,42,43
 0 855 0 855 0 828.5 c 128,-1,44
 0 802 0 802 19 783 c 2,45,-1
 223 579 l 2,46,47
 242 560 242 560 268.5 560 c 128,-1,48
 295 560 295 560 313 579 c 2,49,-1
 358 624 l 1,50,-1
 402 579 l 1,51,-1
 320 497 l 2,52,53
 301 479 301 479 303 406 c 128,-1,54
 305 333 305 333 305 333 c 1,55,-1
 360 278 l 1,56,57
 360 278 360 278 432.5 276.5 c 128,-1,58
 505 275 505 275 524 294 c 2,59,-1
 595 364 l 1,60,-1
 645 315 l 1,61,-1
 617 287 l 2,62,63
 598 268 598 268 598 241.5 c 128,-1,64
 598 215 598 215 617 196 c 2,65,-1
 820 -8 l 2,66,67
 839 -26 839 -26 865.5 -26 c 128,-1,68
 892 -26 892 -26 911 -8 c 2,69,-1
 1046 128 l 2,70,71
 1065 147 1065 147 1065 173.5 c 128,-1,72
 1065 200 1065 200 1046 219 c 1,73,-1
 1046 219 l 1,17,-1
42 851 m 1,74,-1
 178 987 l 2,75,76
 187 996 187 996 200 996 c 128,-1,77
 213 996 213 996 223 987 c 1,78,-1
 42 806 l 1,79,80
 32 815 32 815 32 828 c 128,-1,81
 32 841 32 841 42 851 c 1,82,-1
 42 851 l 1,74,-1
64 783 m 1,83,-1
 246 964 l 1,84,-1
 268 941 l 1,85,-1
 87 760 l 1,86,-1
 64 783 l 1,87,-1
 64 783 l 1,83,-1
110 738 m 1,88,-1
 291 919 l 1,89,-1
 313 896 l 1,90,-1
 132 715 l 1,91,-1
 110 738 l 1,92,-1
 110 738 l 1,88,-1
155 692 m 1,93,-1
 336 873 l 1,94,-1
 359 851 l 1,95,-1
 178 670 l 1,96,-1
 155 692 l 1,97,-1
 155 692 l 1,93,-1
200 647 m 1,98,-1
 381 828 l 1,99,-1
 404 806 l 1,100,-1
 223 624 l 1,101,-1
 200 647 l 1,102,-1
 200 647 l 1,98,-1
291 602 m 1,103,104
 281 592 281 592 268 592 c 128,-1,105
 255 592 255 592 246 602 c 1,106,-1
 427 783 l 1,107,108
 436 773 436 773 436 760 c 128,-1,109
 436 747 436 747 427 738 c 2,110,-1
 291 602 l 1,111,-1
 291 602 l 1,103,104
381 432 m 1,112,-1
 364 449 l 1,113,-1
 598 683 l 1,114,-1
 615 666 l 1,115,-1
 381 432 l 1,116,-1
 381 432 l 1,112,-1
639 264 m 1,117,-1
 775 400 l 2,118,119
 784 409 784 409 797.5 409 c 128,-1,120
 811 409 811 409 820 400 c 1,121,-1
 639 219 l 1,122,123
 630 228 630 228 630 241.5 c 128,-1,124
 630 255 630 255 639 264 c 1,125,-1
 639 264 l 1,117,-1
1024 151 m 1,126,-1
 888 15 l 2,127,128
 879 6 879 6 865.5 6 c 128,-1,129
 852 6 852 6 843 15 c 2,130,-1
 707 151 l 1,131,-1
 888 332 l 1,132,-1
 865 355 l 1,133,-1
 684 174 l 1,134,-1
 662 196 l 1,135,-1
 843 377 l 1,136,-1
 1024 196 l 2,137,138
 1033 187 1033 187 1033 173.5 c 128,-1,139
 1033 160 1033 160 1024 151 c 1,140,-1
 1024 151 l 1,126,-1
1001 219 m 1,141,-1
 820 38 l 1,142,-1
 843 15 l 1,143,-1
 1024 196 l 1,144,-1
 1001 219 l 1,145,-1
 1001 219 l 1,141,-1
911 309 m 1,146,-1
 730 128 l 1,147,-1
 752 106 l 1,148,-1
 933 287 l 1,149,-1
 911 309 l 1,150,-1
 911 309 l 1,146,-1
EndSplineSet
EndChar

StartChar: uniE660
Encoding: 58976 58976 101
Width: 1024
Flags: W
LayerCount: 4
Fore
SplineSet
128 -32 m 1,0,-1
 128 480 l 1,1,-1
 224 480 l 1,2,-1
 224 640 l 2,3,4
 224 693 224 693 244 739.5 c 128,-1,5
 264 786 264 786 299 821 c 128,-1,6
 334 856 334 856 380.5 876 c 128,-1,7
 427 896 427 896 480 896 c 2,8,-1
 512 896 l 2,9,10
 565 896 565 896 611.5 876 c 128,-1,11
 658 856 658 856 693 821 c 128,-1,12
 728 786 728 786 748 739.5 c 128,-1,13
 768 693 768 693 768 640 c 2,14,-1
 768 480 l 1,15,-1
 864 480 l 1,16,-1
 864 -32 l 1,17,-1
 128 -32 l 1,18,-1
 128 -32 l 1,0,-1
472 231 m 1,19,-1
 448 64 l 1,20,-1
 544 64 l 1,21,-1
 520 231 l 1,22,23
 538 238 538 238 549 254 c 128,-1,24
 560 270 560 270 560 290 c 0,25,26
 560 317 560 317 541 335.5 c 128,-1,27
 522 354 522 354 496 354 c 0,28,29
 469 354 469 354 450.5 335.5 c 128,-1,30
 432 317 432 317 432 290 c 0,31,32
 432 270 432 270 443 254 c 128,-1,33
 454 238 454 238 472 231 c 1,34,-1
 472 231 l 1,19,-1
672 624 m 1,35,36
 672 697 672 697 620.5 748.5 c 128,-1,37
 569 800 569 800 496 800 c 256,38,39
 423 800 423 800 371.5 748.5 c 128,-1,40
 320 697 320 697 320 624 c 2,41,-1
 320 480 l 1,42,-1
 672 480 l 1,43,-1
 672 624 l 1,44,-1
 672 624 l 1,35,36
EndSplineSet
EndChar

StartChar: uniE661
Encoding: 58977 58977 102
Width: 1024
Flags: W
LayerCount: 4
Fore
SplineSet
928 480 m 1,0,-1
 928 624 l 2,1,2
 928 697 928 697 876.5 748.5 c 128,-1,3
 825 800 825 800 752 800 c 256,4,5
 679 800 679 800 627.5 748.5 c 128,-1,6
 576 697 576 697 576 624 c 2,7,-1
 576 478 l 1,8,-1
 736 478 l 1,9,-1
 736 -32 l 1,10,-1
 0 -32 l 1,11,-1
 0 480 l 1,12,-1
 480 480 l 1,13,-1
 480 640 l 2,14,15
 480 693 480 693 500 739.5 c 128,-1,16
 520 786 520 786 555 821 c 128,-1,17
 590 856 590 856 636.5 876 c 128,-1,18
 683 896 683 896 736 896 c 2,19,-1
 768 896 l 2,20,21
 821 896 821 896 867.5 876 c 128,-1,22
 914 856 914 856 949 821 c 128,-1,23
 984 786 984 786 1004 739.5 c 128,-1,24
 1024 693 1024 693 1024 640 c 2,25,-1
 1024 480 l 1,26,-1
 928 480 l 1,27,-1
 928 480 l 1,0,-1
368 354 m 1,28,29
 341 354 341 354 322.5 335 c 128,-1,30
 304 316 304 316 304 290 c 0,31,32
 304 270 304 270 315 254 c 128,-1,33
 326 238 326 238 344 231 c 1,34,-1
 320 64 l 1,35,-1
 416 64 l 1,36,-1
 392 231 l 1,37,38
 410 238 410 238 421 254 c 128,-1,39
 432 270 432 270 432 290 c 0,40,41
 432 317 432 317 413 335.5 c 128,-1,42
 394 354 394 354 368 354 c 1,43,-1
 368 354 l 1,28,29
EndSplineSet
EndChar

StartChar: uniE662
Encoding: 58978 58978 103
Width: 1024
Flags: W
LayerCount: 4
Fore
SplineSet
607 390 m 1,0,-1
 358 534 l 2,1,2
 335 548 335 548 309.5 541 c 128,-1,3
 284 534 284 534 270 511 c 0,4,5
 257 488 257 488 264 462.5 c 128,-1,6
 271 437 271 437 294 424 c 2,7,-1
 543 280 l 2,8,9
 566 266 566 266 591.5 273 c 128,-1,10
 617 280 617 280 631 303 c 0,11,12
 644 326 644 326 637 351.5 c 128,-1,13
 630 377 630 377 607 390 c 1,14,-1
 607 390 l 1,0,-1
401 546 m 1,15,-1
 595 434 l 1,16,-1
 661 618 l 1,17,-1
 527 695 l 1,18,-1
 401 546 l 1,19,-1
 401 546 l 1,15,-1
258 74 m 1,20,-1
 444 300 l 1,21,-1
 361 348 l 1,22,-1
 258 74 l 1,23,-1
 258 74 l 1,20,-1
742 719 m 1,24,-1
 575 815 l 2,25,26
 558 825 558 825 539 820 c 128,-1,27
 520 815 520 815 510 798 c 0,28,29
 500 780 500 780 505 761 c 128,-1,30
 510 742 510 742 527 732 c 2,31,-1
 694 636 l 2,32,33
 711 626 711 626 730 631 c 128,-1,34
 749 636 749 636 759 654 c 0,35,36
 769 671 769 671 764 690 c 128,-1,37
 759 709 759 709 742 719 c 1,38,-1
 742 719 l 1,24,-1
EndSplineSet
EndChar

StartChar: uniE663
Encoding: 58979 58979 104
Width: 1024
Flags: W
LayerCount: 4
Fore
SplineSet
994 448 m 1,0,1
 994 397 994 397 967 357 c 128,-1,2
 940 317 940 317 896 299 c 1,3,-1
 896 225 l 2,4,5
 896 212 896 212 887 202.5 c 128,-1,6
 878 193 878 193 865 193 c 2,7,-1
 127 193 l 2,8,9
 114 193 114 193 105 202.5 c 128,-1,10
 96 212 96 212 96 225 c 2,11,-1
 96 299 l 1,12,13
 52 317 52 317 25 357 c 128,-1,14
 -2 397 -2 397 -2 448 c 256,15,16
 -2 499 -2 499 25 539 c 128,-1,17
 52 579 52 579 96 597 c 1,18,-1
 96 671 l 2,19,20
 96 684 96 684 105 693.5 c 128,-1,21
 114 703 114 703 128 703 c 2,22,-1
 865 703 l 2,23,24
 878 703 878 703 887 693.5 c 128,-1,25
 896 684 896 684 896 671 c 2,26,-1
 896 597 l 1,27,28
 940 579 940 579 967 539 c 128,-1,29
 994 499 994 499 994 448 c 1,30,-1
 994 448 l 1,0,1
382 448 m 1,31,-1
 255 448 l 1,32,-1
 255 416 l 1,33,-1
 382 416 l 1,34,-1
 382 448 l 1,35,-1
 382 448 l 1,31,-1
534 557 m 1,36,37
 527 564 527 564 518 567.5 c 128,-1,38
 509 571 509 571 497 571 c 256,39,40
 485 571 485 571 476 567.5 c 128,-1,41
 467 564 467 564 460 557 c 0,42,43
 453 549 453 549 449.5 538 c 128,-1,44
 446 527 446 527 446 511 c 0,45,46
 446 496 446 496 449.5 484.5 c 128,-1,47
 453 473 453 473 460 466 c 0,48,49
 467 458 467 458 473 454.5 c 128,-1,50
 479 451 479 451 491 451 c 256,51,52
 503 451 503 451 515 454.5 c 128,-1,53
 527 458 527 458 534 466 c 0,54,55
 541 473 541 473 544 484.5 c 128,-1,56
 547 496 547 496 547 511 c 0,57,58
 547 527 547 527 544 538 c 128,-1,59
 541 549 541 549 534 557 c 1,60,-1
 534 557 l 1,36,37
642 576 m 1,61,-1
 479 320 l 1,62,-1
 511 320 l 1,63,-1
 674 576 l 1,64,-1
 642 576 l 1,65,-1
 642 576 l 1,61,-1
693 429 m 1,66,67
 686 437 686 437 677 440.5 c 128,-1,68
 668 444 668 444 656 444 c 256,69,70
 644 444 644 444 635 440.5 c 128,-1,71
 626 437 626 437 619 429 c 0,72,73
 613 422 613 422 609.5 410.5 c 128,-1,74
 606 399 606 399 606 384 c 0,75,76
 606 368 606 368 609.5 356.5 c 128,-1,77
 613 345 613 345 619 338 c 0,78,79
 626 331 626 331 635.5 327 c 128,-1,80
 645 323 645 323 657 323 c 0,81,82
 668 323 668 323 677 327 c 128,-1,83
 686 331 686 331 693 338 c 256,84,85
 700 345 700 345 703.5 356.5 c 128,-1,86
 707 368 707 368 707 384 c 0,87,88
 707 399 707 399 703.5 410.5 c 128,-1,89
 700 422 700 422 693 429 c 1,90,-1
 693 429 l 1,66,67
656 348 m 1,91,92
 652 348 652 348 649.5 349.5 c 128,-1,93
 647 351 647 351 645 354 c 0,94,95
 642 357 642 357 641 364.5 c 128,-1,96
 640 372 640 372 640 384 c 0,97,98
 640 395 640 395 641 402.5 c 128,-1,99
 642 410 642 410 645 414 c 0,100,101
 647 417 647 417 649.5 418 c 128,-1,102
 652 419 652 419 656 419 c 0,103,104
 659 419 659 419 662 418 c 128,-1,105
 665 417 665 417 667 414 c 0,106,107
 669 410 669 410 670.5 402.5 c 128,-1,108
 672 395 672 395 672 384 c 0,109,110
 672 372 672 372 670.5 364.5 c 128,-1,111
 669 357 669 357 667 354 c 256,112,113
 665 351 665 351 662 349.5 c 128,-1,114
 659 348 659 348 656 348 c 1,115,-1
 656 348 l 1,91,92
497 475 m 1,116,117
 493 475 493 475 490.5 476.5 c 128,-1,118
 488 478 488 478 486 481 c 0,119,120
 483 485 483 485 482 492.5 c 128,-1,121
 481 500 481 500 481 511 c 256,122,123
 481 522 481 522 482 529.5 c 128,-1,124
 483 537 483 537 486 541 c 0,125,126
 488 544 488 544 490.5 545.5 c 128,-1,127
 493 547 493 547 497 547 c 0,128,129
 500 547 500 547 502.5 545.5 c 128,-1,130
 505 544 505 544 507 541 c 0,131,132
 510 537 510 537 511 529.5 c 128,-1,133
 512 522 512 522 512 511 c 256,134,135
 512 500 512 500 511 492.5 c 128,-1,136
 510 485 510 485 507 481 c 0,137,138
 505 478 505 478 502.5 476.5 c 128,-1,139
 500 475 500 475 497 475 c 1,140,-1
 497 475 l 1,116,117
EndSplineSet
EndChar

StartChar: uniE664
Encoding: 58980 58980 105
Width: 1024
Flags: W
LayerCount: 4
Fore
SplineSet
896 672 m 1,0,-1
 833 672 l 1,1,-1
 833 766 l 1,2,-1
 704 768 l 1,3,-1
 705 672 l 1,4,-1
 316 672 l 1,5,-1
 319 768 l 1,6,-1
 192 766 l 1,7,-1
 192 670 l 1,8,-1
 128 672 l 2,9,10
 102 672 102 672 83 653 c 128,-1,11
 64 634 64 634 64 608 c 2,12,-1
 64 160 l 2,13,14
 64 134 64 134 83 115 c 128,-1,15
 102 96 102 96 128 96 c 2,16,-1
 896 96 l 2,17,18
 922 96 922 96 941 115 c 128,-1,19
 960 134 960 134 960 160 c 2,20,-1
 960 608 l 2,21,22
 960 634 960 634 941 653 c 128,-1,23
 922 672 922 672 896 672 c 1,24,-1
 896 672 l 1,0,-1
736 736 m 1,25,-1
 800 736 l 1,26,-1
 800 608 l 1,27,-1
 736 608 l 1,28,-1
 736 736 l 1,29,-1
 736 736 l 1,25,-1
320 518 m 1,30,31
 349 518 349 518 369.5 491 c 128,-1,32
 390 464 390 464 390 426 c 256,33,34
 390 388 390 388 369.5 361 c 128,-1,35
 349 334 349 334 320 334 c 256,36,37
 291 334 291 334 270.5 361 c 128,-1,38
 250 388 250 388 250 426 c 256,39,40
 250 464 250 464 270.5 491 c 128,-1,41
 291 518 291 518 320 518 c 1,42,-1
 320 518 l 1,30,31
224 736 m 1,43,-1
 288 736 l 1,44,-1
 288 608 l 1,45,-1
 224 608 l 1,46,-1
 224 736 l 1,47,-1
 224 736 l 1,43,-1
181 226 m 1,48,49
 181 226 181 226 187 257.5 c 128,-1,50
 193 289 193 289 206 298 c 256,51,52
 219 307 219 307 246 312 c 128,-1,53
 273 317 273 317 273 317 c 257,54,55
 273 317 273 317 291 300 c 128,-1,56
 309 283 309 283 319 283 c 256,57,58
 329 283 329 283 347 300 c 128,-1,59
 365 317 365 317 365 317 c 257,60,61
 365 317 365 317 392 312 c 128,-1,62
 419 307 419 307 432 298 c 0,63,64
 447 288 447 288 452 257 c 128,-1,65
 457 226 457 226 457 226 c 1,66,-1
 181 226 l 1,67,-1
 181 226 l 1,48,49
832 256 m 1,68,-1
 544 256 l 1,69,-1
 544 288 l 1,70,-1
 832 288 l 1,71,-1
 832 256 l 1,72,-1
 832 256 l 1,68,-1
832 320 m 1,73,-1
 544 320 l 1,74,-1
 544 352 l 1,75,-1
 832 352 l 1,76,-1
 832 320 l 1,77,-1
 832 320 l 1,73,-1
832 384 m 1,78,-1
 544 384 l 1,79,-1
 544 416 l 1,80,-1
 832 416 l 1,81,-1
 832 384 l 1,82,-1
 832 384 l 1,78,-1
832 448 m 1,83,-1
 544 448 l 1,84,-1
 544 480 l 1,85,-1
 832 480 l 1,86,-1
 832 448 l 1,87,-1
 832 448 l 1,83,-1
EndSplineSet
EndChar

StartChar: uniE665
Encoding: 58981 58981 106
Width: 1024
Flags: W
LayerCount: 4
Fore
SplineSet
0 160 m 1,0,-1
 0 736 l 1,1,-1
 1024 736 l 1,2,-1
 1024 160 l 1,3,-1
 0 160 l 1,4,-1
 0 160 l 1,0,-1
64 674 m 1,5,-1
 64 224 l 1,6,-1
 960 224 l 1,7,-1
 960 674 l 1,8,-1
 64 674 l 1,9,-1
 64 674 l 1,5,-1
672 448 m 1,10,11
 672 528 672 528 625 584 c 128,-1,12
 578 640 578 640 512 640 c 2,13,-1
 928 640 l 1,14,-1
 928 256 l 1,15,-1
 512 256 l 2,16,17
 578 256 578 256 625 312 c 128,-1,18
 672 368 672 368 672 448 c 1,19,-1
 672 448 l 1,10,11
800 384 m 1,20,21
 820 384 820 384 834 403 c 128,-1,22
 848 422 848 422 848 448 c 256,23,24
 848 474 848 474 834 493 c 128,-1,25
 820 512 820 512 800 512 c 256,26,27
 780 512 780 512 766 493 c 128,-1,28
 752 474 752 474 752 448 c 256,29,30
 752 422 752 422 766 403 c 128,-1,31
 780 384 780 384 800 384 c 1,32,-1
 800 384 l 1,20,21
580 529 m 1,33,34
 579 527 579 527 578.5 526 c 128,-1,35
 578 525 578 525 578 525 c 2,36,37
 577 524 577 524 576 524 c 128,-1,38
 575 524 575 524 574 524 c 256,39,40
 573 524 573 524 571.5 524.5 c 128,-1,41
 570 525 570 525 567 526 c 0,42,43
 565 528 565 528 562 529.5 c 128,-1,44
 559 531 559 531 556 533 c 0,45,46
 552 534 552 534 548 535.5 c 128,-1,47
 544 537 544 537 539 538 c 0,48,49
 535 540 535 540 530 540.5 c 128,-1,50
 525 541 525 541 519 541 c 0,51,52
 515 541 515 541 511 540.5 c 128,-1,53
 507 540 507 540 504 539 c 256,54,55
 501 538 501 538 498.5 536.5 c 128,-1,56
 496 535 496 535 493 533 c 0,57,58
 491 531 491 531 489.5 529 c 128,-1,59
 488 527 488 527 487 524 c 0,60,61
 486 522 486 522 485.5 519 c 128,-1,62
 485 516 485 516 485 514 c 0,63,64
 485 509 485 509 486 505.5 c 128,-1,65
 487 502 487 502 490 499 c 0,66,67
 492 495 492 495 495 492.5 c 128,-1,68
 498 490 498 490 502 487 c 0,69,70
 506 485 506 485 510.5 482.5 c 128,-1,71
 515 480 515 480 520 478 c 256,72,73
 525 476 525 476 530 473.5 c 128,-1,74
 535 471 535 471 541 469 c 0,75,76
 546 467 546 467 551 464 c 128,-1,77
 556 461 556 461 561 458 c 256,78,79
 566 455 566 455 570.5 451.5 c 128,-1,80
 575 448 575 448 579 444 c 0,81,82
 583 439 583 439 586 434 c 128,-1,83
 589 429 589 429 591 424 c 0,84,85
 594 418 594 418 595 411 c 128,-1,86
 596 404 596 404 596 397 c 0,87,88
 596 386 596 386 594 377 c 128,-1,89
 592 368 592 368 589 361 c 0,90,91
 585 353 585 353 579.5 346.5 c 128,-1,92
 574 340 574 340 568 335 c 0,93,94
 561 330 561 330 553.5 326 c 128,-1,95
 546 322 546 322 538 320 c 0,96,97
 536 319 536 319 535 319 c 128,-1,98
 534 319 534 319 533 319 c 2,99,-1
 533 284 l 1,100,-1
 502 284 l 1,101,-1
 502 314 l 2,102,103
 501 314 501 314 501 314 c 129,-1,104
 501 314 501 314 500 314 c 0,105,106
 494 314 494 314 487.5 314.5 c 128,-1,107
 481 315 481 315 476 317 c 0,108,109
 470 318 470 318 465 319 c 128,-1,110
 460 320 460 320 455 322 c 0,111,112
 451 323 451 323 447 325 c 128,-1,113
 443 327 443 327 441 328 c 0,114,115
 438 330 438 330 435.5 331.5 c 128,-1,116
 433 333 433 333 432 334 c 0,117,118
 431 336 431 336 430 337.5 c 128,-1,119
 429 339 429 339 428 342 c 0,120,121
 428 344 428 344 427.5 347.5 c 128,-1,122
 427 351 427 351 427 356 c 0,123,124
 427 359 427 359 427 361.5 c 128,-1,125
 427 364 427 364 428 366 c 0,126,127
 428 368 428 368 428.5 370 c 128,-1,128
 429 372 429 372 429 373 c 256,129,130
 429 374 429 374 430 375 c 128,-1,131
 431 376 431 376 431 377 c 1,132,133
 432 377 432 377 433 377.5 c 128,-1,134
 434 378 434 378 435 378 c 256,135,136
 436 378 436 378 438 377 c 128,-1,137
 440 376 440 376 443 375 c 0,138,139
 445 373 445 373 448.5 371 c 128,-1,140
 452 369 452 369 456 367 c 256,141,142
 460 365 460 365 464.5 363.5 c 128,-1,143
 469 362 469 362 475 360 c 0,144,145
 480 358 480 358 486.5 357.5 c 128,-1,146
 493 357 493 357 501 357 c 0,147,148
 505 357 505 357 509.5 357.5 c 128,-1,149
 514 358 514 358 518 359 c 256,150,151
 522 360 522 360 525 361.5 c 128,-1,152
 528 363 528 363 531 365 c 0,153,154
 533 368 533 368 535 370.5 c 128,-1,155
 537 373 537 373 539 376 c 0,156,157
 540 379 540 379 541 382.5 c 128,-1,158
 542 386 542 386 542 390 c 256,159,160
 542 394 542 394 540.5 398 c 128,-1,161
 539 402 539 402 537 405 c 0,162,163
 534 408 534 408 531 410.5 c 128,-1,164
 528 413 528 413 524 416 c 0,165,166
 520 418 520 418 516 420.5 c 128,-1,167
 512 423 512 423 507 425 c 256,168,169
 502 427 502 427 497 429.5 c 128,-1,170
 492 432 492 432 487 434 c 0,171,172
 481 437 481 437 476 439.5 c 128,-1,173
 471 442 471 442 466 445 c 0,174,175
 462 448 462 448 457.5 451.5 c 128,-1,176
 453 455 453 455 449 460 c 0,177,178
 445 464 445 464 442 469 c 128,-1,179
 439 474 439 474 437 480 c 0,180,181
 434 486 434 486 433 492.5 c 128,-1,182
 432 499 432 499 432 508 c 256,183,184
 432 517 432 517 433.5 525 c 128,-1,185
 435 533 435 533 439 540 c 0,186,187
 442 547 442 547 446.5 553 c 128,-1,188
 451 559 451 559 457 564 c 0,189,190
 463 568 463 568 470 571.5 c 128,-1,191
 477 575 477 575 485 578 c 0,192,193
 489 579 489 579 493 579.5 c 128,-1,194
 497 580 497 580 502 581 c 1,195,-1
 502 614 l 1,196,-1
 533 614 l 1,197,-1
 533 581 l 2,198,199
 534 581 534 581 535 581 c 128,-1,200
 536 581 536 581 537 581 c 0,201,202
 541 580 541 580 545.5 579 c 128,-1,203
 550 578 550 578 554 577 c 256,204,205
 558 576 558 576 561.5 574.5 c 128,-1,206
 565 573 565 573 568 572 c 0,207,208
 571 570 571 570 573 569 c 128,-1,209
 575 568 575 568 576 567 c 256,210,211
 577 566 577 566 578 565 c 128,-1,212
 579 564 579 564 579 563 c 2,213,214
 579 563 579 563 579.5 562 c 128,-1,215
 580 561 580 561 580 560 c 0,216,217
 581 558 581 558 581 557 c 128,-1,218
 581 556 581 556 581 554 c 256,219,220
 581 552 581 552 581 550 c 128,-1,221
 581 548 581 548 581 545 c 256,222,223
 581 542 581 542 581 539.5 c 128,-1,224
 581 537 581 537 581 535 c 256,225,226
 581 533 581 533 580.5 531.5 c 128,-1,227
 580 530 580 530 580 529 c 1,228,-1
 580 529 l 1,33,34
352 448 m 1,229,230
 352 368 352 368 399 312 c 128,-1,231
 446 256 446 256 512 256 c 2,232,-1
 96 256 l 1,233,-1
 96 640 l 1,234,-1
 512 640 l 2,235,236
 446 640 446 640 399 584 c 128,-1,237
 352 528 352 528 352 448 c 1,238,-1
 352 448 l 1,229,230
224 512 m 1,239,240
 204 512 204 512 190 493 c 128,-1,241
 176 474 176 474 176 448 c 256,242,243
 176 422 176 422 190 403 c 128,-1,244
 204 384 204 384 224 384 c 256,245,246
 244 384 244 384 258 403 c 128,-1,247
 272 422 272 422 272 448 c 256,248,249
 272 474 272 474 258 493 c 128,-1,250
 244 512 244 512 224 512 c 1,251,-1
 224 512 l 1,239,240
EndSplineSet
EndChar

StartChar: uniE666
Encoding: 58982 58982 107
Width: 1216
Flags: W
LayerCount: 4
Fore
SplineSet
1152 224 m 1,0,-1
 1154 771 l 1,1,-1
 160 770 l 1,2,-1
 160 833 l 1,3,-1
 1216 833 l 1,4,-1
 1216 224 l 1,5,-1
 1152 224 l 1,6,-1
 1152 224 l 1,0,-1
1120 127 m 1,7,-1
 1056 128 l 1,8,-1
 1058 674 l 1,9,-1
 64 674 l 1,10,-1
 64 736 l 1,11,-1
 1120 736 l 1,12,-1
 1120 127 l 1,13,-1
 1120 127 l 1,7,-1
1026 63 m 1,14,-1
 0 63 l 1,15,-1
 0 640 l 1,16,-1
 1026 640 l 1,17,-1
 1026 63 l 1,18,-1
 1026 63 l 1,14,-1
962 578 m 1,19,-1
 64 578 l 1,20,-1
 64 127 l 1,21,-1
 962 127 l 1,22,-1
 962 578 l 1,23,-1
 962 578 l 1,19,-1
865 176 m 1,24,25
 865 171 865 171 866 167 c 128,-1,26
 867 163 867 163 869 160 c 2,27,-1
 513 160 l 2,28,29
 579 160 579 160 626 216 c 128,-1,30
 673 272 673 272 673 352 c 256,31,32
 673 432 673 432 626 488 c 128,-1,33
 579 544 579 544 513 544 c 2,34,-1
 869 544 l 1,35,36
 867 540 867 540 866 536 c 128,-1,37
 865 532 865 532 865 528 c 0,38,39
 865 508 865 508 879.5 494 c 128,-1,40
 894 480 894 480 913 480 c 0,41,42
 918 480 918 480 922 481 c 128,-1,43
 926 482 926 482 930 483 c 1,44,-1
 930 220 l 1,45,46
 926 222 926 222 922 223 c 128,-1,47
 918 224 918 224 913 224 c 0,48,49
 894 224 894 224 879.5 209.5 c 128,-1,50
 865 195 865 195 865 176 c 1,51,-1
 865 176 l 1,24,25
801 419 m 1,52,53
 781 419 781 419 767 400 c 128,-1,54
 753 381 753 381 753 354 c 0,55,56
 753 328 753 328 767 309 c 128,-1,57
 781 290 781 290 801 290 c 256,58,59
 821 290 821 290 835 309 c 128,-1,60
 849 328 849 328 849 354 c 0,61,62
 849 381 849 381 835 400 c 128,-1,63
 821 419 821 419 801 419 c 1,64,-1
 801 419 l 1,52,53
580 467 m 1,65,66
 580 467 580 467 580.5 466 c 128,-1,67
 581 465 581 465 581 464 c 256,68,69
 581 463 581 463 581.5 461.5 c 128,-1,70
 582 460 582 460 582 458 c 256,71,72
 582 456 582 456 582 454 c 128,-1,73
 582 452 582 452 582 449 c 256,74,75
 582 446 582 446 582 443.5 c 128,-1,76
 582 441 582 441 582 439 c 256,77,78
 582 437 582 437 581.5 435.5 c 128,-1,79
 581 434 581 434 581 433 c 0,80,81
 580 431 580 431 579.5 430 c 128,-1,82
 579 429 579 429 579 429 c 2,83,84
 578 428 578 428 577 428 c 128,-1,85
 576 428 576 428 575 428 c 256,86,87
 574 428 574 428 572.5 428.5 c 128,-1,88
 571 429 571 429 568 430 c 0,89,90
 566 432 566 432 563 433.5 c 128,-1,91
 560 435 560 435 556 436 c 0,92,93
 553 438 553 438 549 439.5 c 128,-1,94
 545 441 545 441 540 442 c 0,95,96
 536 444 536 444 530.5 444.5 c 128,-1,97
 525 445 525 445 520 445 c 0,98,99
 516 445 516 445 512 444.5 c 128,-1,100
 508 444 508 444 505 443 c 256,101,102
 502 442 502 442 499 440.5 c 128,-1,103
 496 439 496 439 494 437 c 256,104,105
 492 435 492 435 490.5 433 c 128,-1,106
 489 431 489 431 488 428 c 0,107,108
 487 426 487 426 486.5 423 c 128,-1,109
 486 420 486 420 486 417 c 0,110,111
 486 413 486 413 487 409.5 c 128,-1,112
 488 406 488 406 490 402 c 0,113,114
 493 399 493 399 496 396.5 c 128,-1,115
 499 394 499 394 503 391 c 0,116,117
 507 389 507 389 511.5 386.5 c 128,-1,118
 516 384 516 384 521 382 c 256,119,120
 526 380 526 380 531 377.5 c 128,-1,121
 536 375 536 375 541 373 c 0,122,123
 547 371 547 371 552 368 c 128,-1,124
 557 365 557 365 562 362 c 256,125,126
 567 359 567 359 571.5 355.5 c 128,-1,127
 576 352 576 352 580 347 c 0,128,129
 584 343 584 343 587 338 c 128,-1,130
 590 333 590 333 592 327 c 0,131,132
 595 322 595 322 596 315 c 128,-1,133
 597 308 597 308 597 300 c 0,134,135
 597 290 597 290 595 281 c 128,-1,136
 593 272 593 272 590 264 c 0,137,138
 586 257 586 257 580.5 250.5 c 128,-1,139
 575 244 575 244 569 239 c 0,140,141
 562 234 562 234 554.5 230 c 128,-1,142
 547 226 547 226 538 223 c 0,143,144
 537 223 537 223 536 223 c 128,-1,145
 535 223 535 223 534 222 c 2,146,-1
 534 187 l 1,147,-1
 502 187 l 1,148,-1
 502 218 l 1,149,150
 502 218 502 218 501.5 218 c 128,-1,151
 501 218 501 218 501 218 c 2,152,153
 494 218 494 218 488 218.5 c 128,-1,154
 482 219 482 219 476 220 c 256,155,156
 470 221 470 221 465 222.5 c 128,-1,157
 460 224 460 224 456 225 c 0,158,159
 451 227 451 227 447.5 228.5 c 128,-1,160
 444 230 444 230 441 232 c 256,161,162
 438 234 438 234 436 235.5 c 128,-1,163
 434 237 434 237 433 238 c 0,164,165
 431 239 431 239 430.5 241 c 128,-1,166
 430 243 430 243 429 245 c 0,167,168
 428 248 428 248 428 251.5 c 128,-1,169
 428 255 428 255 428 259 c 256,170,171
 428 263 428 263 428 265.5 c 128,-1,172
 428 268 428 268 428 270 c 256,173,174
 428 272 428 272 428.5 273.5 c 128,-1,175
 429 275 429 275 430 277 c 0,176,177
 430 278 430 278 430.5 279 c 128,-1,178
 431 280 431 280 432 280 c 0,179,180
 433 281 433 281 433.5 281.5 c 128,-1,181
 434 282 434 282 435 282 c 0,182,183
 437 282 437 282 439 281 c 128,-1,184
 441 280 441 280 443 278 c 0,185,186
 446 277 446 277 449.5 275 c 128,-1,187
 453 273 453 273 457 271 c 256,188,189
 461 269 461 269 465.5 267 c 128,-1,190
 470 265 470 265 476 264 c 0,191,192
 481 262 481 262 487.5 261 c 128,-1,193
 494 260 494 260 501 260 c 0,194,195
 506 260 506 260 510.5 260.5 c 128,-1,196
 515 261 515 261 519 263 c 0,197,198
 522 264 522 264 525.5 265.5 c 128,-1,199
 529 267 529 267 532 269 c 0,200,201
 534 271 534 271 536 273.5 c 128,-1,202
 538 276 538 276 540 280 c 0,203,204
 541 283 541 283 541.5 286.5 c 128,-1,205
 542 290 542 290 542 293 c 0,206,207
 542 298 542 298 541 301.5 c 128,-1,208
 540 305 540 305 538 309 c 0,209,210
 535 312 535 312 532 314.5 c 128,-1,211
 529 317 529 317 525 320 c 0,212,213
 521 322 521 322 517 324.5 c 128,-1,214
 513 327 513 327 508 329 c 256,215,216
 503 331 503 331 498 333.5 c 128,-1,217
 493 336 493 336 487 338 c 0,218,219
 482 340 482 340 477 343 c 128,-1,220
 472 346 472 346 467 349 c 256,221,222
 462 352 462 352 458 355.5 c 128,-1,223
 454 359 454 359 450 364 c 0,224,225
 446 368 446 368 443 373 c 128,-1,226
 440 378 440 378 437 384 c 0,227,228
 435 389 435 389 433.5 396 c 128,-1,229
 432 403 432 403 432 412 c 256,230,231
 432 421 432 421 434 429 c 128,-1,232
 436 437 436 437 439 444 c 0,233,234
 443 451 443 451 447.5 457 c 128,-1,235
 452 463 452 463 458 468 c 0,236,237
 464 472 464 472 471 475.5 c 128,-1,238
 478 479 478 479 486 482 c 0,239,240
 490 483 490 483 494 483.5 c 128,-1,241
 498 484 498 484 502 485 c 1,242,-1
 502 518 l 1,243,-1
 534 518 l 1,244,-1
 534 485 l 2,245,246
 535 485 535 485 536 485 c 128,-1,247
 537 485 537 485 538 485 c 0,248,249
 542 484 542 484 546.5 483 c 128,-1,250
 551 482 551 482 555 481 c 256,251,252
 559 480 559 480 562.5 478.5 c 128,-1,253
 566 477 566 477 569 476 c 0,254,255
 572 474 572 474 574 473 c 128,-1,256
 576 472 576 472 577 471 c 256,257,258
 578 470 578 470 579 469 c 128,-1,259
 580 468 580 468 580 467 c 1,260,-1
 580 467 l 1,65,66
353 352 m 1,261,262
 353 272 353 272 399.5 216 c 128,-1,263
 446 160 446 160 513 160 c 2,264,-1
 157 160 l 2,265,266
 158 163 158 163 159 167 c 128,-1,267
 160 171 160 171 160 176 c 0,268,269
 160 195 160 195 146 209.5 c 128,-1,270
 132 224 132 224 112 224 c 0,271,272
 108 224 108 224 104 223 c 128,-1,273
 100 222 100 222 96 220 c 1,274,-1
 96 483 l 1,275,276
 100 482 100 482 104 481 c 128,-1,277
 108 480 108 480 112 480 c 0,278,279
 132 480 132 480 146 494 c 128,-1,280
 160 508 160 508 160 528 c 0,281,282
 160 532 160 532 159 536 c 128,-1,283
 158 540 158 540 157 544 c 1,284,-1
 513 544 l 2,285,286
 446 544 446 544 399.5 487.5 c 128,-1,287
 353 431 353 431 353 352 c 1,288,-1
 353 352 l 1,261,262
224 419 m 1,289,290
 204 419 204 419 190 400 c 128,-1,291
 176 381 176 381 176 354 c 0,292,293
 176 328 176 328 190 309 c 128,-1,294
 204 290 204 290 224 290 c 256,295,296
 244 290 244 290 258 309 c 128,-1,297
 272 328 272 328 272 354 c 0,298,299
 272 381 272 381 258 400 c 128,-1,300
 244 419 244 419 224 419 c 1,301,-1
 224 419 l 1,289,290
EndSplineSet
EndChar

StartChar: uniE667
Encoding: 58983 58983 108
Width: 1024
Flags: W
LayerCount: 4
Fore
SplineSet
541 768 m 1,0,-1
 833 768 l 1,1,-1
 832 473 l 1,2,-1
 732 573 l 1,3,-1
 638 478 l 1,4,5
 654 450 654 450 662.5 418.5 c 128,-1,6
 671 387 671 387 671 352 c 0,7,8
 671 299 671 299 651 252.5 c 128,-1,9
 631 206 631 206 596 171 c 128,-1,10
 561 136 561 136 514.5 116 c 128,-1,11
 468 96 468 96 415 96 c 256,12,13
 362 96 362 96 315.5 116 c 128,-1,14
 269 136 269 136 234 171 c 128,-1,15
 199 206 199 206 179 252.5 c 128,-1,16
 159 299 159 299 159 352 c 256,17,18
 159 405 159 405 179 451.5 c 128,-1,19
 199 498 199 498 234 533 c 128,-1,20
 269 568 269 568 315.5 588 c 128,-1,21
 362 608 362 608 415 608 c 0,22,23
 452 608 452 608 485.5 598 c 128,-1,24
 519 588 519 588 548 571 c 1,25,-1
 642 665 l 1,26,-1
 541 768 l 1,27,-1
 541 768 l 1,0,-1
287 352 m 1,28,29
 287 299 287 299 324.5 261.5 c 128,-1,30
 362 224 362 224 415 224 c 256,31,32
 468 224 468 224 505.5 261.5 c 128,-1,33
 543 299 543 299 543 352 c 256,34,35
 543 405 543 405 505.5 442.5 c 128,-1,36
 468 480 468 480 415 480 c 256,37,38
 362 480 362 480 324.5 442.5 c 128,-1,39
 287 405 287 405 287 352 c 1,40,-1
 287 352 l 1,28,29
EndSplineSet
EndChar

StartChar: uniE668
Encoding: 58984 58984 109
Width: 1024
Flags: W
LayerCount: 4
Fore
SplineSet
577 361 m 1,0,-1
 577 256 l 1,1,-1
 705 256 l 1,2,-1
 705 128 l 1,3,-1
 577 128 l 1,4,-1
 577 0 l 1,5,-1
 447 0 l 1,6,-1
 447 128 l 1,7,-1
 320 128 l 1,8,-1
 320 256 l 1,9,-1
 447 256 l 1,10,-1
 447 361 l 1,11,12
 406 372 406 372 371 395.5 c 128,-1,13
 336 419 336 419 310.5 451.5 c 128,-1,14
 285 484 285 484 270.5 524 c 128,-1,15
 256 564 256 564 256 608 c 0,16,17
 256 661 256 661 276 708 c 128,-1,18
 296 755 296 755 331 789.5 c 128,-1,19
 366 824 366 824 412.5 844 c 128,-1,20
 459 864 459 864 512 864 c 256,21,22
 565 864 565 864 611.5 844 c 128,-1,23
 658 824 658 824 693 789.5 c 128,-1,24
 728 755 728 755 748 708 c 128,-1,25
 768 661 768 661 768 608 c 0,26,27
 768 564 768 564 753.5 523.5 c 128,-1,28
 739 483 739 483 714 450.5 c 128,-1,29
 689 418 689 418 654 395 c 128,-1,30
 619 372 619 372 577 361 c 1,31,-1
 577 361 l 1,0,-1
512 736 m 1,32,33
 459 736 459 736 421.5 698.5 c 128,-1,34
 384 661 384 661 384 608 c 0,35,36
 384 556 384 556 421.5 518.5 c 128,-1,37
 459 481 459 481 512 481 c 256,38,39
 565 481 565 481 602.5 518.5 c 128,-1,40
 640 556 640 556 640 608 c 0,41,42
 640 661 640 661 602.5 698.5 c 128,-1,43
 565 736 565 736 512 736 c 1,44,-1
 512 736 l 1,32,33
EndSplineSet
EndChar

StartChar: uniE669
Encoding: 58985 58985 110
Width: 1024
Flags: W
LayerCount: 4
Fore
SplineSet
0 64 m 1,0,-1
 0 800 l 1,1,-1
 992 800 l 1,2,-1
 992 64 l 1,3,-1
 0 64 l 1,4,-1
 0 64 l 1,0,-1
192 384 m 1,5,-1
 160 384 l 1,6,-1
 160 768 l 1,7,-1
 32 768 l 1,8,-1
 32 96 l 1,9,-1
 192 96 l 1,10,-1
 192 384 l 1,11,-1
 192 384 l 1,5,-1
384 384 m 1,12,-1
 352 384 l 1,13,-1
 352 768 l 1,14,-1
 256 768 l 1,15,-1
 256 384 l 1,16,-1
 224 384 l 1,17,-1
 224 96 l 1,18,-1
 384 96 l 1,19,-1
 384 384 l 1,20,-1
 384 384 l 1,12,-1
576 384 m 1,21,-1
 544 384 l 1,22,-1
 544 768 l 1,23,-1
 448 768 l 1,24,-1
 448 384 l 1,25,-1
 416 384 l 1,26,-1
 416 96 l 1,27,-1
 576 96 l 1,28,-1
 576 384 l 1,29,-1
 576 384 l 1,21,-1
640 768 m 1,30,-1
 640 384 l 1,31,-1
 608 384 l 1,32,-1
 608 96 l 1,33,-1
 768 96 l 1,34,-1
 768 384 l 1,35,-1
 736 384 l 1,36,-1
 736 768 l 1,37,-1
 640 768 l 1,38,-1
 640 768 l 1,30,-1
960 768 m 1,39,-1
 832 768 l 1,40,-1
 832 384 l 1,41,-1
 800 384 l 1,42,-1
 800 96 l 1,43,-1
 960 96 l 1,44,-1
 960 768 l 1,45,-1
 960 768 l 1,39,-1
EndSplineSet
EndChar

StartChar: uniE66A
Encoding: 58986 58986 111
Width: 1024
Flags: W
LayerCount: 4
Fore
SplineSet
928 349 m 1,0,-1
 892 102 l 1,1,-1
 818 173 l 1,2,3
 796 155 796 155 765 134.5 c 128,-1,4
 734 114 734 114 693.5 96.5 c 128,-1,5
 653 79 653 79 603.5 68 c 128,-1,6
 554 57 554 57 495 57 c 256,7,8
 436 57 436 57 385.5 68 c 128,-1,9
 335 79 335 79 294.5 95.5 c 128,-1,10
 254 112 254 112 222.5 131.5 c 128,-1,11
 191 151 191 151 169 169 c 1,12,-1
 102 104 l 1,13,-1
 64 349 l 1,14,-1
 317 312 l 1,15,-1
 247 244 l 1,16,17
 284 217 284 217 337.5 190.5 c 128,-1,18
 391 164 391 164 449 164 c 1,19,-1
 448 568 l 1,20,21
 407 582 407 582 380 618 c 128,-1,22
 353 654 353 654 353 699 c 0,23,24
 353 757 353 757 395 798 c 128,-1,25
 437 839 437 839 497 839 c 256,26,27
 557 839 557 839 599 798 c 128,-1,28
 641 757 641 757 641 699 c 0,29,30
 641 653 641 653 613.5 617 c 128,-1,31
 586 581 586 581 543 567 c 1,32,33
 543 537 543 537 543.5 470.5 c 128,-1,34
 544 404 544 404 544 335.5 c 128,-1,35
 544 267 544 267 543.5 215 c 128,-1,36
 543 163 543 163 543 163 c 1,37,38
 598 163 598 163 650.5 191.5 c 128,-1,39
 703 220 703 220 740 249 c 1,40,-1
 675 312 l 1,41,-1
 928 349 l 1,42,-1
 928 349 l 1,0,-1
571 701 m 1,43,44
 571 731 571 731 549.5 752.5 c 128,-1,45
 528 774 528 774 497 774 c 256,46,47
 466 774 466 774 444.5 752.5 c 128,-1,48
 423 731 423 731 423 701 c 256,49,50
 423 671 423 671 444.5 650 c 128,-1,51
 466 629 466 629 497 629 c 256,52,53
 528 629 528 629 549.5 650 c 128,-1,54
 571 671 571 671 571 701 c 1,55,-1
 571 701 l 1,43,44
EndSplineSet
EndChar

StartChar: uniE66B
Encoding: 58987 58987 112
Width: 1024
Flags: W
LayerCount: 4
Fore
SplineSet
892 660 m 1,0,1
 902 670 902 670 917 670 c 128,-1,2
 932 670 932 670 942 660 c 256,3,4
 952 650 952 650 952 635.5 c 128,-1,5
 952 621 952 621 942 610 c 2,6,-1
 537 210 l 2,7,8
 527 199 527 199 512 199 c 128,-1,9
 497 199 497 199 487 210 c 2,10,-1
 82 610 l 2,11,12
 72 621 72 621 72 635.5 c 128,-1,13
 72 650 72 650 82 660 c 256,14,15
 92 670 92 670 107 670 c 128,-1,16
 122 670 122 670 132 660 c 2,17,-1
 512 294 l 1,18,-1
 892 660 l 1,19,-1
 892 660 l 1,0,1
EndSplineSet
EndChar

StartChar: uniE66C
Encoding: 58988 58988 113
Width: 1024
Flags: W
LayerCount: 4
Fore
SplineSet
355 384 m 1,0,1
 366 439 366 439 410 475.5 c 128,-1,2
 454 512 454 512 512 512 c 256,3,4
 570 512 570 512 614 475.5 c 128,-1,5
 658 439 658 439 669 384 c 1,6,-1
 733 384 l 1,7,8
 727 425 727 425 707.5 460 c 128,-1,9
 688 495 688 495 658.5 520.5 c 128,-1,10
 629 546 629 546 591.5 561 c 128,-1,11
 554 576 554 576 512 576 c 256,12,13
 470 576 470 576 432.5 561 c 128,-1,14
 395 546 395 546 365.5 520.5 c 128,-1,15
 336 495 336 495 316.5 460 c 128,-1,16
 297 425 297 425 291 384 c 1,17,-1
 355 384 l 1,18,-1
 355 384 l 1,0,1
512 640 m 1,19,20
 525 640 525 640 534.5 649.5 c 128,-1,21
 544 659 544 659 544 672 c 2,22,-1
 544 736 l 2,23,24
 544 749 544 749 534.5 758.5 c 128,-1,25
 525 768 525 768 512 768 c 256,26,27
 499 768 499 768 489.5 758.5 c 128,-1,28
 480 749 480 749 480 736 c 2,29,-1
 480 672 l 2,30,31
 480 659 480 659 489.5 649.5 c 128,-1,32
 499 640 499 640 512 640 c 1,33,-1
 512 640 l 1,19,20
806 646 m 1,34,35
 797 656 797 656 783.5 656 c 128,-1,36
 770 656 770 656 761 646 c 2,37,-1
 716 601 l 2,38,39
 706 592 706 592 706 578.5 c 128,-1,40
 706 565 706 565 716 556 c 0,41,42
 725 546 725 546 738.5 546 c 128,-1,43
 752 546 752 546 761 556 c 2,44,-1
 806 601 l 2,45,46
 816 610 816 610 816 623.5 c 128,-1,47
 816 637 816 637 806 646 c 1,48,-1
 806 646 l 1,34,35
308 601 m 1,49,-1
 263 646 l 2,50,51
 254 656 254 656 240.5 656 c 128,-1,52
 227 656 227 656 218 646 c 0,53,54
 208 637 208 637 208 623.5 c 128,-1,55
 208 610 208 610 218 601 c 2,56,-1
 263 556 l 2,57,58
 272 546 272 546 285.5 546 c 128,-1,59
 299 546 299 546 308 556 c 0,60,61
 318 565 318 565 318 578.5 c 128,-1,62
 318 592 318 592 308 601 c 1,63,-1
 308 601 l 1,49,-1
704 320 m 1,64,-1
 320 320 l 2,65,66
 307 320 307 320 297.5 310.5 c 128,-1,67
 288 301 288 301 288 288 c 256,68,69
 288 275 288 275 297.5 265.5 c 128,-1,70
 307 256 307 256 320 256 c 2,71,-1
 704 256 l 2,72,73
 717 256 717 256 726.5 265.5 c 128,-1,74
 736 275 736 275 736 288 c 256,75,76
 736 301 736 301 726.5 310.5 c 128,-1,77
 717 320 717 320 704 320 c 1,78,-1
 704 320 l 1,64,-1
640 192 m 1,79,-1
 384 192 l 2,80,81
 371 192 371 192 361.5 182.5 c 128,-1,82
 352 173 352 173 352 160 c 256,83,84
 352 147 352 147 361.5 137.5 c 128,-1,85
 371 128 371 128 384 128 c 2,86,-1
 640 128 l 2,87,88
 653 128 653 128 662.5 137.5 c 128,-1,89
 672 147 672 147 672 160 c 256,90,91
 672 173 672 173 662.5 182.5 c 128,-1,92
 653 192 653 192 640 192 c 1,93,-1
 640 192 l 1,79,-1
EndSplineSet
EndChar

StartChar: uniE66D
Encoding: 58989 58989 114
Width: 1024
Flags: W
LayerCount: 4
Fore
SplineSet
512 672 m 1,0,1
 466 672 466 672 425 654.5 c 128,-1,2
 384 637 384 637 353.5 606.5 c 128,-1,3
 323 576 323 576 305.5 535 c 128,-1,4
 288 494 288 494 288 448 c 256,5,6
 288 402 288 402 305.5 361 c 128,-1,7
 323 320 323 320 353.5 289.5 c 128,-1,8
 384 259 384 259 425 241.5 c 128,-1,9
 466 224 466 224 512 224 c 256,10,11
 558 224 558 224 599 241.5 c 128,-1,12
 640 259 640 259 670.5 289.5 c 128,-1,13
 701 320 701 320 718.5 361 c 128,-1,14
 736 402 736 402 736 448 c 256,15,16
 736 494 736 494 718.5 535 c 128,-1,17
 701 576 701 576 670.5 606.5 c 128,-1,18
 640 637 640 637 599 654.5 c 128,-1,19
 558 672 558 672 512 672 c 1,20,-1
 512 672 l 1,0,1
512 288 m 1,21,22
 446 288 446 288 399 335 c 128,-1,23
 352 382 352 382 352 448 c 256,24,25
 352 514 352 514 399 561 c 128,-1,26
 446 608 446 608 512 608 c 256,27,28
 578 608 578 608 625 561 c 128,-1,29
 672 514 672 514 672 448 c 256,30,31
 672 382 672 382 625 335 c 128,-1,32
 578 288 578 288 512 288 c 1,33,-1
 512 288 l 1,21,22
512 736 m 1,34,35
 525 736 525 736 534.5 745.5 c 128,-1,36
 544 755 544 755 544 768 c 2,37,-1
 544 832 l 2,38,39
 544 845 544 845 534.5 854.5 c 128,-1,40
 525 864 525 864 512 864 c 256,41,42
 499 864 499 864 489.5 854.5 c 128,-1,43
 480 845 480 845 480 832 c 2,44,-1
 480 768 l 2,45,46
 480 755 480 755 489.5 745.5 c 128,-1,47
 499 736 499 736 512 736 c 1,48,-1
 512 736 l 1,34,35
512 160 m 1,49,50
 499 160 499 160 489.5 150.5 c 128,-1,51
 480 141 480 141 480 128 c 2,52,-1
 480 64 l 2,53,54
 480 51 480 51 489.5 41.5 c 128,-1,55
 499 32 499 32 512 32 c 256,56,57
 525 32 525 32 534.5 41.5 c 128,-1,58
 544 51 544 51 544 64 c 2,59,-1
 544 128 l 2,60,61
 544 141 544 141 534.5 150.5 c 128,-1,62
 525 160 525 160 512 160 c 1,63,-1
 512 160 l 1,49,50
761 652 m 1,64,-1
 806 697 l 2,65,66
 816 706 816 706 816 719.5 c 128,-1,67
 816 733 816 733 806 742 c 0,68,69
 797 752 797 752 783.5 752 c 128,-1,70
 770 752 770 752 761 742 c 2,71,-1
 716 697 l 2,72,73
 706 688 706 688 706 674.5 c 128,-1,74
 706 661 706 661 716 652 c 0,75,76
 725 642 725 642 738.5 642 c 128,-1,77
 752 642 752 642 761 652 c 1,78,-1
 761 652 l 1,64,-1
263 244 m 1,79,-1
 218 199 l 2,80,81
 208 190 208 190 208 176.5 c 128,-1,82
 208 163 208 163 218 154 c 0,83,84
 227 144 227 144 240.5 144 c 128,-1,85
 254 144 254 144 263 154 c 2,86,-1
 308 199 l 2,87,88
 318 208 318 208 318 221.5 c 128,-1,89
 318 235 318 235 308 244 c 0,90,91
 299 254 299 254 285.5 254 c 128,-1,92
 272 254 272 254 263 244 c 1,93,-1
 263 244 l 1,79,-1
224 448 m 1,94,95
 224 461 224 461 214.5 470.5 c 128,-1,96
 205 480 205 480 192 480 c 2,97,-1
 128 480 l 2,98,99
 115 480 115 480 105.5 470.5 c 128,-1,100
 96 461 96 461 96 448 c 256,101,102
 96 435 96 435 105.5 425.5 c 128,-1,103
 115 416 115 416 128 416 c 2,104,-1
 192 416 l 2,105,106
 205 416 205 416 214.5 425.5 c 128,-1,107
 224 435 224 435 224 448 c 1,108,-1
 224 448 l 1,94,95
896 480 m 1,109,-1
 832 480 l 2,110,111
 819 480 819 480 809.5 470.5 c 128,-1,112
 800 461 800 461 800 448 c 256,113,114
 800 435 800 435 809.5 425.5 c 128,-1,115
 819 416 819 416 832 416 c 2,116,-1
 896 416 l 2,117,118
 909 416 909 416 918.5 425.5 c 128,-1,119
 928 435 928 435 928 448 c 256,120,121
 928 461 928 461 918.5 470.5 c 128,-1,122
 909 480 909 480 896 480 c 1,123,-1
 896 480 l 1,109,-1
263 652 m 1,124,125
 272 642 272 642 285.5 642 c 128,-1,126
 299 642 299 642 308 652 c 0,127,128
 318 661 318 661 318 674.5 c 128,-1,129
 318 688 318 688 308 697 c 2,130,-1
 263 742 l 2,131,132
 254 752 254 752 240.5 752 c 128,-1,133
 227 752 227 752 218 742 c 0,134,135
 208 733 208 733 208 719.5 c 128,-1,136
 208 706 208 706 218 697 c 2,137,-1
 263 652 l 1,138,-1
 263 652 l 1,124,125
761 244 m 1,139,140
 752 254 752 254 738.5 254 c 128,-1,141
 725 254 725 254 716 244 c 0,142,143
 706 235 706 235 706 222 c 128,-1,144
 706 209 706 209 716 199 c 2,145,-1
 761 154 l 2,146,147
 770 145 770 145 783.5 145 c 128,-1,148
 797 145 797 145 806 154 c 0,149,150
 816 163 816 163 816 176.5 c 128,-1,151
 816 190 816 190 806 199 c 2,152,-1
 761 244 l 1,153,-1
 761 244 l 1,139,140
EndSplineSet
EndChar

StartChar: uniE66E
Encoding: 58990 58990 115
Width: 1024
Flags: W
LayerCount: 4
Fore
SplineSet
700 274 m 1,0,1
 662 236 662 236 615 217.5 c 128,-1,2
 568 199 568 199 519 199 c 128,-1,3
 470 199 470 199 422.5 217.5 c 128,-1,4
 375 236 375 236 338 274 c 0,5,6
 300 311 300 311 281.5 358.5 c 128,-1,7
 263 406 263 406 263 455 c 128,-1,8
 263 504 263 504 281.5 551 c 128,-1,9
 300 598 300 598 338 636 c 0,10,11
 358 656 358 656 382 671 c 128,-1,12
 406 686 406 686 433 695 c 0,13,14
 442 698 442 698 451 696 c 128,-1,15
 460 694 460 694 467 688 c 0,16,17
 473 681 473 681 475 672 c 128,-1,18
 477 663 477 663 474 655 c 0,19,20
 455 601 455 601 467 547.5 c 128,-1,21
 479 494 479 494 519 455 c 0,22,23
 558 415 558 415 611.5 403 c 128,-1,24
 665 391 665 391 719 410 c 0,25,26
 727 413 727 413 736 411 c 128,-1,27
 745 409 745 409 752 403 c 0,28,29
 758 396 758 396 760 387 c 128,-1,30
 762 378 762 378 759 369 c 0,31,32
 750 342 750 342 735 318 c 128,-1,33
 720 294 720 294 700 274 c 1,34,-1
 700 274 l 1,0,1
383 590 m 1,35,36
 327 534 327 534 327 454.5 c 128,-1,37
 327 375 327 375 383 319 c 0,38,39
 413 289 413 289 451.5 275 c 128,-1,40
 490 261 490 261 529.5 263.5 c 128,-1,41
 569 266 569 266 606 284 c 128,-1,42
 643 302 643 302 669 335 c 1,43,44
 615 332 615 332 564 351 c 128,-1,45
 513 370 513 370 473 409 c 0,46,47
 434 449 434 449 415 500 c 128,-1,48
 396 551 396 551 399 605 c 1,49,50
 395 602 395 602 391 598 c 128,-1,51
 387 594 387 594 383 590 c 1,52,-1
 383 590 l 1,35,36
EndSplineSet
EndChar

StartChar: uniE66F
Encoding: 58991 58991 116
Width: 1024
Flags: W
LayerCount: 4
Fore
SplineSet
542 706 m 1,0,1
 555 706 555 706 564.5 715.5 c 128,-1,2
 574 725 574 725 574 738 c 2,3,-1
 574 802 l 2,4,5
 574 815 574 815 564.5 824.5 c 128,-1,6
 555 834 555 834 542 834 c 256,7,8
 529 834 529 834 519.5 824.5 c 128,-1,9
 510 815 510 815 510 802 c 2,10,-1
 510 738 l 2,11,12
 510 725 510 725 519.5 715.5 c 128,-1,13
 529 706 529 706 542 706 c 1,14,-1
 542 706 l 1,0,1
542 130 m 1,15,16
 529 130 529 130 519.5 120.5 c 128,-1,17
 510 111 510 111 510 98 c 2,18,-1
 510 34 l 2,19,20
 510 21 510 21 519.5 11.5 c 128,-1,21
 529 2 529 2 542 2 c 256,22,23
 555 2 555 2 564.5 11.5 c 128,-1,24
 574 21 574 21 574 34 c 2,25,-1
 574 98 l 2,26,27
 574 111 574 111 564.5 120.5 c 128,-1,28
 555 130 555 130 542 130 c 1,29,-1
 542 130 l 1,15,16
293 214 m 1,30,-1
 248 169 l 2,31,32
 238 160 238 160 238 146.5 c 128,-1,33
 238 133 238 133 248 124 c 0,34,35
 257 114 257 114 270.5 114 c 128,-1,36
 284 114 284 114 293 124 c 2,37,-1
 338 169 l 2,38,39
 348 178 348 178 348 191.5 c 128,-1,40
 348 205 348 205 338 214 c 0,41,42
 329 224 329 224 315.5 224 c 128,-1,43
 302 224 302 224 293 214 c 1,44,-1
 293 214 l 1,30,-1
254 418 m 1,45,46
 254 431 254 431 244.5 440.5 c 128,-1,47
 235 450 235 450 222 450 c 2,48,-1
 158 450 l 2,49,50
 145 450 145 450 135.5 440.5 c 128,-1,51
 126 431 126 431 126 418 c 256,52,53
 126 405 126 405 135.5 395.5 c 128,-1,54
 145 386 145 386 158 386 c 2,55,-1
 222 386 l 2,56,57
 235 386 235 386 244.5 395.5 c 128,-1,58
 254 405 254 405 254 418 c 1,59,-1
 254 418 l 1,45,46
293 622 m 1,60,61
 302 612 302 612 315.5 612 c 128,-1,62
 329 612 329 612 338 622 c 0,63,64
 348 631 348 631 348 644.5 c 128,-1,65
 348 658 348 658 338 667 c 2,66,-1
 293 712 l 2,67,68
 284 722 284 722 270.5 722 c 128,-1,69
 257 722 257 722 248 712 c 0,70,71
 238 703 238 703 238 689.5 c 128,-1,72
 238 676 238 676 248 667 c 2,73,-1
 293 622 l 1,74,-1
 293 622 l 1,60,61
670 642 m 1,75,76
 653 642 653 642 637 639 c 128,-1,77
 621 636 621 636 606 632 c 1,78,79
 591 636 591 636 575 639 c 128,-1,80
 559 642 559 642 542 642 c 0,81,82
 496 642 496 642 455 624.5 c 128,-1,83
 414 607 414 607 383.5 576.5 c 128,-1,84
 353 546 353 546 335.5 505 c 128,-1,85
 318 464 318 464 318 418 c 256,86,87
 318 372 318 372 335.5 331 c 128,-1,88
 353 290 353 290 383.5 259.5 c 128,-1,89
 414 229 414 229 455 211.5 c 128,-1,90
 496 194 496 194 542 194 c 0,91,92
 559 194 559 194 575 197 c 128,-1,93
 591 200 591 200 606 204 c 1,94,95
 621 200 621 200 637 197 c 128,-1,96
 653 194 653 194 670 194 c 0,97,98
 716 194 716 194 757 211.5 c 128,-1,99
 798 229 798 229 828.5 259.5 c 128,-1,100
 859 290 859 290 876.5 331 c 128,-1,101
 894 372 894 372 894 418 c 256,102,103
 894 464 894 464 876.5 505 c 128,-1,104
 859 546 859 546 828.5 576.5 c 128,-1,105
 798 607 798 607 757 624.5 c 128,-1,106
 716 642 716 642 670 642 c 1,107,-1
 670 642 l 1,75,76
510 261 m 1,108,109
 455 272 455 272 418.5 316 c 128,-1,110
 382 360 382 360 382 418 c 256,111,112
 382 476 382 476 418.5 520 c 128,-1,113
 455 564 455 564 510 575 c 1,114,115
 481 544 481 544 463.5 504 c 128,-1,116
 446 464 446 464 446 418 c 256,117,118
 446 372 446 372 463.5 332 c 128,-1,119
 481 292 481 292 510 261 c 1,120,-1
 510 261 l 1,108,109
EndSplineSet
EndChar

StartChar: uniE670
Encoding: 58992 58992 117
Width: 1024
Flags: W
LayerCount: 4
Fore
SplineSet
990 514 m 1,0,-1
 827 514 l 1,1,2
 821 568 821 568 796.5 614.5 c 128,-1,3
 772 661 772 661 734 695.5 c 128,-1,4
 696 730 696 730 646.5 750 c 128,-1,5
 597 770 597 770 542 770 c 0,6,7
 467 770 467 770 404.5 735 c 128,-1,8
 342 700 342 700 303 642 c 1,9,-1
 94 642 l 2,10,11
 81 642 81 642 71.5 632.5 c 128,-1,12
 62 623 62 623 62 610 c 256,13,14
 62 597 62 597 71.5 587.5 c 128,-1,15
 81 578 81 578 94 578 c 2,16,-1
 272 578 l 1,17,18
 266 563 266 563 262.5 547 c 128,-1,19
 259 531 259 531 257 514 c 1,20,-1
 158 514 l 2,21,22
 145 514 145 514 135.5 504.5 c 128,-1,23
 126 495 126 495 126 482 c 256,24,25
 126 469 126 469 135.5 459.5 c 128,-1,26
 145 450 145 450 158 450 c 2,27,-1
 257 450 l 1,28,29
 259 433 259 433 262.5 417 c 128,-1,30
 266 401 266 401 272 386 c 1,31,-1
 100 386 l 2,32,33
 84 386 84 386 73 376.5 c 128,-1,34
 62 367 62 367 62 354 c 256,35,36
 62 341 62 341 73 331.5 c 128,-1,37
 84 322 84 322 100 322 c 2,38,-1
 303 322 l 1,39,40
 342 264 342 264 404.5 229 c 128,-1,41
 467 194 467 194 542 194 c 256,42,43
 617 194 617 194 679.5 229 c 128,-1,44
 742 264 742 264 781 322 c 1,45,-1
 856 322 l 2,46,47
 872 322 872 322 883 331.5 c 128,-1,48
 894 341 894 341 894 354 c 256,49,50
 894 367 894 367 883 376.5 c 128,-1,51
 872 386 872 386 856 386 c 2,52,-1
 812 386 l 1,53,54
 818 401 818 401 821.5 417 c 128,-1,55
 825 433 825 433 827 450 c 1,56,-1
 990 450 l 2,57,58
 1003 450 1003 450 1012.5 459.5 c 128,-1,59
 1022 469 1022 469 1022 482 c 256,60,61
 1022 495 1022 495 1012.5 504.5 c 128,-1,62
 1003 514 1003 514 990 514 c 1,63,-1
 990 514 l 1,0,-1
340 578 m 1,64,-1
 542 578 l 2,65,66
 555 578 555 578 564.5 587.5 c 128,-1,67
 574 597 574 597 574 610 c 256,68,69
 574 623 574 623 564.5 632.5 c 128,-1,70
 555 642 555 642 542 642 c 2,71,-1
 386 642 l 1,72,73
 416 672 416 672 456 689 c 128,-1,74
 496 706 496 706 542 706 c 0,75,76
 584 706 584 706 621.5 691 c 128,-1,77
 659 676 659 676 688.5 650.5 c 128,-1,78
 718 625 718 625 737.5 590 c 128,-1,79
 757 555 757 555 763 514 c 1,80,-1
 321 514 l 1,81,82
 324 531 324 531 328.5 547 c 128,-1,83
 333 563 333 563 340 578 c 1,84,-1
 340 578 l 1,64,-1
542 258 m 1,85,86
 496 258 496 258 456 275 c 128,-1,87
 416 292 416 292 386 322 c 1,88,-1
 698 322 l 1,89,90
 668 292 668 292 628 275 c 128,-1,91
 588 258 588 258 542 258 c 1,92,-1
 542 258 l 1,85,86
743 386 m 1,93,-1
 340 386 l 1,94,95
 333 401 333 401 328.5 417 c 128,-1,96
 324 433 324 433 321 450 c 1,97,-1
 763 450 l 1,98,99
 760 433 760 433 755.5 417 c 128,-1,100
 751 401 751 401 744 386 c 1,101,-1
 743 386 l 1,93,-1
EndSplineSet
EndChar

StartChar: uniE671
Encoding: 58993 58993 118
Width: 1024
Flags: W
LayerCount: 4
Fore
SplineSet
862 576 m 1,0,1
 822 576 822 576 794 548 c 128,-1,2
 766 520 766 520 766 480 c 0,3,4
 766 472 766 472 767.5 464 c 128,-1,5
 769 456 769 456 772 448 c 1,6,-1
 158 448 l 2,7,8
 145 448 145 448 135.5 438.5 c 128,-1,9
 126 429 126 429 126 416 c 256,10,11
 126 403 126 403 135.5 393.5 c 128,-1,12
 145 384 145 384 158 384 c 2,13,-1
 862 384 l 2,14,15
 902 384 902 384 930 412 c 128,-1,16
 958 440 958 440 958 480 c 256,17,18
 958 520 958 520 930 548 c 128,-1,19
 902 576 902 576 862 576 c 1,20,-1
 862 576 l 1,0,1
158 512 m 1,21,-1
 542 512 l 2,22,23
 582 512 582 512 610 540 c 128,-1,24
 638 568 638 568 638 608 c 256,25,26
 638 648 638 648 610 676 c 128,-1,27
 582 704 582 704 542 704 c 256,28,29
 502 704 502 704 474 676 c 128,-1,30
 446 648 446 648 446 608 c 0,31,32
 446 600 446 600 447.5 592 c 128,-1,33
 449 584 449 584 452 576 c 1,34,-1
 158 576 l 2,35,36
 145 576 145 576 135.5 566.5 c 128,-1,37
 126 557 126 557 126 544 c 256,38,39
 126 531 126 531 135.5 521.5 c 128,-1,40
 145 512 145 512 158 512 c 1,41,-1
 158 512 l 1,21,-1
670 320 m 1,42,43
 669 320 669 320 667.5 320 c 128,-1,44
 666 320 666 320 664 319 c 0,45,46
 663 319 663 319 662.5 319.5 c 128,-1,47
 662 320 662 320 661 320 c 2,48,-1
 167 320 l 2,49,50
 150 320 150 320 138 310.5 c 128,-1,51
 126 301 126 301 126 288 c 256,52,53
 126 275 126 275 138 265.5 c 128,-1,54
 150 256 150 256 167 256 c 2,55,-1
 580 256 l 1,56,57
 577 248 577 248 575.5 240 c 128,-1,58
 574 232 574 232 574 224 c 0,59,60
 574 184 574 184 602 156 c 128,-1,61
 630 128 630 128 670 128 c 256,62,63
 710 128 710 128 738 156 c 128,-1,64
 766 184 766 184 766 224 c 256,65,66
 766 264 766 264 738 292 c 128,-1,67
 710 320 710 320 670 320 c 1,68,-1
 670 320 l 1,42,43
EndSplineSet
EndChar

StartChar: uniE672
Encoding: 58994 58994 119
Width: 1024
Flags: W
LayerCount: 4
Fore
SplineSet
766 375 m 1,0,-1
 700 413 l 1,1,2
 702 422 702 422 703 430.5 c 128,-1,3
 704 439 704 439 704 448 c 256,4,5
 704 457 704 457 703 465.5 c 128,-1,6
 702 474 702 474 700 483 c 1,7,-1
 766 521 l 2,8,9
 789 534 789 534 795.5 559.5 c 128,-1,10
 802 585 802 585 789 608 c 256,11,12
 776 631 776 631 750.5 638 c 128,-1,13
 725 645 725 645 702 632 c 2,14,-1
 636 593 l 1,15,16
 623 605 623 605 608 613.5 c 128,-1,17
 593 622 593 622 576 628 c 1,18,-1
 576 704 l 2,19,20
 576 731 576 731 557.5 749.5 c 128,-1,21
 539 768 539 768 512 768 c 256,22,23
 485 768 485 768 466.5 749.5 c 128,-1,24
 448 731 448 731 448 704 c 2,25,-1
 448 628 l 1,26,27
 431 622 431 622 416 613.5 c 128,-1,28
 401 605 401 605 388 594 c 1,29,-1
 322 631 l 2,30,31
 299 645 299 645 273.5 638 c 128,-1,32
 248 631 248 631 235 608 c 256,33,34
 222 585 222 585 228.5 559.5 c 128,-1,35
 235 534 235 534 258 521 c 2,36,-1
 323 483 l 1,37,38
 322 475 322 475 321 466 c 128,-1,39
 320 457 320 457 320 448 c 256,40,41
 320 439 320 439 321 430.5 c 128,-1,42
 322 422 322 422 323 413 c 1,43,-1
 258 375 l 2,44,45
 235 362 235 362 228.5 336.5 c 128,-1,46
 222 311 222 311 235 288 c 256,47,48
 248 265 248 265 273.5 258 c 128,-1,49
 299 251 299 251 322 265 c 2,50,-1
 388 303 l 1,51,52
 401 291 401 291 416 282.5 c 128,-1,53
 431 274 431 274 448 268 c 1,54,-1
 448 192 l 2,55,56
 448 165 448 165 466.5 146.5 c 128,-1,57
 485 128 485 128 512 128 c 256,58,59
 539 128 539 128 557.5 146.5 c 128,-1,60
 576 165 576 165 576 192 c 2,61,-1
 576 268 l 1,62,63
 593 274 593 274 608 282.5 c 128,-1,64
 623 291 623 291 636 303 c 1,65,-1
 702 265 l 2,66,67
 725 251 725 251 750.5 258 c 128,-1,68
 776 265 776 265 789 288 c 256,69,70
 802 311 802 311 795.5 336.5 c 128,-1,71
 789 362 789 362 766 375 c 1,72,-1
 766 375 l 1,0,-1
448 448 m 1,73,74
 448 475 448 475 466.5 493.5 c 128,-1,75
 485 512 485 512 512 512 c 0,76,77
 538 512 538 512 557 493.5 c 128,-1,78
 576 475 576 475 576 448 c 0,79,80
 576 422 576 422 557 403 c 128,-1,81
 538 384 538 384 512 384 c 0,82,83
 485 384 485 384 466.5 403 c 128,-1,84
 448 422 448 422 448 448 c 1,85,-1
 448 448 l 1,73,74
EndSplineSet
EndChar

StartChar: uniE673
Encoding: 58995 58995 120
Width: 1024
Flags: W
LayerCount: 4
Fore
SplineSet
416 832 m 1,0,1
 429 832 429 832 438.5 841.5 c 128,-1,2
 448 851 448 851 448 864 c 2,3,-1
 448 928 l 2,4,5
 448 941 448 941 438.5 950.5 c 128,-1,6
 429 960 429 960 416 960 c 256,7,8
 403 960 403 960 393.5 950.5 c 128,-1,9
 384 941 384 941 384 928 c 2,10,-1
 384 864 l 2,11,12
 384 851 384 851 393.5 841.5 c 128,-1,13
 403 832 403 832 416 832 c 1,14,-1
 416 832 l 1,0,1
665 748 m 1,15,-1
 710 793 l 2,16,17
 719 802 719 802 719 815.5 c 128,-1,18
 719 829 719 829 710 838 c 0,19,20
 701 848 701 848 687.5 848 c 128,-1,21
 674 848 674 848 665 838 c 2,22,-1
 620 793 l 2,23,24
 610 784 610 784 610 770.5 c 128,-1,25
 610 757 610 757 620 748 c 0,26,27
 629 738 629 738 642.5 738 c 128,-1,28
 656 738 656 738 665 748 c 1,29,-1
 665 748 l 1,15,-1
32 512 m 1,30,-1
 96 512 l 2,31,32
 109 512 109 512 118.5 521.5 c 128,-1,33
 128 531 128 531 128 544 c 256,34,35
 128 557 128 557 118.5 566.5 c 128,-1,36
 109 576 109 576 96 576 c 2,37,-1
 32 576 l 2,38,39
 19 576 19 576 9.5 566.5 c 128,-1,40
 0 557 0 557 0 544 c 256,41,42
 0 531 0 531 9.5 521.5 c 128,-1,43
 19 512 19 512 32 512 c 1,44,-1
 32 512 l 1,30,-1
704 544 m 1,45,46
 704 531 704 531 713.5 521.5 c 128,-1,47
 723 512 723 512 736 512 c 2,48,-1
 800 512 l 2,49,50
 813 512 813 512 822.5 521.5 c 128,-1,51
 832 531 832 531 832 544 c 256,52,53
 832 557 832 557 822.5 566.5 c 128,-1,54
 813 576 813 576 800 576 c 2,55,-1
 736 576 l 2,56,57
 723 576 723 576 713.5 566.5 c 128,-1,58
 704 557 704 557 704 544 c 1,59,-1
 704 544 l 1,45,46
167 748 m 1,60,61
 176 738 176 738 189.5 738 c 128,-1,62
 203 738 203 738 212 748 c 0,63,64
 222 757 222 757 222 770.5 c 128,-1,65
 222 784 222 784 212 793 c 2,66,-1
 167 838 l 2,67,68
 158 848 158 848 144.5 848 c 128,-1,69
 131 848 131 848 122 838 c 0,70,71
 112 829 112 829 112 815.5 c 128,-1,72
 112 802 112 802 122 793 c 2,73,-1
 167 748 l 1,74,-1
 167 748 l 1,60,61
800 448 m 1,75,76
 792 448 792 448 784 447.5 c 128,-1,77
 776 447 776 447 768 446 c 1,78,79
 743 480 743 480 710.5 506 c 128,-1,80
 678 532 678 532 640 549 c 1,81,82
 639 594 639 594 621 634 c 128,-1,83
 603 674 603 674 572.5 704 c 128,-1,84
 542 734 542 734 502 751 c 128,-1,85
 462 768 462 768 416 768 c 256,86,87
 370 768 370 768 329 750.5 c 128,-1,88
 288 733 288 733 257.5 702.5 c 128,-1,89
 227 672 227 672 209.5 631 c 128,-1,90
 192 590 192 590 192 544 c 0,91,92
 192 518 192 518 198 493.5 c 128,-1,93
 204 469 204 469 215 447 c 1,94,95
 170 445 170 445 131 427 c 128,-1,96
 92 409 92 409 63 379 c 128,-1,97
 34 349 34 349 17 309 c 128,-1,98
 0 269 0 269 0 224 c 0,99,100
 0 178 0 178 17.5 137 c 128,-1,101
 35 96 35 96 65.5 65.5 c 128,-1,102
 96 35 96 35 137 17.5 c 128,-1,103
 178 0 178 0 224 0 c 0,104,105
 245 0 245 0 264.5 3.5 c 128,-1,106
 284 7 284 7 303 15 c 1,107,108
 347 -23 347 -23 400.5 -43.5 c 128,-1,109
 454 -64 454 -64 512 -64 c 256,110,111
 570 -64 570 -64 623.5 -43.5 c 128,-1,112
 677 -23 677 -23 721 15 c 1,113,114
 740 7 740 7 759.5 3.5 c 128,-1,115
 779 0 779 0 800 0 c 0,116,117
 846 0 846 0 887 17.5 c 128,-1,118
 928 35 928 35 958.5 65.5 c 128,-1,119
 989 96 989 96 1006.5 137 c 128,-1,120
 1024 178 1024 178 1024 224 c 256,121,122
 1024 270 1024 270 1006.5 311 c 128,-1,123
 989 352 989 352 958.5 382.5 c 128,-1,124
 928 413 928 413 887 430.5 c 128,-1,125
 846 448 846 448 800 448 c 1,126,-1
 800 448 l 1,75,76
416 704 m 1,127,128
 476 704 476 704 520 665.5 c 128,-1,129
 564 627 564 627 573 570 c 1,130,131
 558 572 558 572 543 574 c 128,-1,132
 528 576 528 576 512 576 c 0,133,134
 443 576 443 576 381.5 548 c 128,-1,135
 320 520 320 520 275 470 c 1,136,137
 266 486 266 486 261 505 c 128,-1,138
 256 524 256 524 256 544 c 0,139,140
 256 610 256 610 303 657 c 128,-1,141
 350 704 350 704 416 704 c 1,142,-1
 416 704 l 1,127,128
800 64 m 1,143,144
 774 64 774 64 751 72 c 128,-1,145
 728 80 728 80 708 93 c 1,146,147
 673 51 673 51 622 25.5 c 128,-1,148
 571 0 571 0 512 0 c 256,149,150
 453 0 453 0 402 25.5 c 128,-1,151
 351 51 351 51 316 93 c 1,152,153
 296 80 296 80 273 72 c 128,-1,154
 250 64 250 64 224 64 c 0,155,156
 158 64 158 64 111 111 c 128,-1,157
 64 158 64 158 64 224 c 256,158,159
 64 290 64 290 111 337 c 128,-1,160
 158 384 158 384 224 384 c 0,161,162
 236 384 236 384 247 382 c 128,-1,163
 258 380 258 380 268 377 c 0,164,165
 272 376 272 376 276.5 375 c 128,-1,166
 281 374 281 374 285 372 c 1,167,168
 291 385 291 385 299.5 396.5 c 128,-1,169
 308 408 308 408 317 419 c 0,170,171
 352 462 352 462 402.5 487 c 128,-1,172
 453 512 453 512 512 512 c 0,173,174
 527 512 527 512 541.5 510 c 128,-1,175
 556 508 556 508 570 505 c 0,176,177
 586 501 586 501 601 495.5 c 128,-1,178
 616 490 616 490 630 482 c 0,179,180
 665 463 665 463 693 435 c 128,-1,181
 721 407 721 407 739 372 c 1,182,183
 753 378 753 378 768.5 381 c 128,-1,184
 784 384 784 384 800 384 c 0,185,186
 866 384 866 384 913 337 c 128,-1,187
 960 290 960 290 960 224 c 256,188,189
 960 158 960 158 913 111 c 128,-1,190
 866 64 866 64 800 64 c 1,191,-1
 800 64 l 1,143,144
EndSplineSet
EndChar

StartChar: uniE674
Encoding: 58996 58996 121
Width: 1024
Flags: W
LayerCount: 4
Fore
SplineSet
870 436 m 1,0,1
 877 441 877 441 884.5 446.5 c 128,-1,2
 892 452 892 452 899 459 c 0,3,4
 918 479 918 479 933 503 c 128,-1,5
 948 527 948 527 958 555 c 0,6,7
 961 563 961 563 959 572 c 128,-1,8
 957 581 957 581 951 588 c 0,9,10
 944 594 944 594 935 596.5 c 128,-1,11
 926 599 926 599 917 595 c 0,12,13
 864 577 864 577 810.5 589 c 128,-1,14
 757 601 757 601 718 640 c 0,15,16
 678 679 678 679 666 733 c 128,-1,17
 654 787 654 787 673 840 c 0,18,19
 676 848 676 848 674 857 c 128,-1,20
 672 866 672 866 666 873 c 0,21,22
 659 880 659 880 650 882 c 128,-1,23
 641 884 641 884 632 881 c 0,24,25
 604 871 604 871 580 856 c 128,-1,26
 556 841 556 841 537 821 c 0,27,28
 486 771 486 771 470 704.5 c 128,-1,29
 454 638 454 638 472 573 c 1,30,31
 407 565 407 565 350.5 532 c 128,-1,32
 294 499 294 499 256 446 c 1,33,34
 248 447 248 447 240 447.5 c 128,-1,35
 232 448 232 448 224 448 c 0,36,37
 178 448 178 448 137 430.5 c 128,-1,38
 96 413 96 413 65.5 382.5 c 128,-1,39
 35 352 35 352 17.5 311 c 128,-1,40
 0 270 0 270 0 224 c 256,41,42
 0 178 0 178 17.5 137 c 128,-1,43
 35 96 35 96 65.5 65.5 c 128,-1,44
 96 35 96 35 137 17.5 c 128,-1,45
 178 0 178 0 224 0 c 0,46,47
 245 0 245 0 264.5 3.5 c 128,-1,48
 284 7 284 7 303 15 c 1,49,50
 347 -23 347 -23 400.5 -43.5 c 128,-1,51
 454 -64 454 -64 512 -64 c 256,52,53
 570 -64 570 -64 623.5 -43.5 c 128,-1,54
 677 -23 677 -23 721 15 c 1,55,56
 740 7 740 7 759.5 3.5 c 128,-1,57
 779 0 779 0 800 0 c 0,58,59
 846 0 846 0 887 17.5 c 128,-1,60
 928 35 928 35 958.5 65.5 c 128,-1,61
 989 96 989 96 1006.5 137 c 128,-1,62
 1024 178 1024 178 1024 224 c 0,63,64
 1024 298 1024 298 980.5 355.5 c 128,-1,65
 937 413 937 413 870 436 c 1,66,-1
 870 436 l 1,0,1
582 776 m 1,67,68
 586 780 586 780 590 783.5 c 128,-1,69
 594 787 594 787 598 790 c 1,70,71
 595 736 595 736 614 685 c 128,-1,72
 633 634 633 634 672 595 c 0,73,74
 712 555 712 555 763 536 c 128,-1,75
 814 517 814 517 868 520 c 1,76,77
 847 494 847 494 819.5 477.5 c 128,-1,78
 792 461 792 461 762 454 c 1,79,80
 721 506 721 506 662.5 537.5 c 128,-1,81
 604 569 604 569 538 574 c 1,82,83
 519 625 519 625 530 680 c 128,-1,84
 541 735 541 735 582 776 c 1,85,-1
 582 776 l 1,67,68
800 64 m 1,86,87
 774 64 774 64 751 72 c 128,-1,88
 728 80 728 80 708 93 c 1,89,90
 673 51 673 51 622 25.5 c 128,-1,91
 571 0 571 0 512 0 c 256,92,93
 453 0 453 0 402 25.5 c 128,-1,94
 351 51 351 51 316 93 c 1,95,96
 296 80 296 80 273 72 c 128,-1,97
 250 64 250 64 224 64 c 0,98,99
 158 64 158 64 111 111 c 128,-1,100
 64 158 64 158 64 224 c 256,101,102
 64 290 64 290 111 337 c 128,-1,103
 158 384 158 384 224 384 c 0,104,105
 240 384 240 384 255.5 381 c 128,-1,106
 271 378 271 378 285 372 c 1,107,108
 315 431 315 431 371.5 469 c 128,-1,109
 428 507 428 507 497 511 c 0,110,111
 501 511 501 511 504.5 511.5 c 128,-1,112
 508 512 508 512 512 512 c 0,113,114
 531 512 531 512 549.5 509 c 128,-1,115
 568 506 568 506 586 501 c 0,116,117
 610 494 610 494 631.5 482 c 128,-1,118
 653 470 653 470 671 455 c 0,119,120
 689 441 689 441 704 423 c 128,-1,121
 719 405 719 405 731 385 c 0,122,123
 733 382 733 382 735 378.5 c 128,-1,124
 737 375 737 375 739 372 c 0,125,126
 753 378 753 378 768.5 381 c 128,-1,127
 784 384 784 384 800 384 c 0,128,129
 866 384 866 384 913 337 c 128,-1,130
 960 290 960 290 960 224 c 256,131,132
 960 158 960 158 913 111 c 128,-1,133
 866 64 866 64 800 64 c 1,134,-1
 800 64 l 1,86,87
EndSplineSet
EndChar

StartChar: uniE675
Encoding: 58997 58997 122
Width: 1024
Flags: W
LayerCount: 4
Fore
SplineSet
512 770 m 1,0,1
 525 770 525 770 534.5 779.5 c 128,-1,2
 544 789 544 789 544 802 c 2,3,-1
 544 866 l 2,4,5
 544 879 544 879 534.5 888.5 c 128,-1,6
 525 898 525 898 512 898 c 256,7,8
 499 898 499 898 489.5 888.5 c 128,-1,9
 480 879 480 879 480 866 c 2,10,-1
 480 802 l 2,11,12
 480 789 480 789 489.5 779.5 c 128,-1,13
 499 770 499 770 512 770 c 1,14,-1
 512 770 l 1,0,1
761 686 m 1,15,-1
 806 731 l 2,16,17
 815 740 815 740 815 753.5 c 128,-1,18
 815 767 815 767 806 776 c 0,19,20
 797 786 797 786 783.5 786 c 128,-1,21
 770 786 770 786 761 776 c 2,22,-1
 716 731 l 2,23,24
 706 722 706 722 706 708.5 c 128,-1,25
 706 695 706 695 716 686 c 0,26,27
 725 676 725 676 738.5 676 c 128,-1,28
 752 676 752 676 761 686 c 1,29,-1
 761 686 l 1,15,-1
128 450 m 1,30,-1
 192 450 l 2,31,32
 205 450 205 450 214.5 459.5 c 128,-1,33
 224 469 224 469 224 482 c 256,34,35
 224 495 224 495 214.5 504.5 c 128,-1,36
 205 514 205 514 192 514 c 2,37,-1
 128 514 l 2,38,39
 115 514 115 514 105.5 504.5 c 128,-1,40
 96 495 96 495 96 482 c 256,41,42
 96 469 96 469 105.5 459.5 c 128,-1,43
 115 450 115 450 128 450 c 1,44,-1
 128 450 l 1,30,-1
800 482 m 1,45,46
 800 469 800 469 809.5 459.5 c 128,-1,47
 819 450 819 450 832 450 c 2,48,-1
 896 450 l 2,49,50
 909 450 909 450 918.5 459.5 c 128,-1,51
 928 469 928 469 928 482 c 256,52,53
 928 495 928 495 918.5 504.5 c 128,-1,54
 909 514 909 514 896 514 c 2,55,-1
 832 514 l 2,56,57
 819 514 819 514 809.5 504.5 c 128,-1,58
 800 495 800 495 800 482 c 1,59,-1
 800 482 l 1,45,46
263 686 m 1,60,61
 272 676 272 676 285.5 676 c 128,-1,62
 299 676 299 676 308 686 c 0,63,64
 318 695 318 695 318 708.5 c 128,-1,65
 318 722 318 722 308 731 c 2,66,-1
 263 776 l 2,67,68
 254 786 254 786 240.5 786 c 128,-1,69
 227 786 227 786 218 776 c 0,70,71
 208 767 208 767 208 753.5 c 128,-1,72
 208 740 208 740 218 731 c 2,73,-1
 263 686 l 1,74,-1
 263 686 l 1,60,61
291 450 m 1,75,-1
 355 450 l 1,76,77
 354 458 354 458 353 466 c 128,-1,78
 352 474 352 474 352 482 c 0,79,80
 352 548 352 548 399 595 c 128,-1,81
 446 642 446 642 512 642 c 256,82,83
 578 642 578 642 625 595 c 128,-1,84
 672 548 672 548 672 482 c 0,85,86
 672 474 672 474 671 466 c 128,-1,87
 670 458 670 458 669 450 c 1,88,-1
 733 450 l 1,89,90
 734 458 734 458 735 466 c 128,-1,91
 736 474 736 474 736 482 c 0,92,93
 736 528 736 528 718.5 569 c 128,-1,94
 701 610 701 610 670.5 640.5 c 128,-1,95
 640 671 640 671 599 688.5 c 128,-1,96
 558 706 558 706 512 706 c 256,97,98
 466 706 466 706 425 688.5 c 128,-1,99
 384 671 384 671 353.5 640.5 c 128,-1,100
 323 610 323 610 305.5 569 c 128,-1,101
 288 528 288 528 288 482 c 0,102,103
 288 474 288 474 289 466 c 128,-1,104
 290 458 290 458 291 450 c 1,105,-1
 291 450 l 1,75,-1
896 386 m 1,106,-1
 128 386 l 2,107,108
 115 386 115 386 105.5 376.5 c 128,-1,109
 96 367 96 367 96 354 c 256,110,111
 96 341 96 341 105.5 331.5 c 128,-1,112
 115 322 115 322 128 322 c 2,113,-1
 896 322 l 2,114,115
 909 322 909 322 918.5 331.5 c 128,-1,116
 928 341 928 341 928 354 c 256,117,118
 928 367 928 367 918.5 376.5 c 128,-1,119
 909 386 909 386 896 386 c 1,120,-1
 896 386 l 1,106,-1
896 258 m 1,121,-1
 128 258 l 2,122,123
 115 258 115 258 105.5 248.5 c 128,-1,124
 96 239 96 239 96 226 c 256,125,126
 96 213 96 213 105.5 203.5 c 128,-1,127
 115 194 115 194 128 194 c 2,128,-1
 896 194 l 2,129,130
 909 194 909 194 918.5 203.5 c 128,-1,131
 928 213 928 213 928 226 c 256,132,133
 928 239 928 239 918.5 248.5 c 128,-1,134
 909 258 909 258 896 258 c 1,135,-1
 896 258 l 1,121,-1
896 130 m 1,136,-1
 128 130 l 2,137,138
 115 130 115 130 105.5 120.5 c 128,-1,139
 96 111 96 111 96 98 c 256,140,141
 96 85 96 85 105.5 75.5 c 128,-1,142
 115 66 115 66 128 66 c 2,143,-1
 896 66 l 2,144,145
 909 66 909 66 918.5 75.5 c 128,-1,146
 928 85 928 85 928 98 c 256,147,148
 928 111 928 111 918.5 120.5 c 128,-1,149
 909 130 909 130 896 130 c 1,150,-1
 896 130 l 1,136,-1
EndSplineSet
EndChar

StartChar: uniE676
Encoding: 58998 58998 123
Width: 1024
Flags: W
LayerCount: 4
Fore
SplineSet
128 322 m 1,0,-1
 896 322 l 2,1,2
 909 322 909 322 918.5 331.5 c 128,-1,3
 928 341 928 341 928 354 c 256,4,5
 928 367 928 367 918.5 376.5 c 128,-1,6
 909 386 909 386 896 386 c 2,7,-1
 128 386 l 2,8,9
 115 386 115 386 105.5 376.5 c 128,-1,10
 96 367 96 367 96 354 c 256,11,12
 96 341 96 341 105.5 331.5 c 128,-1,13
 115 322 115 322 128 322 c 1,14,-1
 128 322 l 1,0,-1
896 258 m 1,15,-1
 128 258 l 2,16,17
 115 258 115 258 105.5 248.5 c 128,-1,18
 96 239 96 239 96 226 c 256,19,20
 96 213 96 213 105.5 203.5 c 128,-1,21
 115 194 115 194 128 194 c 2,22,-1
 896 194 l 2,23,24
 909 194 909 194 918.5 203.5 c 128,-1,25
 928 213 928 213 928 226 c 256,26,27
 928 239 928 239 918.5 248.5 c 128,-1,28
 909 258 909 258 896 258 c 1,29,-1
 896 258 l 1,15,-1
896 130 m 1,30,-1
 128 130 l 2,31,32
 115 130 115 130 105.5 120.5 c 128,-1,33
 96 111 96 111 96 98 c 256,34,35
 96 85 96 85 105.5 75.5 c 128,-1,36
 115 66 115 66 128 66 c 2,37,-1
 896 66 l 2,38,39
 909 66 909 66 918.5 75.5 c 128,-1,40
 928 85 928 85 928 98 c 256,41,42
 928 111 928 111 918.5 120.5 c 128,-1,43
 909 130 909 130 896 130 c 1,44,-1
 896 130 l 1,30,-1
410 450 m 1,45,46
 410 450 410 450 409 450.5 c 128,-1,47
 408 451 408 451 408 452 c 0,48,49
 352 508 352 508 352 587.5 c 128,-1,50
 352 667 352 667 408 723 c 0,51,52
 412 727 412 727 416 730.5 c 128,-1,53
 420 734 420 734 424 738 c 1,54,55
 421 684 421 684 440 633 c 128,-1,56
 459 582 459 582 498 542 c 0,57,58
 538 503 538 503 589 484 c 128,-1,59
 640 465 640 465 694 468 c 1,60,61
 690 463 690 463 685.5 458.5 c 128,-1,62
 681 454 681 454 676 450 c 1,63,-1
 759 450 l 1,64,65
 767 462 767 462 773 475 c 128,-1,66
 779 488 779 488 784 502 c 0,67,68
 787 511 787 511 785 520 c 128,-1,69
 783 529 783 529 777 535 c 0,70,71
 770 542 770 542 761 544 c 128,-1,72
 752 546 752 546 743 543 c 0,73,74
 690 524 690 524 636.5 536 c 128,-1,75
 583 548 583 548 544 588 c 0,76,77
 504 627 504 627 492 680.5 c 128,-1,78
 480 734 480 734 499 787 c 0,79,80
 502 796 502 796 500 805 c 128,-1,81
 498 814 498 814 492 821 c 0,82,83
 485 827 485 827 476 829 c 128,-1,84
 467 831 467 831 458 828 c 0,85,86
 431 818 431 818 406.5 803 c 128,-1,87
 382 788 382 788 363 769 c 0,88,89
 330 736 330 736 312 696 c 128,-1,90
 294 656 294 656 289.5 614 c 128,-1,91
 285 572 285 572 294.5 529.5 c 128,-1,92
 304 487 304 487 328 450 c 1,93,-1
 410 450 l 1,94,-1
 410 450 l 1,45,46
EndSplineSet
EndChar

StartChar: uniE677
Encoding: 58999 58999 124
Width: 1024
Flags: W
LayerCount: 4
Fore
SplineSet
67 448 m 1,0,1
 66 456 66 456 65 464 c 128,-1,2
 64 472 64 472 64 480 c 0,3,4
 64 546 64 546 111 593 c 128,-1,5
 158 640 158 640 224 640 c 0,6,7
 240 640 240 640 255.5 637 c 128,-1,8
 271 634 271 634 285 628 c 1,9,10
 317 690 317 690 377 729 c 128,-1,11
 437 768 437 768 512 768 c 256,12,13
 587 768 587 768 647 729 c 128,-1,14
 707 690 707 690 739 628 c 1,15,16
 753 634 753 634 768.5 637 c 128,-1,17
 784 640 784 640 800 640 c 0,18,19
 866 640 866 640 913 593 c 128,-1,20
 960 546 960 546 960 480 c 0,21,22
 960 472 960 472 959 464 c 128,-1,23
 958 456 958 456 957 448 c 1,24,-1
 1021 448 l 1,25,26
 1022 456 1022 456 1023 464 c 128,-1,27
 1024 472 1024 472 1024 480 c 0,28,29
 1024 526 1024 526 1006.5 567 c 128,-1,30
 989 608 989 608 958.5 638.5 c 128,-1,31
 928 669 928 669 887 686.5 c 128,-1,32
 846 704 846 704 800 704 c 0,33,34
 792 704 792 704 784 703.5 c 128,-1,35
 776 703 776 703 768 702 c 1,36,37
 724 763 724 763 656.5 797.5 c 128,-1,38
 589 832 589 832 512 832 c 256,39,40
 435 832 435 832 367.5 797.5 c 128,-1,41
 300 763 300 763 256 702 c 1,42,43
 248 703 248 703 240 703.5 c 128,-1,44
 232 704 232 704 224 704 c 0,45,46
 178 704 178 704 137 686.5 c 128,-1,47
 96 669 96 669 65.5 638.5 c 128,-1,48
 35 608 35 608 17.5 567 c 128,-1,49
 0 526 0 526 0 480 c 0,50,51
 0 472 0 472 1 464 c 128,-1,52
 2 456 2 456 3 448 c 1,53,-1
 67 448 l 1,54,-1
 67 448 l 1,0,1
992 384 m 1,55,-1
 32 384 l 2,56,57
 19 384 19 384 9.5 374.5 c 128,-1,58
 0 365 0 365 0 352 c 256,59,60
 0 339 0 339 9.5 329.5 c 128,-1,61
 19 320 19 320 32 320 c 2,62,-1
 992 320 l 2,63,64
 1005 320 1005 320 1014.5 329.5 c 128,-1,65
 1024 339 1024 339 1024 352 c 256,66,67
 1024 365 1024 365 1014.5 374.5 c 128,-1,68
 1005 384 1005 384 992 384 c 1,69,-1
 992 384 l 1,55,-1
992 256 m 1,70,-1
 32 256 l 2,71,72
 19 256 19 256 9.5 246.5 c 128,-1,73
 0 237 0 237 0 224 c 256,74,75
 0 211 0 211 9.5 201.5 c 128,-1,76
 19 192 19 192 32 192 c 2,77,-1
 992 192 l 2,78,79
 1005 192 1005 192 1014.5 201.5 c 128,-1,80
 1024 211 1024 211 1024 224 c 256,81,82
 1024 237 1024 237 1014.5 246.5 c 128,-1,83
 1005 256 1005 256 992 256 c 1,84,-1
 992 256 l 1,70,-1
992 128 m 1,85,-1
 32 128 l 2,86,87
 19 128 19 128 9.5 118.5 c 128,-1,88
 0 109 0 109 0 96 c 256,89,90
 0 83 0 83 9.5 73.5 c 128,-1,91
 19 64 19 64 32 64 c 2,92,-1
 992 64 l 2,93,94
 1005 64 1005 64 1014.5 73.5 c 128,-1,95
 1024 83 1024 83 1024 96 c 256,96,97
 1024 109 1024 109 1014.5 118.5 c 128,-1,98
 1005 128 1005 128 992 128 c 1,99,-1
 992 128 l 1,85,-1
EndSplineSet
EndChar

StartChar: uniE678
Encoding: 59000 59000 125
Width: 1024
Flags: W
LayerCount: 4
Fore
SplineSet
224 640 m 1,0,-1
 800 640 l 2,1,2
 813 640 813 640 822.5 649.5 c 128,-1,3
 832 659 832 659 832 672 c 256,4,5
 832 685 832 685 822.5 694.5 c 128,-1,6
 813 704 813 704 800 704 c 2,7,-1
 224 704 l 2,8,9
 211 704 211 704 201.5 694.5 c 128,-1,10
 192 685 192 685 192 672 c 256,11,12
 192 659 192 659 201.5 649.5 c 128,-1,13
 211 640 211 640 224 640 c 1,14,-1
 224 640 l 1,0,-1
800 576 m 1,15,-1
 224 576 l 2,16,17
 211 576 211 576 201.5 566.5 c 128,-1,18
 192 557 192 557 192 544 c 256,19,20
 192 531 192 531 201.5 521.5 c 128,-1,21
 211 512 211 512 224 512 c 2,22,-1
 800 512 l 2,23,24
 813 512 813 512 822.5 521.5 c 128,-1,25
 832 531 832 531 832 544 c 256,26,27
 832 557 832 557 822.5 566.5 c 128,-1,28
 813 576 813 576 800 576 c 1,29,-1
 800 576 l 1,15,-1
800 448 m 1,30,-1
 224 448 l 2,31,32
 211 448 211 448 201.5 438.5 c 128,-1,33
 192 429 192 429 192 416 c 256,34,35
 192 403 192 403 201.5 393.5 c 128,-1,36
 211 384 211 384 224 384 c 2,37,-1
 800 384 l 2,38,39
 813 384 813 384 822.5 393.5 c 128,-1,40
 832 403 832 403 832 416 c 256,41,42
 832 429 832 429 822.5 438.5 c 128,-1,43
 813 448 813 448 800 448 c 1,44,-1
 800 448 l 1,30,-1
800 320 m 1,45,-1
 224 320 l 2,46,47
 211 320 211 320 201.5 310.5 c 128,-1,48
 192 301 192 301 192 288 c 256,49,50
 192 275 192 275 201.5 265.5 c 128,-1,51
 211 256 211 256 224 256 c 2,52,-1
 800 256 l 2,53,54
 813 256 813 256 822.5 265.5 c 128,-1,55
 832 275 832 275 832 288 c 256,56,57
 832 301 832 301 822.5 310.5 c 128,-1,58
 813 320 813 320 800 320 c 1,59,-1
 800 320 l 1,45,-1
EndSplineSet
EndChar

StartChar: uniE679
Encoding: 59001 59001 126
Width: 1024
Flags: W
LayerCount: 4
Fore
SplineSet
800 640 m 1,0,1
 792 640 792 640 784 639.5 c 128,-1,2
 776 639 776 639 768 638 c 1,3,4
 724 699 724 699 656.5 733.5 c 128,-1,5
 589 768 589 768 512 768 c 256,6,7
 435 768 435 768 367.5 733.5 c 128,-1,8
 300 699 300 699 256 638 c 1,9,10
 248 639 248 639 240 639.5 c 128,-1,11
 232 640 232 640 224 640 c 0,12,13
 178 640 178 640 137 622.5 c 128,-1,14
 96 605 96 605 65.5 574.5 c 128,-1,15
 35 544 35 544 17.5 503 c 128,-1,16
 0 462 0 462 0 416 c 256,17,18
 0 370 0 370 17.5 329 c 128,-1,19
 35 288 35 288 65.5 257.5 c 128,-1,20
 96 227 96 227 137 209.5 c 128,-1,21
 178 192 178 192 224 192 c 0,22,23
 245 192 245 192 264.5 195.5 c 128,-1,24
 284 199 284 199 303 207 c 1,25,26
 347 169 347 169 400.5 148.5 c 128,-1,27
 454 128 454 128 512 128 c 256,28,29
 570 128 570 128 623.5 148.5 c 128,-1,30
 677 169 677 169 721 207 c 1,31,32
 740 199 740 199 759.5 195.5 c 128,-1,33
 779 192 779 192 800 192 c 0,34,35
 846 192 846 192 887 209.5 c 128,-1,36
 928 227 928 227 958.5 257.5 c 128,-1,37
 989 288 989 288 1006.5 329 c 128,-1,38
 1024 370 1024 370 1024 416 c 256,39,40
 1024 462 1024 462 1006.5 503 c 128,-1,41
 989 544 989 544 958.5 574.5 c 128,-1,42
 928 605 928 605 887 622.5 c 128,-1,43
 846 640 846 640 800 640 c 1,44,-1
 800 640 l 1,0,1
800 256 m 1,45,46
 774 256 774 256 751 264 c 128,-1,47
 728 272 728 272 708 285 c 1,48,49
 673 243 673 243 622 217.5 c 128,-1,50
 571 192 571 192 512 192 c 256,51,52
 453 192 453 192 402 217.5 c 128,-1,53
 351 243 351 243 316 285 c 1,54,55
 296 272 296 272 273 264 c 128,-1,56
 250 256 250 256 224 256 c 0,57,58
 158 256 158 256 111 303 c 128,-1,59
 64 350 64 350 64 416 c 256,60,61
 64 482 64 482 111 529 c 128,-1,62
 158 576 158 576 224 576 c 0,63,64
 240 576 240 576 255.5 573 c 128,-1,65
 271 570 271 570 285 564 c 1,66,67
 317 626 317 626 377 665 c 128,-1,68
 437 704 437 704 512 704 c 256,69,70
 587 704 587 704 647 665 c 128,-1,71
 707 626 707 626 739 564 c 1,72,73
 753 570 753 570 768.5 573 c 128,-1,74
 784 576 784 576 800 576 c 0,75,76
 866 576 866 576 913 529 c 128,-1,77
 960 482 960 482 960 416 c 256,78,79
 960 350 960 350 913 303 c 128,-1,80
 866 256 866 256 800 256 c 1,81,-1
 800 256 l 1,45,46
EndSplineSet
EndChar

